<svg xmlns="http://www.w3.org/2000/svg" width="700" height="648" viewBox="0 0 700 648" version="1.1">
	
	<path d="M 311 41.041 C 307.816 42.104, 302.462 42.904, 298.287 42.939 C 293.557 42.979, 289.327 43.689, 286 45 C 283.209 46.100, 279.423 47, 277.585 47 C 275.748 47, 272.582 47.695, 270.549 48.544 C 268.517 49.393, 264.975 50.484, 262.677 50.968 C 247.587 54.150, 214.239 68.423, 199.719 77.914 C 195.440 80.711, 191.605 83, 191.197 83 C 190.789 83, 188.689 84.463, 186.529 86.250 C 184.369 88.037, 179.794 91.525, 176.363 94 C 153.704 110.343, 131.786 130.719, 123.654 143 C 121.651 146.025, 118.097 150.833, 115.756 153.685 C 107.394 163.872, 97.774 178.777, 90.831 192.307 C 84.594 204.459, 72.429 236.257, 70.996 244.154 C 70.531 246.713, 69.442 250.178, 68.575 251.854 C 67.709 253.530, 67 257.156, 67 259.913 C 67 262.670, 66.161 267.080, 65.136 269.713 C 63.799 273.148, 63.074 278.595, 62.570 289 C 62.183 296.975, 61.555 307.325, 61.174 312 C 60.793 316.675, 60.837 326.125, 61.271 333 C 61.706 339.875, 62.440 352.025, 62.903 360 C 63.394 368.473, 64.421 376.540, 65.372 379.409 C 66.267 382.109, 67 386.222, 67 388.550 C 67 390.877, 67.890 394.743, 68.978 397.141 C 70.066 399.538, 70.966 402.760, 70.978 404.300 C 70.990 405.839, 71.662 408.380, 72.471 409.945 C 73.281 411.510, 74.378 414.525, 74.909 416.645 C 76.943 424.757, 86.632 448.731, 91.422 457.500 C 99.340 471.998, 105.005 481.400, 107.299 483.855 C 108.659 485.310, 110.561 488.062, 111.526 489.971 C 112.491 491.880, 115.619 495.930, 118.477 498.971 C 121.336 502.012, 126.173 507.875, 129.226 512 C 135.859 520.962, 146.717 531.673, 157 539.398 C 161.125 542.497, 166.826 546.937, 169.668 549.266 C 174.727 553.411, 178.637 556.201, 184.342 559.738 C 185.906 560.707, 191.081 563.930, 195.842 566.900 C 206.219 573.373, 225.744 583.318, 233.157 585.907 C 241.557 588.840, 245.128 590.104, 250.500 592.044 C 253.250 593.038, 257.075 594.163, 259 594.546 C 260.925 594.928, 263.715 595.862, 265.200 596.620 C 266.686 597.379, 269.256 598, 270.913 598 C 272.570 598, 276.304 598.856, 279.212 599.903 C 282.121 600.950, 287.875 602.040, 292 602.327 C 296.125 602.613, 301.173 603.557, 303.218 604.424 C 309.146 606.937, 333.070 606.685, 335.423 604.085 C 337.016 602.324, 337.142 598.749, 336.972 559.835 C 336.871 536.551, 336.363 515.792, 335.843 513.704 C 334.584 508.647, 330.796 506.454, 321.889 505.626 C 318.016 505.266, 313.643 504.362, 312.173 503.616 C 310.703 502.870, 307.256 501.933, 304.513 501.533 C 301.770 501.133, 298.395 500.229, 297.013 499.524 C 295.631 498.818, 292.925 497.906, 291 497.498 C 286.105 496.458, 269.020 488.367, 266.275 485.789 C 263.173 482.874, 263.413 480.670, 267.315 476.253 C 269.139 474.189, 272.832 469.575, 275.523 466 C 278.214 462.425, 289.921 449.825, 301.539 438 C 313.156 426.175, 324.595 413.800, 326.957 410.500 C 329.320 407.200, 338.548 397.075, 347.463 388 C 356.379 378.925, 366.866 367.450, 370.767 362.500 C 374.669 357.550, 382.433 349, 388.021 343.500 C 393.609 338, 402.493 328.325, 407.763 322 C 413.034 315.675, 424.625 303.075, 433.522 294 C 442.419 284.925, 451.647 274.800, 454.028 271.500 C 456.409 268.200, 463.114 260.545, 468.929 254.489 C 474.743 248.433, 483.021 239.546, 487.325 234.739 C 497.583 223.284, 499.211 223.100, 504.867 232.750 C 507.043 236.463, 509.702 241.750, 510.775 244.500 C 515.238 255.935, 516.888 260.687, 517.546 264 C 517.928 265.925, 518.799 268.625, 519.482 270 C 520.164 271.375, 521.018 275.126, 521.380 278.336 C 521.742 281.546, 522.788 285.596, 523.705 287.336 C 526.243 292.153, 526.144 356.532, 523.589 362.500 C 522.647 364.700, 521.492 369.200, 521.021 372.500 C 520.019 379.532, 518.228 385.113, 510.594 405 C 497.018 440.368, 462.023 476.303, 426 491.865 C 412.570 497.666, 406.738 499.691, 398.499 501.410 C 395.199 502.099, 391.446 503.226, 390.158 503.915 C 388.871 504.604, 384.371 505.412, 380.159 505.709 C 372.202 506.272, 366.788 508.504, 365.549 511.733 C 365.192 512.664, 364.912 533.691, 364.927 558.459 C 364.952 599.817, 365.094 603.595, 366.668 604.747 C 369.276 606.654, 392.531 606.432, 398.124 604.447 C 400.531 603.593, 405.425 602.629, 409 602.305 C 412.575 601.980, 417.654 600.879, 420.287 599.858 C 422.920 598.836, 426.880 598, 429.087 598 C 431.294 598, 434.433 597.310, 436.063 596.467 C 437.694 595.624, 440.934 594.525, 443.264 594.024 C 447.565 593.100, 457.855 589.698, 461.500 587.995 C 462.600 587.481, 467.100 585.668, 471.500 583.967 C 489.914 576.847, 522.010 558.696, 531.568 549.997 C 533.805 547.960, 538.080 544.706, 541.068 542.766 C 547.672 538.476, 575.661 510.253, 579.512 504 C 581.036 501.525, 583.907 497.687, 585.891 495.472 C 587.876 493.256, 591.525 488.159, 594 484.144 C 596.475 480.130, 599.939 474.675, 601.698 472.022 C 606.937 464.121, 616.777 443.972, 620.566 433.387 C 627.286 414.612, 630 406.198, 630 404.140 C 630 403.004, 630.900 399.791, 632 397 C 633.100 394.209, 634 389.709, 634 387 C 634 384.291, 634.979 379.471, 636.175 376.288 C 639.493 367.458, 639.444 286.072, 636.114 276.282 C 634.952 272.861, 634 267.552, 634 264.482 C 634 261.310, 633.306 257.558, 632.392 255.792 C 631.508 254.081, 630.423 250.391, 629.982 247.591 C 629.205 242.660, 627.580 237.364, 623.974 228 C 623.021 225.525, 621.247 220.800, 620.033 217.500 C 613.440 199.578, 593.244 162.582, 584.277 152 C 582.645 150.075, 579.713 146.025, 577.761 143 C 573.534 136.451, 541.333 104.338, 535.213 100.569 C 532.856 99.117, 529.256 96.447, 527.213 94.635 C 525.171 92.823, 521.250 89.829, 518.500 87.982 C 515.750 86.134, 511.925 83.381, 510 81.863 C 501.576 75.222, 447.317 51, 440.864 51 C 439.880 51, 436.791 50.100, 434 49 C 431.209 47.900, 427.128 47, 424.931 47 C 422.734 47, 419.263 46.273, 417.218 45.384 C 415.173 44.495, 409.450 43.396, 404.500 42.942 C 399.550 42.488, 393.531 41.415, 391.124 40.558 C 385.682 38.620, 369.182 38.415, 366.667 40.254 C 364.388 41.921, 363.944 132.022, 366.201 134.744 C 368.211 137.167, 373.479 139, 378.433 139 C 380.906 139, 385.083 139.737, 387.715 140.637 C 390.347 141.537, 394.750 142.855, 397.500 143.566 C 410.836 147.015, 425.875 153.448, 432.750 158.645 C 436.375 161.385, 437.161 165.792, 434.429 168.059 C 433.565 168.776, 428.661 174.568, 423.530 180.931 C 418.400 187.294, 410.066 196.550, 405.010 201.500 C 399.954 206.450, 393.333 213.875, 390.296 218 C 387.259 222.125, 377.693 232.700, 369.038 241.500 C 360.384 250.300, 350.457 261.100, 346.978 265.500 C 343.500 269.900, 332.476 281.825, 322.481 292 C 312.486 302.175, 302.136 313.425, 299.482 317 C 296.828 320.575, 286.501 331.825, 276.534 342 C 266.568 352.175, 254.761 365, 250.298 370.500 C 245.835 376, 236.938 385.675, 230.529 392 C 224.119 398.325, 217.251 405.750, 215.267 408.500 C 203.891 424.268, 200.369 424.003, 192.790 406.811 C 187.216 394.168, 184.368 386.599, 183.454 382 C 183.072 380.075, 182.201 377.375, 181.519 376 C 180.838 374.625, 180.014 371.149, 179.690 368.275 C 179.366 365.402, 178.415 360.902, 177.578 358.275 C 175.123 350.575, 173.469 320.190, 174.845 308.083 C 175.480 302.498, 176.015 295.807, 176.033 293.214 C 176.051 290.621, 176.936 286.025, 178 283 C 179.064 279.975, 179.949 276.008, 179.967 274.184 C 179.985 272.361, 180.446 270.035, 180.991 269.016 C 181.537 267.997, 182.646 264.764, 183.456 261.832 C 189.310 240.643, 202.495 216.021, 215.697 201.628 C 219.164 197.849, 222 194.388, 222 193.937 C 222 192.079, 245.960 171.975, 256.332 165.129 C 272.161 154.682, 289.561 146.807, 304.071 143.523 C 307.135 142.829, 310.646 141.725, 311.872 141.069 C 313.098 140.412, 317.341 139.616, 321.301 139.299 C 337.611 137.994, 337.130 139.669, 336.780 85.378 C 336.511 43.605, 336.421 41.780, 334.559 40.419 C 331.748 38.365, 317.923 38.730, 311 41.041" stroke="none" fill="black" fill-rule="evenodd"/>
</svg>