<svg xmlns="http://www.w3.org/2000/svg" width="316" height="632" viewBox="0 0 316 632" version="1.1">
	
	<path d="M 191 42.115 C 166.241 42.829, 172.170 41.031, 136.500 58.642 C 116.847 68.346, 108.585 72.240, 78.323 86.066 C 69.799 89.960, 61.827 96.694, 59.976 101.563 C 59.401 103.077, 59.002 120.414, 59.004 143.815 C 59.008 188.906, 58.976 188.714, 66.773 191.050 C 70.944 192.300, 71.507 192.136, 88.500 184.745 C 92.350 183.071, 99.775 180.023, 105 177.973 C 110.225 175.923, 119.900 171.884, 126.500 168.997 C 142.640 161.939, 145.850 161.597, 148.500 166.658 C 149.600 168.758, 151.282 170.626, 152.238 170.809 C 154.054 171.157, 169.515 161.501, 172.043 158.440 C 172.844 157.470, 176.425 154.797, 180 152.500 C 183.575 150.203, 187.175 147.503, 188 146.500 C 188.825 145.497, 192.425 142.717, 196 140.323 C 199.575 137.928, 206.100 133.306, 210.500 130.052 C 214.900 126.797, 220.975 122.436, 224 120.360 C 227.025 118.285, 231.880 114.655, 234.789 112.293 C 237.698 109.932, 240.485 108, 240.982 108 C 242.949 108, 254.424 96.263, 256.136 92.500 C 259.139 85.900, 258.809 60.279, 255.633 53.459 C 252.378 46.468, 248.300 43.278, 241.760 42.606 C 232.584 41.663, 213.191 41.475, 191 42.115  M 249.905 129.755 C 252.827 127.791 253.065 127.74 254.6 128.765 C 257.998 131.034 258 131.211 257.978 354.684 C 257.953 602.651 258.681 579.682 246.93 590 L 155.153 590 L 152.154 587.477 C 150.505 586.089 147.996 582.625 144 574.607 L 144 400.341 C 144 231.011 144.054 225.925 145.92 220.788 C 146.975 217.879 148.156 213.925 148.544 212 C 148.932 210.075 150.129 207.255 151.205 205.732 C 153.532 202.44 167.659 190.322 176.541 184 C 185.277 177.781 191.614 173.079 196.42 169.248 C 198.664 167.46 203.425 164.022 207 161.608 C 210.575 159.195 214.353 156.276 215.395 155.121 C 216.437 153.967 219.587 151.58 222.395 149.817 C 225.203 148.053 229.331 144.964 231.568 142.952 C 233.805 140.94 238.263 137.541 241.473 135.397 C 244.683 133.254 248.477 130.715 249.905 129.755 Z" stroke="none" fill="black" fill-rule="evenodd"/>
</svg>