<svg xmlns="http://www.w3.org/2000/svg" width="600" height="640" viewBox="0 0 600 640" version="1.1">
	
	<path d="M 252 41.036 C 248.425 42.042, 242.665 42.896, 239.200 42.933 C 235.655 42.971, 231.618 43.663, 229.968 44.517 C 228.354 45.351, 224.889 46.284, 222.267 46.591 C 219.645 46.898, 215.925 47.784, 214 48.560 C 212.075 49.336, 208.700 50.397, 206.500 50.918 C 193.283 54.046, 167.672 64.881, 151.440 74.211 C 145.423 77.670, 138.925 81.701, 137 83.168 C 135.075 84.635, 131.388 87.335, 128.808 89.168 C 109.525 102.861, 99.178 112.181, 91.249 123 C 88.226 127.125, 84.012 132.313, 81.886 134.528 C 78.041 138.534, 67 157.296, 67 159.824 C 67 163.181, 78.276 172.888, 88.290 178.152 C 93.885 181.094, 100.946 185.101, 103.981 187.059 C 107.017 189.016, 111.975 191.927, 115 193.527 C 118.025 195.128, 122.975 198.078, 126 200.084 C 129.025 202.089, 135.203 205.591, 139.728 207.865 C 152.233 214.150, 157.676 213.390, 163.181 204.590 C 168.589 195.946, 197.266 167.608, 207.410 160.884 C 217.465 154.218, 236.471 144.595, 242.500 143.117 C 244.700 142.578, 248.300 141.451, 250.500 140.612 C 252.700 139.774, 256.435 139.068, 258.800 139.044 C 261.164 139.020, 264.357 138.350, 265.893 137.555 C 267.430 136.761, 271.098 135.791, 274.045 135.400 C 277.622 134.925, 280.166 133.925, 281.701 132.390 L 284 130.091 284 87 L 284 43.909 281.545 41.455 C 279.241 39.150, 278.462 39.006, 268.795 39.103 C 262.143 39.169, 256.200 39.853, 252 41.036  M 311.232 41.432 C 313.109 39.046 313.431 39 328.323 39.013 C 340.648 39.023 344.691 39.399 349.839 41.013 C 353.326 42.106 358.86 43 362.139 43 C 365.572 43 369.373 43.659 371.103 44.553 C 372.756 45.408 376.446 46.346 379.304 46.637 C 382.162 46.929 386.608 48.03 389.185 49.084 C 391.762 50.138 394.679 51 395.666 51 C 396.653 51 399.72 51.883 402.481 52.962 C 405.241 54.041 412.799 56.967 419.275 59.464 C 436.626 66.155 457.247 77.188 463.969 83.376 C 465.361 84.657 468.75 87.201 471.5 89.029 C 478.677 93.8 493.525 108.482 498.27 115.5 C 500.502 118.8 503.718 123.075 505.418 125 C 511.902 132.344 524.019 159.799 525.941 171.5 C 526.392 174.25 527.49 178.242 528.381 180.372 C 530.762 186.067 530.787 239.223 528.411 244.782 C 527.537 246.827 526.444 250.75 525.982 253.5 C 524.206 264.077 511.962 291.144 505.511 298.751 C 503.763 300.813 500.74 304.975 498.794 308 C 494.49 314.69 477.834 331.043 469.169 337.085 C 465.687 339.513 460.062 343.455 456.669 345.844 C 449.905 350.608 409.809 370.785 397.947 375.394 C 390.648 378.23 378.438 382.704 370.5 385.45 C 368.3 386.211 363.35 388.014 359.5 389.457 C 355.65 390.9 350.475 392.687 348 393.428 C 345.525 394.168 342.15 395.27 340.5 395.876 C 335.344 397.771 316.713 404.013 312 405.426 C 309.525 406.167 305.925 407.348 304 408.05 C 302.075 408.751 298.25 410.116 295.5 411.082 C 254.572 425.458 222.818 442.307 207.039 458.02 C 194.842 470.166 184.66 489.896 183.804 503.045 C 183.212 512.136 179.554 519.414 171.012 528.5 C 167.909 531.8 163.529 537.2 161.277 540.5 C 159.025 543.8 154.626 548.975 151.5 552 C 148.374 555.025 143.982 560.2 141.739 563.5 C 139.496 566.8 133.995 573.325 129.514 578 C 125.032 582.675 119.844 588.477 117.985 590.894 C 112.042 598.618 104.507 600.296 83.695 598.529 C 71.582 597.501 66.804 594.518 61.986 584.972 C 59.171 579.396 59.001 578.382 59.016 567.279 C 59.025 560.391 59.639 553.009 60.495 549.5 C 61.301 546.2 62.257 537.2 62.622 529.5 C 63.093 519.539 63.82 514.119 65.142 510.713 C 66.164 508.08 67 503.445 67 500.413 C 67 497.381 67.69 493.567 68.533 491.937 C 69.376 490.306 70.483 487.066 70.993 484.736 C 73.84 471.725 87.946 440.8 96.045 429.813 C 97.945 427.236 100.4 423.788 101.5 422.153 C 112.366 405.998 123.603 393.772 137.5 382.985 C 143 378.717 148.399 374.227 149.498 373.009 C 150.596 371.792 152.843 370.098 154.49 369.247 C 156.137 368.395 159.288 366.392 161.492 364.796 C 182.576 349.531 229.029 328.267 267 316.5 C 274.346 314.223 281.269 311.916 285 310.501 C 286.925 309.77 292.55 307.955 297.5 306.466 C 302.45 304.977 307.852 303.198 309.504 302.513 C 311.156 301.828 314.081 300.951 316.004 300.564 C 324.229 298.91 348.648 290.215 362.419 284.036 C 395.525 269.183 414.109 249.512 418.36 224.825 C 419.652 217.323 419.666 215.361 418.463 210.325 C 417.697 207.121 417.055 203.094 417.036 201.375 C 416.975 196.025 410.66 184 403.055 174.75 C 399.098 169.938 395.554 165.996 395.18 165.991 C 394.806 165.986 391.947 163.849 388.826 161.241 C 379.021 153.048 368.902 147.741 355 143.501 C 352.525 142.746 348.7 141.445 346.5 140.608 C 344.3 139.772 340.34 139.068 337.7 139.044 C 335.061 139.02 331.539 138.296 329.875 137.436 C 328.211 136.575 323.752 135.611 319.966 135.294 C 307.585 134.256 307.651 134.596 308.716 76.682 C 309.273 46.401 309.467 43.676 311.232 41.432 Z M 231.5 502.059 L 526.699 502 L 531.007 504.893 C 538.146 509.688 537.925 508.247 538 588.095 L 528.106 597.99 L 339.803 598.245 C 236.236 598.385 150.375 598.243 149 597.928 C 145.347 597.092 145.432 594.644 149.263 590.319 C 151.124 588.219 155.384 582.9 158.73 578.5 C 162.076 574.1 168.056 567.35 172.019 563.5 C 175.982 559.65 181.733 553.125 184.799 549 C 187.865 544.875 193.363 538.35 197.018 534.5 C 200.673 530.65 204.707 525.7 205.982 523.5 C 209.952 516.654 219.018 508.027 225.5 504.928 Z" stroke="none" fill="black" fill-rule="evenodd"/>
</svg>