<svg xmlns="http://www.w3.org/2000/svg" width="592" height="648" viewBox="0 0 592 648" version="1.1">
	
	<path d="M 248 41.041 C 244.951 42.059, 239.470 42.905, 235.700 42.939 C 231.563 42.976, 227.701 43.620, 225.838 44.584 C 224.153 45.455, 220.238 46.417, 217.137 46.722 C 214.037 47.027, 210.219 47.923, 208.654 48.714 C 207.088 49.504, 203.713 50.538, 201.154 51.011 C 196.319 51.905, 186.802 55.048, 181.349 57.553 C 179.616 58.349, 177.545 59, 176.748 59 C 174.403 59, 143.707 74.580, 138.903 78.209 C 136.481 80.038, 132.239 82.970, 129.476 84.726 C 126.713 86.482, 123.113 89.336, 121.476 91.070 C 119.839 92.804, 114.900 96.971, 110.500 100.330 C 91.473 114.856, 75 134.138, 75 141.883 C 75 145.900, 80.224 151.777, 87.987 156.492 C 91.156 158.417, 94.368 160.742, 95.124 161.658 C 95.881 162.574, 99.425 165.267, 103 167.643 C 106.575 170.018, 112.518 174.107, 116.206 176.731 C 119.895 179.354, 125.520 183.287, 128.706 185.472 C 131.893 187.656, 135.957 190.675, 137.737 192.180 C 141.586 195.434, 147.841 197.317, 151.713 196.388 C 157.265 195.056, 160.716 192.483, 173 180.513 C 189.606 164.333, 207.230 152.633, 225 145.993 C 229.675 144.246, 234.900 142.220, 236.612 141.490 C 238.324 140.761, 241.924 139.865, 244.612 139.499 C 247.300 139.133, 252.089 137.971, 255.254 136.917 C 259.017 135.663, 263.792 135, 269.054 135 C 277.549 135, 282.218 133.481, 283.429 130.323 C 283.799 129.360, 284.090 108.984, 284.076 85.041 C 284.052 45.080, 283.910 41.407, 282.334 40.255 C 279.517 38.195, 254.832 38.760, 248 41.041  M 314.441 40.419 C 317.326 38.31 341.717 38.429 346.782 40.576 C 348.827 41.443 353.875 42.38 358 42.658 C 362.125 42.935 367.608 44.026 370.185 45.081 C 372.762 46.137 376.489 47 378.468 47 C 380.446 47 383.732 47.697 385.77 48.548 C 387.809 49.4 391.057 50.497 392.988 50.986 C 396.365 51.841 403.326 54.373 415 58.991 C 430.435 65.097 443.496 72.557 458.104 83.608 C 480.778 100.761 501.956 131.875 506.018 154 C 506.472 156.475 507.603 160.29 508.531 162.478 C 511.344 169.113 510.982 223.992 508.082 230.549 C 506.937 233.137 506 236.268 506 237.506 C 506 241.946 496.877 260.553 488.241 273.725 C 481.842 283.486 476.519 288.472 462.748 297.606 C 450.733 305.575 447 308.758 447 311.032 C 447 313.075 449.671 315.514 453 316.514 C 457.713 317.928 473.469 326.256 480.485 331.039 C 496.888 342.224 515.847 366.024 523.072 384.5 C 527.516 395.863 530 404.005 530 407.205 C 530 409.251 530.9 413.209 532 416 C 533.783 420.524 534 423.432 534 442.822 C 534 462.006 533.764 465.24 532 470.26 C 530.9 473.389 530 477.724 530 479.892 C 530 482.06 529.172 485.784 528.16 488.167 C 527.148 490.55 526.012 494.075 525.635 496 C 524.693 500.817 513.43 523.436 510.036 527.326 C 508.513 529.072 505.688 532.975 503.758 536 C 500.375 541.302 483.979 558 482.157 558 C 481.667 558 478.169 560.494 474.383 563.543 C 465.069 571.042 437.426 584.619 420.5 590.006 C 413.35 592.282 405.475 594.827 403 595.661 C 400.525 596.495 395.899 597.583 392.719 598.079 C 389.54 598.575 385.625 599.66 384.019 600.49 C 382.413 601.321 378.591 602 375.525 602 C 372.459 602 367.389 602.9 364.26 604 C 357.788 606.275 318.806 607.037 314.934 604.965 C 313.067 603.966 313 602.409 313 560.087 C 313 524.87 313.261 516.028 314.327 515.143 C 316.268 513.532 328.139 511.028 338.694 510.003 C 343.751 509.511 349.151 508.473 350.694 507.695 C 352.237 506.917 355.722 505.99 358.438 505.634 C 366.855 504.531 386.819 495.62 397.294 488.291 C 416.916 474.562 425.232 454.63 421.993 429.093 C 419.47 409.203 409.575 394.832 390.667 383.597 C 378.032 376.089 358.964 368.999 351.407 369 C 349.155 369 344.823 368.143 341.78 367.096 C 336.774 365.374 331.679 365.123 288.373 364.468 C 235.982 363.675 236.848 363.78 228.5 354.841 L 228.214 318.951 C 227.939 284.448 228.007 282.906 229.977 279.045 C 233.541 272.059 232.682 272.214 271 271.645 C 297.007 271.26 307.1 270.757 312 269.602 C 315.575 268.76 321.971 268.054 326.213 268.035 C 331.498 268.011 335.523 267.371 339 266 C 341.791 264.9 345.2 264 346.577 264 C 347.953 264 350.749 263.164 352.79 262.142 C 354.83 261.12 357.695 259.997 359.155 259.647 C 364.148 258.449 374.854 251.504 381.736 245 C 397.011 230.562 400.991 221.922 400.997 203.185 C 401 189.897 400.465 187.755 393.698 174 C 386.455 159.278 361.643 142.109 343.627 139.353 C 341.357 139.006 338.152 138.041 336.505 137.209 C 334.773 136.333 329.581 135.49 324.187 135.208 C 315.933 134.776 314.695 134.464 313.401 132.489 C 312.163 130.6 311.982 123.486 312.219 86.048 C 312.489 43.611 312.578 41.781 314.441 40.419 Z M 128.102 449.039 C 130.521 447.942 133.424 447.034 134.554 447.022 C 136.668 446.999 145.236 451.954 146.433 453.892 C 146.803 454.49 151.244 458.117 156.303 461.952 C 161.361 465.786 166.4 469.621 167.5 470.473 C 178.991 479.375 208.962 495.331 222 499.489 C 226.675 500.98 231.939 502.811 233.697 503.558 C 235.455 504.306 239.28 505.222 242.197 505.595 C 245.114 505.967 248.771 506.915 250.325 507.7 C 251.879 508.486 256.379 509.354 260.325 509.63 C 268.088 510.172 280.629 513.486 282.921 515.603 C 285.211 517.716 285.903 600.974 282.065 606.83 L 264.283 606.334 C 252.098 605.993 245.265 605.371 242.578 604.357 C 240.42 603.544 235.02 602.503 230.578 602.045 C 226.135 601.587 220.7 600.51 218.5 599.65 C 216.3 598.791 212.79 598.068 210.7 598.044 C 208.611 598.02 205.62 597.338 204.055 596.529 C 202.49 595.719 199.25 594.782 196.855 594.446 C 194.46 594.11 190.392 592.972 187.815 591.917 C 185.238 590.863 182.321 590 181.334 590 C 174.346 590 124.53 566.119 112.5 557.003 C 109.75 554.919 106.124 552.378 104.443 551.357 C 102.761 550.336 96.935 545.675 91.496 541 C 59.238 513.273 56.048 506.153 70.61 494.376 C 73.246 492.244 77.9 488.198 80.952 485.385 C 84.003 482.571 88.525 479.01 91 477.47 C 93.475 475.93 98.2 472.105 101.5 468.968 C 104.8 465.832 109.429 462.065 111.787 460.597 C 114.144 459.13 117.79 456.378 119.888 454.482 C 121.987 452.586 125.683 450.137 128.102 449.039 Z" stroke="none" fill="black" fill-rule="evenodd"/>
</svg>