<svg xmlns="http://www.w3.org/2000/svg" width="636" height="632" viewBox="0 0 636 632" version="1.1">
	
	<path d="M 345 43.727 C 340.526 45.426, 334.400 51, 326.908 60.191 C 322.286 65.861, 314.633 74.550, 309.900 79.500 C 305.168 84.450, 299.356 91.200, 296.985 94.500 C 294.614 97.800, 287.864 105.450, 281.985 111.500 C 276.106 117.550, 269.805 124.750, 267.982 127.500 C 266.158 130.250, 259.865 137.450, 253.995 143.500 C 248.126 149.550, 241.123 157.425, 238.432 161 C 235.742 164.575, 228.778 172.450, 222.958 178.500 C 217.137 184.550, 210.530 192.200, 208.275 195.500 C 206.021 198.800, 200.936 204.650, 196.976 208.500 C 193.016 212.350, 187.278 218.875, 184.225 223 C 181.172 227.125, 173.188 236.125, 166.483 243 C 159.778 249.875, 152.800 257.750, 150.976 260.500 C 149.152 263.250, 143.307 270, 137.988 275.500 C 132.668 281, 125.700 288.875, 122.503 293 C 119.306 297.125, 111.659 305.675, 105.510 312 C 99.361 318.325, 92.838 325.750, 91.013 328.500 C 89.189 331.250, 83.793 337.550, 79.022 342.500 C 69.544 352.335, 65.219 358.183, 61.468 366.241 C 59.023 371.493, 59.020 371.546, 59.010 405.283 C 59 438.940, 59.009 439.084, 61.392 443.783 C 64.261 449.441, 65.888 450.964, 72.717 454.386 L 77.934 457 212.321 457 L 346.708 457 349.314 454.585 C 353.109 451.068, 353.105 451.120, 352.789 407.167 L 352.500 366.834 349.234 363.917 L 345.968 361 271.918 361 C 222.786 361, 197.218 360.652, 195.934 359.965 C 191.354 357.513, 193.854 353.156, 208.537 338 C 214.132 332.225, 220.645 324.800, 223.010 321.500 C 225.375 318.200, 233.472 309.200, 241.003 301.500 C 248.534 293.800, 257.317 284.125, 260.519 280 C 263.722 275.875, 271.818 266.875, 278.511 260 C 285.204 253.125, 292.848 244.575, 295.498 241 C 298.147 237.425, 306.692 227.975, 314.485 220 C 322.279 212.025, 330.830 202.575, 333.488 199 C 336.146 195.425, 343.575 187.100, 349.997 180.500 C 356.418 173.900, 363.182 166.250, 365.026 163.500 C 366.871 160.750, 373.598 153.100, 379.975 146.500 C 386.352 139.900, 394.326 130.900, 397.693 126.500 C 401.061 122.100, 407.491 114.900, 411.982 110.500 C 416.474 106.100, 422.784 98.900, 426.006 94.500 C 429.227 90.100, 439.574 78.850, 448.999 69.500 C 463.675 54.941, 469 48.850, 469 46.621 C 469 46.358, 468.293 45.436, 467.429 44.571 C 466.033 43.176, 459.167 43.009, 406.179 43.079 C 373.355 43.122, 345.825 43.414, 345 43.727  M 472.873 77.75 C 482.209 68.163 484.212 68.469 487.594 80 C 489.427 86.252 489.5 91.654 489.5 221.712 C 489.5 350.136 489.59 357.013 491.284 358.712 C 492.91 360.342 496.188 360.544 528.284 361 C 578.169 361.708 574 357.222 574 410.201 C 574 433.144 573.606 449.868 573.041 450.924 C 570.14 456.343 569.295 456.462 529.784 457 C 496.273 457.456 492.913 457.656 491.284 459.285 C 489.625 460.945 489.465 465.139 489 519.285 C 488.504 577.057 488.483 577.532 486.278 581.655 C 481.546 590.504 484.75 590 433.27 590 C 381.234 590 384.285 590.527 377.514 575.5 L 377.171 388 C 376.983 284.875 377.126 197.282 377.49 193.349 C 378.459 182.886 382.457 176.772 400.566 158.064 C 408.853 149.504 418.375 138.9 421.726 134.5 C 425.078 130.1 432.184 122.225 437.518 117 C 442.851 111.775 451.509 102.325 456.757 96 C 462.005 89.675 469.257 81.463 472.873 77.75 Z" stroke="none" fill="black" fill-rule="evenodd"/>
</svg>