<svg xmlns="http://www.w3.org/2000/svg" width="608" height="640" viewBox="0 0 608 640" version="1.1">
	
	<path d="M 124 47.254 C 115.863 52.569, 112.106 59.372, 110.888 71 C 110.456 75.125, 109.412 81.200, 108.567 84.500 C 107.608 88.247, 107.025 95.040, 107.016 102.591 C 107.005 110.947, 106.504 116.199, 105.395 119.591 C 104.367 122.736, 103.506 130.609, 102.998 141.500 C 102.515 151.872, 101.581 160.632, 100.603 163.968 C 99.445 167.917, 99 173.621, 99 184.503 C 99 197.006, 98.660 200.537, 97 205.260 C 95.361 209.924, 95 213.513, 95 225.161 C 95 236.461, 94.579 240.874, 92.943 246.703 C 91.117 253.212, 90.920 256.303, 91.193 274.267 L 91.500 294.500 95.201 300.585 C 98.319 305.711, 100.446 307.698, 108.701 313.198 C 128.058 326.095, 157.238 342.487, 165 344.825 C 166.925 345.404, 170.300 346.561, 172.500 347.396 C 175.957 348.706, 187.977 348.918, 261.035 348.956 C 342.946 348.999, 345.746 349.062, 351.260 351 C 354.389 352.100, 358.357 353, 360.078 353 C 365.197 353, 380.632 358.690, 393.461 365.307 C 408.879 373.259, 424.015 387.054, 429.168 397.852 C 434.593 409.219, 436.977 425.440, 434.582 434.683 C 433.712 438.041, 433 441.976, 433 443.428 C 433 446.796, 428.654 455.446, 424.620 460.103 C 422.904 462.085, 420.267 465.318, 418.760 467.287 C 409.763 479.045, 381.498 492.954, 357.238 497.563 C 353.243 498.322, 349.024 499.452, 347.860 500.075 C 346.697 500.697, 342.090 501.412, 337.623 501.663 C 326.765 502.273, 316.592 504.688, 314.324 507.195 C 311.404 510.421, 311.515 594.441, 314.441 596.581 C 317.388 598.735, 354.596 598.617, 359.782 596.437 C 361.827 595.577, 367.550 594.505, 372.500 594.053 C 377.450 593.601, 383.173 592.505, 385.218 591.616 C 387.263 590.727, 390.509 590, 392.431 590 C 394.353 590, 398.209 589.100, 401 588 C 403.791 586.900, 407.205 586, 408.587 586 C 409.969 586, 412.314 585.379, 413.800 584.620 C 415.285 583.862, 418.075 582.925, 420 582.538 C 430.788 580.372, 456.190 569.004, 474.437 558.177 C 489.816 549.052, 511.982 528.263, 520.588 514.895 C 526.466 505.763, 537.992 481.892, 538.022 478.787 C 538.034 477.529, 538.934 474.538, 540.022 472.141 C 541.110 469.743, 542 465.794, 542 463.366 C 542 460.937, 542.900 456.389, 544 453.260 C 545.763 448.244, 546 445.006, 546 425.941 C 546 406.917, 545.759 403.613, 544 398.500 C 542.900 395.303, 542 390.485, 542 387.794 C 542 385.103, 541.313 381.573, 540.474 379.950 C 539.635 378.327, 538.508 374.637, 537.971 371.749 C 536.635 364.567, 521.903 335.221, 516.394 328.767 C 513.977 325.936, 512 323.222, 512 322.736 C 512 321.226, 500.786 310.008, 495.513 306.243 C 492.756 304.274, 488.925 301.219, 487 299.455 C 482.324 295.168, 465.974 284.929, 456.853 280.576 C 444.411 274.637, 428.214 268, 426.165 268 C 425.095 268, 422.257 267.110, 419.859 266.022 C 417.462 264.934, 414.087 264.034, 412.359 264.022 C 410.632 264.010, 407.257 263.110, 404.859 262.022 C 402.244 260.835, 398.300 260.035, 395 260.021 C 391.975 260.009, 387.133 259.099, 384.239 257.999 C 380.555 256.599, 376.510 255.993, 370.739 255.976 C 365.779 255.962, 359.542 255.166, 355.068 253.976 C 347.998 252.096, 344.181 252, 276.818 252 C 206.038 252, 205.999 251.999, 203.884 249.884 C 202.116 248.116, 201.885 247.088, 202.478 243.634 C 202.869 241.360, 203.538 230.050, 203.964 218.500 C 204.517 203.528, 205.208 196.091, 206.370 192.591 C 207.496 189.199, 208.004 184.101, 208.013 176.091 C 208.023 167.347, 208.514 162.943, 210.013 158.161 C 211.106 154.674, 212 149.923, 212 147.602 C 212 138.741, 203.238 139.565, 303.404 139 L 391.971 138.500 404.573 126 C 411.505 119.125, 419.913 109.900, 423.259 105.500 C 426.605 101.100, 438.856 87.825, 450.482 76 C 462.109 64.175, 472.607 53.081, 473.811 51.346 C 476.386 47.635, 476.636 44.458, 474.418 43.607 C 473.548 43.273, 395.811 43.002, 301.668 43.004 L 130.500 43.009 124 47.254  M 513.3 43 L 529.9 43.015 C 546.747 43.031 548.629 43.325 549.019 46 C 549.481 49.175 548.769 50.29 541.178 58.273 C 536.875 62.798 530.698 69.875 527.45 74 C 524.202 78.125 515.009 88.297 507.022 96.605 C 499.035 104.913 488 116.413 482.5 122.161 C 477 127.909 470.27 134.059 462.588 139.045 L 445.557 138.773 C 424.984 138.443 424.815 138.293 433.704 128.183 C 436.936 124.507 442.338 118.125 445.708 114 C 449.078 109.875 458.438 99.975 466.509 92 C 474.579 84.025 484.609 73.225 488.798 68 C 498.57 55.81 504.523 49.408 509.4 45.848 Z M 121.5 446.458 C 123.15 445.726 125.625 445.4 127 445.733 C 129.169 446.259 140.304 453.397 148 459.195 C 153.701 463.49 162.061 468.499 171 472.976 C 180.67 477.818 207.87 488.964 210.212 489.044 C 210.92 489.068 213.3 489.784 215.5 490.634 C 217.7 491.485 222.2 492.795 225.5 493.545 C 228.8 494.295 233.961 495.605 236.968 496.455 C 239.975 497.305 244.61 498 247.268 498 C 249.925 498 253.511 498.73 255.237 499.622 C 257.122 500.597 261.791 501.419 266.937 501.681 C 285.664 502.634 284 497.784 284 551.429 C 284 589.402 283.784 596.073 282.514 597.343 C 280.486 599.371 247.332 598.507 242 596.287 C 240.075 595.486 234.9 594.601 230.5 594.32 C 226.1 594.039 220.121 592.952 217.212 591.905 C 214.304 590.857 209.741 590 207.072 590 C 204.372 590 200.284 589.122 197.859 588.022 C 195.462 586.934 192.15 586.034 190.5 586.022 C 188.85 586.01 184.8 585.103 181.5 584.007 C 173.699 581.416 158.716 576.29 153 574.258 C 144.136 571.107 107.301 552.073 97 545.322 C 75.502 531.231 60.896 519.397 59.474 514.919 C 57.977 510.2 63.897 502.814 91.354 475.144 C 106.284 460.099 119.85 447.19 121.5 446.458 Z" stroke="none" fill="black" fill-rule="evenodd"/>
</svg>