<svg xmlns="http://www.w3.org/2000/svg" width="616" height="648" viewBox="0 0 616 648" version="1.1">
	
	<path d="M 297 41.041 C 293.790 42.113, 288.460 42.903, 284.200 42.939 C 279.605 42.977, 275.766 43.587, 273.838 44.584 C 272.153 45.455, 268.238 46.417, 265.137 46.722 C 262.037 47.027, 258.358 47.851, 256.962 48.554 C 255.566 49.257, 252.191 50.287, 249.462 50.843 C 246.733 51.399, 241.350 53.049, 237.500 54.510 C 233.650 55.971, 228.475 57.812, 226 58.600 C 223.525 59.388, 220.150 60.655, 218.500 61.415 C 216.850 62.176, 212.350 64.140, 208.500 65.781 C 196.409 70.933, 171.071 86.514, 162.149 94.284 C 159.486 96.603, 154.531 100.482, 151.139 102.904 C 143.997 108.003, 131.326 120.939, 127.436 127.102 C 125.962 129.436, 122.867 133.406, 120.558 135.923 C 118.248 138.440, 114.197 143.875, 111.554 148 C 108.911 152.125, 105.254 157.750, 103.428 160.500 C 99.292 166.726, 93.716 176.776, 90.389 184 C 88.996 187.025, 86.822 191.750, 85.558 194.500 C 84.294 197.250, 82.061 202.650, 80.596 206.500 C 79.132 210.350, 77.480 214.310, 76.927 215.300 C 76.374 216.289, 75.523 218.989, 75.036 221.300 C 74.549 223.610, 73.482 227.525, 72.665 230 C 67.895 244.443, 67 247.954, 67 252.213 C 67 254.805, 66.100 259.209, 65 262 C 63.531 265.726, 63 269.432, 63 275.948 C 63 282.009, 62.370 286.831, 61.013 291.161 C 57.971 300.866, 57.960 366.666, 61 375.500 C 62.158 378.866, 63 383.917, 63 387.499 C 63 394.319, 66.272 402.231, 69.339 402.825 C 71.511 403.246, 82.487 392.719, 88.157 384.779 C 90.545 381.433, 95.370 375.501, 98.878 371.598 C 102.386 367.694, 106.484 362.601, 107.985 360.279 C 109.487 357.957, 113.977 352.480, 117.965 348.106 C 121.952 343.733, 126.695 337.957, 128.504 335.270 C 130.313 332.583, 135.112 326.811, 139.169 322.443 C 143.225 318.074, 148.416 311.972, 150.705 308.882 C 152.993 305.792, 157.934 299.863, 161.683 295.706 C 172.237 284.005, 175.173 278.861, 176.045 270.535 C 176.450 266.666, 177.506 261.827, 178.391 259.782 C 179.276 257.737, 180 254.800, 180 253.255 C 180 251.709, 180.594 249.557, 181.321 248.473 C 182.047 247.388, 183.683 243.575, 184.956 240 C 189.737 226.571, 204.184 199.859, 207.911 197.555 C 208.523 197.177, 210.629 194.357, 212.592 191.289 C 217.456 183.685, 225.206 175.669, 233 170.182 C 236.575 167.665, 240.908 164.406, 242.629 162.940 C 252.594 154.449, 286.084 140.669, 301 138.923 C 304.575 138.504, 309.975 137.419, 313 136.512 C 319.359 134.606, 346.774 134.916, 353 136.965 C 354.925 137.599, 360.881 138.521, 366.235 139.015 C 371.589 139.509, 376.957 140.442, 378.164 141.088 C 379.370 141.733, 382.865 142.839, 385.929 143.544 C 399.048 146.562, 423.414 157.625, 438.500 167.414 C 455.430 178.398, 456.933 179.200, 460.590 179.200 C 466.086 179.200, 473.766 173.254, 485.874 159.625 C 491.718 153.046, 502.837 141.102, 510.583 133.082 C 526.452 116.651, 529 113.564, 529 110.768 C 529 108.135, 516.960 95.755, 509.500 90.718 C 506.200 88.490, 500.125 84.398, 496 81.626 C 479.050 70.233, 439.282 53.149, 423.535 50.497 C 421.354 50.129, 418.338 49.192, 416.834 48.414 C 415.330 47.636, 412.294 47, 410.087 47 C 407.880 47, 403.791 46.100, 401 45 C 397.996 43.816, 393.568 43, 390.145 43 C 386.966 43, 381.020 42.111, 376.932 41.024 C 366.124 38.149, 305.622 38.163, 297 41.041  M 339.5 240.986 C 343.473 239.771 359.967 240.648 367.5 242.474 C 370.8 243.274 378.096 243.945 383.713 243.964 C 391.505 243.992 395.129 244.474 399 246 C 401.791 247.1 405.583 248 407.428 248 C 409.272 248 412.743 248.89 415.141 249.978 C 417.538 251.066 420.542 251.966 421.815 251.978 C 423.088 251.99 426.238 252.838 428.815 253.863 C 431.392 254.888 436.2 256.737 439.5 257.971 C 450.026 261.91 479.39 276.788 483.517 280.273 C 485.708 282.123 489.75 285.129 492.5 286.952 C 509.291 298.084 530.047 324.106 538.989 345.234 C 540.68 349.23 542.889 354.3 543.897 356.5 C 547.067 363.414 549.158 370.282 550.051 376.717 C 550.526 380.137 551.609 384.277 552.457 385.917 C 555.091 391.011 554.72 455.196 552.022 461.141 C 550.934 463.538 550.034 467.138 550.022 469.141 C 550.01 471.143 549.11 474.743 548.022 477.141 C 546.934 479.538 546.034 482.406 546.022 483.514 C 545.992 486.256 533.628 511.412 530.109 515.892 C 528.55 517.876 526.554 520.909 525.673 522.631 C 522.777 528.294 491.581 558.562 482.172 564.838 C 471.369 572.044 459.018 579.132 451.356 582.524 C 436.146 589.256 411.707 598 408.1 598 C 406.986 598 403.791 598.9 401 600 C 398.209 601.1 394.131 602 391.938 602 C 389.745 602 385.5 602.861 382.505 603.914 C 375.379 606.418 337.353 607.368 334.632 605.109 C 332.324 603.194 332.123 518.02 334.421 515.722 C 335.202 514.941 338.574 514.016 341.915 513.667 C 345.255 513.318 349.62 512.35 351.616 511.516 C 353.612 510.682 356.877 509.98 358.872 509.956 C 360.867 509.932 364.3 509.23 366.5 508.395 C 368.7 507.561 372.75 506.263 375.5 505.511 C 394.437 500.332 408.952 491.805 422.639 477.818 C 431.108 469.163 440.975 453.11 441.022 447.91 C 441.034 446.585 441.934 443.538 443.022 441.141 C 445.953 434.681 445.881 412.678 442.898 403.187 C 435.643 380.113 421.866 363.348 401.499 352.809 C 388.452 346.058 376.374 341.008 373.261 341.003 C 372.029 341.002 368.654 340.1 365.761 339.001 C 362.857 337.897 358.036 336.993 355 336.983 C 351.975 336.973 346.35 336.298 342.5 335.483 C 333.774 333.634 328.081 333.638 316 335.5 C 310.775 336.305 303.215 336.972 299.2 336.982 C 294.588 336.993 290.795 337.572 288.897 338.553 C 287.244 339.408 283.554 340.371 280.696 340.693 C 277.838 341.016 274.31 341.879 272.855 342.611 C 271.4 343.344 268.475 344.375 266.355 344.903 C 264.235 345.43 260.7 346.518 258.5 347.32 C 251.523 349.862 246.091 350.401 245.407 348.618 C 244.734 346.863 250.55 337.097 256.097 330.669 C 258.076 328.376 261.264 324.025 263.182 321 C 265.1 317.975 267.491 314.825 268.496 314 C 269.502 313.175 272.212 309.575 274.519 306 C 276.827 302.425 279.743 298.6 281 297.5 C 282.257 296.4 285.249 292.575 287.649 289 C 290.048 285.425 293.471 280.593 295.256 278.262 C 303.479 267.52 305.256 265.087 309.33 259 C 314.267 251.625 320.858 245.259 324.225 244.616 C 328.576 243.785 336.518 241.897 339.5 240.986 Z M 262.5 250.037 C 267.929 247.443 285.291 247.531 285.793 250.154 C 286.114 251.832 278.106 265.199 276 266.5 C 275.369 266.89 272.934 270.199 270.589 273.854 C 268.243 277.51 265.502 281.175 264.496 282 C 263.491 282.825 261.111 285.975 259.206 289 C 257.302 292.025 254.273 296.075 252.475 298 C 250.677 299.925 247.63 303.995 245.704 307.043 C 243.779 310.092 241.409 313.242 240.439 314.043 C 239.47 314.845 236.797 318.425 234.5 322 C 232.203 325.575 229.502 329.175 228.496 330 C 227.491 330.825 225.11 333.975 223.205 337 C 221.299 340.025 218.521 343.85 217.032 345.5 C 215.542 347.15 213.113 350.525 211.635 353 C 210.156 355.475 207.046 359.828 204.723 362.673 C 202.4 365.518 199.262 369.568 197.749 371.673 C 196.236 373.778 193.536 377.403 191.749 379.729 C 180.799 393.984 180 395.474 180.001 401.646 C 180.001 405.078 180.828 409.677 182.001 412.761 C 183.1 415.654 184 419.088 184 420.392 C 184 425.227 195.421 450.455 199.894 455.499 C 200.869 456.6 202.835 459.525 204.262 462 C 214.738 480.173 255.17 505.195 280.5 509.181 C 283.8 509.701 287.85 510.595 289.5 511.168 C 291.15 511.741 294.618 512.668 297.207 513.229 C 299.796 513.789 302.612 515.019 303.465 515.962 C 307.23 520.122 309.206 602.913 305.603 605.548 C 302.691 607.678 273.492 606.477 265.746 603.908 C 262.581 602.859 257.985 602 255.533 602 C 253.081 602 248.791 601.1 246 600 C 243.209 598.9 239.705 597.997 238.213 597.994 C 236.721 597.99 234.293 597.358 232.817 596.588 C 231.342 595.818 228.642 594.887 226.817 594.52 C 218.725 592.888 192.812 581.966 181.259 575.318 C 176.176 572.393 171.666 570 171.237 570 C 170.807 570 168.891 568.719 166.978 567.154 C 165.065 565.588 161.475 563.04 159 561.492 C 147.002 553.986 117.859 524.618 109.736 511.846 C 108.215 509.456 106.039 506.15 104.899 504.5 C 94.581 489.559 79 456.774 79 450.003 C 79 449.021 78.11 446.257 77.022 443.859 C 74.177 437.589 74.393 436.752 80.645 429.788 C 83.75 426.33 87.753 421.25 89.542 418.5 C 91.33 415.75 94.235 412.15 95.998 410.5 C 97.761 408.85 101.277 404.575 103.811 401 C 106.346 397.425 111.075 391.575 114.321 388 C 117.568 384.425 121.608 379.475 123.3 377 C 124.992 374.525 130.627 368 135.822 362.5 C 141.016 357 146.734 350.25 148.528 347.5 C 150.321 344.75 154.565 339.575 157.958 336 C 161.351 332.425 165.621 327.25 167.447 324.5 C 169.273 321.75 174.982 314.963 180.133 309.417 C 185.285 303.871 192.875 295.157 197 290.051 C 206.03 278.876 213.965 271.365 222.868 265.569 C 231.965 259.646 250.281 252.02 255.519 251.974 C 257.159 251.959 260.3 251.088 262.5 250.037 Z" stroke="none" fill="black" fill-rule="evenodd"/>
</svg>