<svg xmlns="http://www.w3.org/2000/svg" width="588" height="632" viewBox="0 0 588 632" version="1.1">
	
	<path d="M 66.403 46.397 L 63 49.800 62.750 77.150 C 62.240 132.930, 62.047 131.344, 69.990 136.750 L 73.296 139 218.977 139 L 364.658 139 370.079 135.231 C 373.255 133.023, 377.571 128.581, 380.500 124.507 C 383.250 120.682, 390.723 112.140, 397.107 105.526 C 403.491 98.912, 410.657 90.800, 413.030 87.500 C 415.404 84.200, 422.832 75.875, 429.537 69 C 441.692 56.537, 446.396 49.793, 445.809 45.673 L 445.500 43.500 257.653 43.247 L 69.805 42.995 66.403 46.397  M 483.77 43 L 513.782 43 L 518.618 46.333 C 522.092 48.727 524.307 51.333 529.5 61.5 L 530.081 124.14 L 527.434 130.82 C 524.878 137.268 519.409 147.134 508.486 165 C 505.627 169.675 501.801 176.2 499.983 179.5 C 498.164 182.8 495.174 187.585 493.338 190.134 C 491.502 192.683 490 195.114 490 195.536 C 490 195.959 487.3 200.514 484 205.66 C 480.7 210.805 478 215.305 478 215.66 C 478 216.014 475.3 220.514 472 225.66 C 468.7 230.805 466 235.346 466 235.749 C 466 236.387 463.755 239.953 457.028 250 C 456.108 251.375 453.653 255.875 451.573 260 C 449.493 264.125 447.193 268.178 446.461 269.007 C 445.729 269.835 442.7 274.785 439.729 280.007 C 433.435 291.069 426.039 303.407 421.45 310.5 C 419.671 313.25 416.33 318.875 414.025 323 C 411.72 327.125 409.245 331.175 408.524 332 C 407.803 332.825 405.307 337.1 402.978 341.5 C 400.649 345.9 396.551 352.92 393.872 357.1 C 391.192 361.28 389 364.977 389 365.316 C 389 365.838 383.238 375.288 373.95 390 C 372.734 391.925 369.386 397.55 366.508 402.5 C 358.528 416.229 351.283 428.223 349.295 431 C 346.509 434.89 335.135 453.783 331.234 461 C 329.301 464.575 326.721 468.85 325.5 470.5 C 324.279 472.15 321.146 477.325 318.539 482 C 311.741 494.185 304.084 506.807 288.5 531.512 C 286.3 535 282.475 541.304 280 545.522 C 277.525 549.74 274.375 555.107 273 557.45 C 263.398 573.811 254.696 586.5 251.77 588.407 C 247.184 591.396 236.63 591.985 188.5 591.936 C 136.695 591.883 134.786 591.707 132.034 586.722 C 130.552 584.037 130.685 583.585 136 573.257 C 139.025 567.379 142.431 561.429 143.569 560.035 C 144.708 558.641 147.269 554.575 149.262 551 C 151.255 547.425 154.373 542.173 156.192 539.329 C 160.794 532.133 162.696 529.022 169 518.374 C 172.025 513.265 176.716 505.353 179.424 500.792 C 185.2 491.065 200.243 466.615 212.521 447 C 213.725 445.075 216.84 439.9 219.441 435.5 C 222.043 431.1 225.924 424.8 228.066 421.5 C 230.209 418.2 233.162 413.475 234.63 411 C 255.993 374.977 265.777 358.63 268.446 354.5 C 272.173 348.732 279.734 336.191 284.725 327.5 C 286.62 324.2 289.848 319.025 291.9 316 C 293.951 312.975 295.887 309.807 296.203 308.959 C 296.733 307.537 307.232 290.441 311.839 283.5 C 312.934 281.85 315.74 277.125 318.075 273 C 320.409 268.875 323.71 263.397 325.409 260.826 C 327.109 258.255 331.2 251.591 334.5 246.018 C 337.8 240.444 341.491 234.447 342.702 232.692 C 343.913 230.936 346.778 226.35 349.067 222.5 C 351.357 218.65 354.866 212.937 356.865 209.804 C 358.864 206.671 363.2 199.569 366.5 194.021 C 373.078 182.962 380.954 169.878 388.483 157.5 C 391.16 153.1 394.463 147.475 395.825 145 C 397.186 142.525 399.966 138.7 402.003 136.5 C 404.04 134.3 408.429 128.9 411.756 124.5 C 415.084 120.1 420.368 114.025 423.5 111 C 426.632 107.975 431.945 101.9 435.308 97.5 C 438.671 93.1 445.754 85 451.048 79.5 C 456.341 74 462.299 67.013 464.286 63.973 C 466.273 60.932 471.47 54.97 475.835 50.723 Z" stroke="none" fill="black" fill-rule="evenodd"/>
</svg>