<svg xmlns="http://www.w3.org/2000/svg" width="608" height="648" viewBox="0 0 608 648" version="1.1">
	
	<path d="M 257 41.041 C 253.651 42.160, 248.450 42.902, 243.700 42.939 C 238.709 42.978, 234.818 43.560, 232.894 44.555 C 231.240 45.410, 226.650 46.491, 222.693 46.956 C 218.737 47.421, 213.827 48.521, 211.782 49.401 C 209.737 50.280, 206.902 51, 205.482 51 C 204.062 51, 201.620 51.662, 200.055 52.471 C 198.490 53.281, 195.475 54.388, 193.355 54.932 C 162.800 62.774, 119.008 91.630, 105.231 113 C 103.281 116.025, 100.518 119.880, 99.092 121.566 C 93.931 127.670, 83 151.956, 83 157.319 C 83 158.848, 82.246 161.539, 81.324 163.300 C 80.402 165.060, 79.311 170.325, 78.901 175 C 78.491 179.675, 77.691 186.425, 77.123 190 C 76.442 194.296, 76.419 198.534, 77.057 202.500 C 77.587 205.800, 78.270 212.775, 78.574 218 C 78.878 223.225, 79.780 229.075, 80.578 231 C 81.375 232.925, 82.655 236.750, 83.421 239.500 C 86.475 250.463, 91.556 262.082, 95.295 266.654 C 96.575 268.219, 98.800 271.549, 100.238 274.054 C 103.164 279.147, 115.770 291.567, 122.015 295.509 C 124.256 296.924, 128.129 299.638, 130.622 301.541 C 133.114 303.443, 135.691 305, 136.349 305 C 137.006 305, 139.246 306.403, 141.326 308.117 C 147.524 313.226, 146.634 314.396, 130 323 C 115.626 330.435, 115.368 330.629, 100.294 345.365 C 91.931 353.541, 83.492 362.766, 81.541 365.865 C 76.152 374.426, 68.186 391.206, 67.001 396.494 C 66.421 399.085, 65.340 402.396, 64.600 403.852 C 60.493 411.933, 60.899 469.370, 65.140 480.287 C 66.163 482.920, 67 486.100, 67 487.354 C 67 492.462, 80.675 519.830, 86.830 527.040 C 88.493 528.987, 91.500 533.037, 93.514 536.040 C 99.192 544.508, 104.849 549.453, 125.322 563.843 C 136.941 572.010, 170.604 587.632, 181.736 590.024 C 184.066 590.525, 187.306 591.624, 188.937 592.467 C 190.567 593.310, 193.256 594, 194.913 594 C 196.570 594, 200.209 594.900, 203 596 C 205.791 597.100, 209.970 598.020, 212.287 598.044 C 214.604 598.068, 218.300 598.796, 220.500 599.661 C 222.700 600.526, 228.351 601.566, 233.057 601.972 C 237.763 602.379, 243.838 603.415, 246.557 604.275 C 254.182 606.688, 287.371 607.335, 290.076 605.124 C 292.003 603.550, 292.064 602.179, 292.084 560.166 C 292.100 528.415, 291.791 516.453, 290.930 515.416 C 290.261 514.610, 287.963 514, 285.595 514 C 283.308 514, 278.975 513.306, 275.968 512.457 C 272.961 511.609, 266.560 510.499, 261.745 509.990 C 256.929 509.481, 252.097 508.587, 251.007 508.004 C 249.917 507.420, 245.757 506.338, 241.762 505.598 C 223.055 502.134, 203.793 491.982, 190.494 478.578 C 180.596 468.601, 177.484 463.326, 174.090 450.771 C 165.849 420.294, 186.632 387.535, 222 375.256 C 225.025 374.205, 229.750 372.550, 232.500 371.577 C 235.250 370.604, 239.975 369.446, 243 369.003 C 246.025 368.560, 250.173 367.479, 252.218 366.599 C 254.554 365.594, 258.828 364.995, 263.718 364.988 C 272.005 364.974, 288.251 361.178, 290.761 358.668 C 292.939 356.490, 292.672 279.674, 290.474 276.321 C 288.430 273.201, 285.127 272, 278.591 272 C 275.688 272, 270.697 271.100, 267.500 270 C 264.303 268.900, 259.299 268, 256.380 268 C 253.432 268, 248.819 267.111, 246 266 C 243.209 264.900, 240.155 263.998, 239.213 263.997 C 232.761 263.984, 209.481 251.518, 201.283 243.685 C 188.530 231.502, 179.861 203.904, 185.414 193.166 C 186.192 191.662, 187.154 188.646, 187.551 186.465 C 189.915 173.499, 207.050 155.080, 225 146.209 C 236.678 140.438, 252.543 135, 257.699 135 C 259.550 135, 262.737 134.284, 264.782 133.409 C 266.828 132.533, 273.095 131.518, 278.721 131.151 C 285.946 130.681, 289.400 130.029, 290.503 128.926 C 293.007 126.422, 292.856 42.099, 290.344 40.263 C 287.531 38.205, 263.837 38.759, 257 41.041  M 321.235 41.429 C 323.106 39.05 323.456 39 338.105 39 C 349.56 39 353.935 39.373 356.782 40.591 C 358.827 41.467 365 42.538 370.5 42.971 C 376 43.405 382.3 44.469 384.5 45.336 C 386.7 46.203 390.21 46.932 392.3 46.956 C 394.389 46.98 397.332 47.637 398.838 48.416 C 400.344 49.195 403.809 50.285 406.538 50.837 C 426.412 54.863 465.432 73.993 479.027 86.377 C 481.517 88.644 486.354 92.637 489.777 95.249 C 493.2 97.862 498.138 102.778 500.751 106.175 C 503.363 109.571 507.214 114.354 509.308 116.803 C 513.479 121.68 526 146.354 526 149.696 C 526 150.843 526.89 153.743 527.978 156.141 C 529.067 158.54 529.977 162.748 530.002 165.5 C 530.027 168.25 530.936 173.845 532.024 177.932 C 534.791 188.34 534.78 206.298 532 215 C 530.9 218.443 530 223.628 530 226.521 C 530 229.626 529.19 233.568 528.022 236.141 C 526.934 238.538 526.034 241.36 526.022 242.411 C 525.977 246.351 513.02 270.577 507.253 277.503 C 496.954 289.872 483.697 301.608 475.213 305.866 C 463.625 311.682 463.994 313.477 478.25 320.623 C 495.193 329.117 499.442 332.14 512.297 344.843 C 530.681 363.01 543.561 386.227 545.947 405.5 C 546.356 408.8 547.435 412.94 548.345 414.7 C 550.726 419.305 550.82 466.513 548.457 471.083 C 547.609 472.723 546.526 476.863 546.051 480.283 C 543.539 498.371 533.057 518.605 513.989 542.172 C 510.367 546.649 493.172 560.597 484.609 566.005 C 471.981 573.981 442.799 587.244 431.645 590.078 C 429.525 590.617 426.51 591.719 424.945 592.529 C 423.38 593.338 420.938 594 419.518 594 C 418.098 594 415.263 594.716 413.218 595.592 C 411.173 596.467 406.464 597.58 402.754 598.064 C 399.044 598.548 394.679 599.632 393.054 600.472 C 391.429 601.312 387.649 602 384.655 602 C 381.661 602 376.351 602.856 372.855 603.901 C 366.398 605.833 325.631 607.673 323.278 606.139 C 320.256 604.167 320 600.55 320 559.788 C 320 511.238 319.241 514.611 330.385 513.669 C 334.501 513.321 339.585 512.391 341.684 511.602 C 343.783 510.813 348.946 509.942 353.159 509.667 C 357.371 509.393 361.783 508.651 362.963 508.02 C 364.143 507.388 367.897 506.434 371.304 505.899 C 396.67 501.917 427.085 480.663 434.567 461.69 C 437.302 454.753 437.401 453.884 437.363 419.5 L 433.526 411.5 C 427.246 398.408 416.323 388.409 398.844 379.75 C 391.35 376.037 384.511 373 383.646 373 C 382.781 373 379.791 372.1 377 371 C 374.209 369.9 370.384 369 368.5 369 C 366.616 369 362.791 368.1 360 367 C 356.268 365.529 352.568 365 346.012 365 C 331.716 365 321.743 362.19 320.115 357.702 C 319.676 356.491 319.583 337.572 320.5 275.821 L 322.861 273.91 C 324.782 272.356 326.849 272 333.954 272 C 340.083 272 344.421 271.404 348.5 270 C 351.697 268.9 356.605 267.99 359.407 267.978 C 362.301 267.966 366.382 267.102 368.859 265.978 C 371.257 264.89 374.024 264 375.01 264 C 377.726 264 392.608 256.888 400.542 251.798 C 409.494 246.054 414.298 240.563 425 220.258 L 425 203.589 C 425 184.96 425.185 185.645 416.236 171.182 C 411.565 163.632 406.598 159.461 390.823 149.841 C 384.756 146.142 372.011 140.689 366.5 139.435 C 364.85 139.06 360.927 137.909 357.782 136.876 C 354.636 135.844 350.361 134.985 348.282 134.967 C 346.202 134.949 342.025 134.064 339 133 C 335.975 131.936 331.207 131.051 328.405 131.033 C 320.145 130.98 319.702 130.011 318.885 110.185 C 317.687 81.12 318.944 44.341 321.235 41.429 Z" stroke="none" fill="black" fill-rule="evenodd"/>
</svg>