<svg xmlns="http://www.w3.org/2000/svg" width="628" height="644" viewBox="0 0 628 644" version="1.1">
	
	<path d="M 249.500 41.045 C 246.750 42.075, 241.967 42.936, 238.872 42.958 C 235.777 42.981, 231.502 43.733, 229.372 44.629 C 227.242 45.525, 223.025 46.612, 220 47.044 C 214.510 47.828, 212.024 48.542, 196 53.938 C 170.329 62.582, 147.878 73.876, 136.493 83.872 C 134.489 85.632, 130.970 88.261, 128.674 89.716 C 122.188 93.823, 101.378 114.731, 96.177 122.365 C 84.384 139.676, 79.283 149.409, 73.167 166.266 C 72.017 169.437, 70.158 174.395, 69.038 177.285 C 67.917 180.174, 66.990 184.780, 66.978 187.519 C 66.966 190.301, 66.083 194.425, 64.978 196.859 C 61.954 203.525, 61.971 254.314, 65 262 C 66.100 264.791, 67 269.033, 67 271.428 C 67 273.822, 67.890 277.743, 68.978 280.141 C 70.066 282.538, 70.966 285.381, 70.978 286.459 C 71.003 288.673, 83.477 313.874, 88.323 321.500 C 92.373 327.874, 126.994 362.471, 133.545 366.692 C 148.321 376.210, 186.317 392.981, 193.141 392.996 C 194.043 392.998, 196.743 393.890, 199.141 394.978 C 201.538 396.066, 205.171 396.966, 207.213 396.978 C 209.255 396.990, 213.209 397.900, 216 399 C 219.434 400.353, 223.432 401, 228.369 401 C 232.931 401, 238.108 401.768, 242.191 403.049 C 248.186 404.931, 250.812 405.073, 274.373 404.799 L 300.028 404.500 305.764 398.105 C 308.919 394.587, 312.182 390.433, 313.016 388.874 C 314.392 386.299, 317.394 382.192, 327.542 369 C 329.446 366.525, 332.983 361.575, 335.402 358 C 337.820 354.425, 340.978 350.401, 342.419 349.058 C 343.860 347.714, 346.467 344.339, 348.214 341.558 C 349.960 338.776, 353.070 334.632, 355.124 332.349 C 357.178 330.067, 359.742 326.467, 360.823 324.349 C 361.903 322.232, 363.799 319.600, 365.036 318.500 C 366.273 317.400, 369.237 313.575, 371.622 310 C 374.007 306.425, 376.693 302.494, 377.592 301.264 C 379.633 298.470, 378.781 295.997, 375.781 296.009 C 374.527 296.014, 369 297.624, 363.500 299.587 C 358 301.551, 351.088 303.586, 348.140 304.110 C 345.192 304.634, 341.502 305.723, 339.940 306.531 C 338.268 307.396, 334.302 308.005, 330.300 308.012 C 326.560 308.018, 319.900 308.913, 315.500 310 C 305.066 312.578, 281.923 312.835, 276.218 310.437 C 274.173 309.577, 268.450 308.505, 263.500 308.053 C 258.550 307.601, 252.827 306.505, 250.782 305.616 C 248.737 304.727, 246.046 304, 244.801 304 C 237.248 304, 206.930 288.562, 197.699 280.015 C 175.116 259.106, 167.605 225.229, 179.140 196.309 C 184.403 183.117, 198.001 165.268, 206.062 160.973 C 207.403 160.258, 210.750 157.995, 213.500 155.944 C 221.796 149.757, 240.691 141.043, 250.070 139.079 C 252.506 138.569, 256.300 137.463, 258.500 136.620 C 260.885 135.706, 265.857 135.070, 270.816 135.044 C 279.137 135, 282.434 134.061, 284.718 131.087 C 286.167 129.200, 286.468 53.376, 285.056 46.059 C 283.781 39.454, 282.608 38.987, 267.559 39.087 C 257.407 39.155, 253.387 39.590, 249.500 41.045  M 313.872 40.653 C 315.826 38.301 340.281 38.243 345.782 40.578 C 347.827 41.445 354 42.514 359.5 42.952 C 365 43.39 371.173 44.48 373.218 45.374 C 375.263 46.268 378.553 47 380.53 47 C 382.508 47 386.91 47.887 390.313 48.971 C 393.716 50.055 400.1 52.053 404.5 53.41 C 438.758 63.979 465.732 80.795 494.232 109.349 C 515.252 130.409 528.259 149.435 538.027 173.413 C 540.287 178.961 542.756 184.85 543.514 186.5 C 544.271 188.15 545.995 192.761 549.797 203.991 L 547.148 209.158 C 545.692 212 541.977 217.115 538.893 220.525 C 535.808 223.935 531.793 228.925 529.969 231.613 C 528.145 234.301 523.808 239.543 520.332 243.262 C 516.856 246.982 512.78 251.932 511.274 254.262 C 509.768 256.593 505.219 262.1 501.165 266.5 C 497.11 270.9 492.409 276.525 490.718 279 C 489.027 281.475 483.869 287.492 479.256 292.37 C 474.644 297.249 469.671 303.099 468.206 305.37 C 466.741 307.642 462.888 312.425 459.644 316 C 456.4 319.575 452.577 324.3 451.149 326.5 C 446.652 333.427 433.271 347.929 416.026 364.566 C 401.27 378.8 398.411 381.097 390.936 384.721 C 379.054 390.48 373.164 393 371.582 393 C 370.832 393 368.257 393.89 365.859 394.978 C 363.462 396.066 360.32 396.966 358.877 396.978 C 357.435 396.99 354.165 397.924 351.611 399.054 C 345.951 401.557 338.275 401.409 336.616 398.763 C 335.193 396.494 338.672 389.904 345.337 382.244 C 347.997 379.187 351.314 374.878 352.709 372.67 C 354.103 370.461 357.151 366.594 359.483 364.077 C 361.814 361.56 364.961 357.475 366.476 355 C 367.991 352.525 370.926 348.7 373 346.5 C 375.074 344.3 378 340.475 379.503 338 C 381.007 335.525 383.48 332.15 385 330.5 C 386.52 328.85 388.994 325.475 390.498 323 C 392.002 320.525 394.709 316.925 396.514 315 C 398.318 313.075 401.362 309.025 403.277 306 C 405.193 302.975 407.709 299.647 408.869 298.605 C 410.028 297.563 412.426 294.413 414.196 291.605 C 415.966 288.797 419.121 284.524 421.207 282.109 C 423.293 279.694 425 277.17 425 276.5 C 425 275.83 426.725 273.306 428.834 270.891 C 434.458 264.45 439.74 255.736 445.038 241.661 L 443.019 235.826 C 441.909 232.617 441 229.132 441 228.081 C 441 227.031 439.627 222.645 437.948 218.335 C 423.347 180.849 395.652 155.12 355.743 141.969 C 350.789 140.336 345.422 139 343.818 139 C 342.213 139 339.504 138.278 337.797 137.395 C 336.027 136.48 331.213 135.594 326.596 135.335 C 314.644 134.663 314.229 134.508 312.981 130.24 C 311.257 124.345 312.068 42.825 313.872 40.653 Z M 550.327 242.942 C 555.623 239.713 556.288 240.129 559.825 248.883 C 561.235 252.373 562 256.42 562 260.387 C 562 263.752 562.9 269.654 564 273.5 C 567.04 284.129 567.03 355.133 563.987 364.839 C 562.838 368.505 562 373.987 561.999 377.839 C 561.999 382.078 561.272 386.413 559.999 389.761 C 558.9 392.654 558 396.542 558 398.402 C 558 400.261 557.11 403.743 556.022 406.141 C 554.934 408.538 554.034 411.95 554.022 413.723 C 554.01 415.496 553.15 418.871 552.11 421.223 C 551.071 423.575 549.77 427.3 549.22 429.5 C 546.189 441.618 533.158 470.269 522.773 487.651 C 520.423 491.584 517.191 496.984 515.59 499.651 C 513.99 502.318 511.23 506.075 509.457 508 C 507.684 509.925 504.991 513.525 503.474 516 C 499.559 522.386 481.869 540.248 473 546.771 C 468.875 549.804 463.925 553.758 462 555.557 C 460.075 557.355 456.4 560.103 453.834 561.664 C 451.267 563.224 445.867 566.535 441.834 569.023 C 429.807 576.44 405.247 587.442 394.935 590.032 C 392.973 590.524 390.048 591.616 388.435 592.457 C 386.821 593.299 384.375 594 383 594.016 C 381.625 594.031 378.538 594.934 376.141 596.022 C 373.743 597.11 370.244 598 368.366 598 C 366.487 598 362.389 598.9 359.26 600 C 356.13 601.1 351.498 602 348.967 602 C 346.436 602 341.02 602.889 336.932 603.976 C 326.726 606.69 252.194 607.057 244.876 604.429 C 242.469 603.564 237.125 602.624 233 602.338 C 228.875 602.053 222.911 600.96 219.746 599.91 C 216.581 598.859 211.946 598 209.446 598 C 206.946 598 203.62 597.338 202.055 596.529 C 200.49 595.719 197.25 594.777 194.855 594.435 C 192.46 594.093 188.25 593.014 185.5 592.036 C 182.75 591.058 177.35 589.252 173.5 588.022 C 156.177 582.49 140.222 575.141 125.35 565.845 C 109.04 555.649 106.3 553.794 99.216 548.148 C 83.943 535.978 83.988 534.766 100.333 518.086 C 107.116 511.164 115.384 502.125 118.705 498 C 134.061 478.93 148.327 465.976 153.921 466.021 C 155.386 466.032 160.555 468.732 165.888 472.271 C 191.162 489.041 207.419 496.946 226 501.501 C 229.025 502.242 233.3 503.538 235.5 504.38 C 237.7 505.223 241.202 505.932 243.282 505.956 C 245.362 505.98 248.737 506.709 250.782 507.575 C 261.601 512.159 319.887 512.212 328.716 507.647 C 330.468 506.741 333.161 505.98 334.7 505.956 C 336.24 505.932 339.3 505.228 341.5 504.392 C 343.7 503.555 347.634 502.267 350.243 501.528 C 356.813 499.667 377.754 489.497 382 486.105 C 383.925 484.567 387.033 482.516 388.907 481.547 C 390.781 480.579 394.381 477.882 396.907 475.555 C 399.433 473.229 404.06 469.458 407.189 467.176 C 410.317 464.895 414.114 461.334 415.625 459.264 C 417.136 457.194 419.894 453.475 421.754 451 C 423.614 448.525 426.519 443.575 428.211 440 C 429.902 436.425 432.154 432.261 433.214 430.746 C 436.513 426.033 444.182 406.774 445.066 400.981 C 445.53 397.946 446.604 393.798 447.454 391.763 C 448.39 389.523 449 385.054 449 380.433 C 449 369.933 453.427 359.642 462.242 349.65 C 465.711 345.717 469.723 340.7 471.158 338.5 C 472.593 336.3 476.192 331.8 479.154 328.5 C 482.117 325.2 485.754 320.62 487.236 318.323 C 488.719 316.026 492.568 311.301 495.79 307.823 C 499.012 304.345 503.117 299.337 504.911 296.694 C 506.705 294.051 510.755 289.101 513.911 285.694 C 517.067 282.287 521.136 277.309 522.954 274.631 C 524.772 271.953 529.05 266.778 532.459 263.131 C 535.869 259.484 540.57 253.885 542.906 250.688 C 545.243 247.492 548.582 244.006 550.327 242.942 Z" stroke="none" fill="black" fill-rule="evenodd"/>
</svg>