<svg xmlns="http://www.w3.org/2000/svg" width="716" height="572" viewBox="0 0 716 572" version="1.1">
	
	<path d="M 309.375 41.958 C 302.989 45.621, 305.198 41.739, 271.504 108.500 C 236.562 177.735, 220.531 209.118, 211.993 225 C 208.297 231.875, 188.054 271.700, 167.009 313.500 C 133.261 380.528, 116.242 413.902, 89.496 465.500 C 72.230 498.808, 59 526.043, 59 528.279 C 59 534.085, 58.234 534, 110.484 534 L 158.310 534 162.187 529.924 C 164.554 527.436, 169.217 519.548, 174.159 509.674 C 178.611 500.778, 188.192 482.250, 195.450 468.500 C 202.707 454.750, 224.969 410.875, 244.920 371 C 264.870 331.125, 285.258 290.625, 290.225 281 C 303.971 254.365, 313.715 235.597, 319.821 224 C 328.403 207.699, 341.184 181.668, 352.716 157 C 358.502 144.625, 372.635 115.659, 384.125 92.632 C 406.127 48.533, 407.638 44.638, 404.110 41.110 C 402.027 39.027, 401.434 39, 358.250 39.009 L 314.500 39.019 309.375 41.958  M 420.678 75.75 C 423.432 71.35 426.567 70.831 429.739 74.25 C 430.887 75.487 446.933 106.875 465.395 144 C 483.858 181.125 504.709 222.544 511.732 236.042 C 518.754 249.54 526.943 265.74 529.929 272.042 C 536.851 286.652 553.677 319.666 560.486 332 C 563.371 337.225 582.14 374.125 602.195 414 C 622.25 453.875 641.079 490.775 644.037 496 C 651.522 509.22 657.989 523.899 657.995 527.679 C 658.005 534.244 660.029 534 556.389 534 L 552.944 531.462 C 551.05 530.066 547.988 527.028 546.139 524.712 C 541.774 519.241 447.349 330.145 399.974 232 C 391.346 214.125 381.747 194.445 378.643 188.267 C 375.063 181.139 373 175.778 373 173.6 C 373 170.43 413.71 86.881 420.678 75.75 Z M 311 325.96 C 325.256 324.709 326.677 324.818 329.672 327.394 C 335.28 332.218 336.461 329.441 285.162 432 C 259.164 483.975 236.858 527.687 235.592 529.137 C 231.629 533.677 230.072 534 212.137 534 C 194.95 534 192 533.395 192 529.871 C 192 527.567 286.934 338.711 290.872 333.18 C 293.549 329.421 300.671 326.866 311 325.96 Z" stroke="none" fill="black" fill-rule="evenodd"/>
</svg>