<svg xmlns="http://www.w3.org/2000/svg" width="632" height="572" viewBox="0 0 632 572" version="1.1">
	
	<path d="M 83.475 41.832 C 75.146 44.995, 71.246 47.639, 66.994 53.007 C 61.511 59.931, 60.871 68.207, 60.305 139.585 L 59.812 201.670 62.319 204.585 L 64.826 207.500 110.865 207.779 L 156.904 208.058 160.202 205.112 L 163.500 202.167 164 169.940 L 164.500 137.713 167 135.853 C 169.397 134.071, 173.708 133.992, 272 133.930 C 391.365 133.855, 392.562 133.914, 406.966 140.634 C 423.762 148.470, 431.734 158.837, 433.777 175.500 C 435.706 191.224, 430.995 206.733, 421.364 216.364 C 416.695 221.033, 405.523 227.020, 399.717 227.965 C 396.655 228.463, 392.789 229.575, 391.125 230.435 C 388.417 231.836, 371.308 232, 228.115 232 C 128.666 232, 67.178 232.362, 65.613 232.957 C 59.605 235.241, 59.906 227.364, 60.261 372.761 C 60.617 519.011, 60.296 511.756, 66.834 521.259 C 69.359 524.929, 71.705 526.729, 78.195 529.978 L 86.374 534.071 254.437 533.719 C 407.473 533.398, 423.171 533.216, 430 531.685 C 434.125 530.759, 440.746 530.002, 444.713 530.001 C 449.566 530, 453.586 529.346, 457 528 C 459.791 526.900, 463.583 526, 465.428 526 C 467.272 526, 470.743 525.110, 473.141 524.022 C 475.538 522.934, 478.596 522.034, 479.936 522.022 C 481.275 522.010, 489.600 518.437, 498.436 514.083 C 522.160 502.391, 537.305 489.203, 551.212 468.126 C 558.221 457.504, 566 439.924, 566 434.709 C 566 433.260, 566.900 429.791, 568 427 C 569.162 424.051, 570.007 419.533, 570.016 416.213 C 570.024 413.071, 570.683 407.800, 571.480 404.500 C 573.322 396.870, 573.330 386.321, 571.500 378 C 570.714 374.425, 570.054 368.929, 570.035 365.787 C 570.015 362.511, 569.147 357.909, 568 355 C 566.900 352.209, 566 349.190, 566 348.291 C 566 343.817, 553.697 318.583, 549.036 313.500 C 547.523 311.850, 544.356 307.897, 541.997 304.716 C 537.118 298.136, 522.816 286.113, 510.217 278 C 498.488 270.448, 498.394 270.208, 504.652 263.768 C 514.197 253.945, 529.957 227.733, 530.022 221.573 C 530.034 220.433, 530.934 217.538, 532.022 215.141 C 533.294 212.337, 534.006 208.591, 534.017 204.641 C 534.027 201.263, 534.919 195.125, 536 191 C 538.669 180.819, 538.669 166.831, 536 157.500 C 534.900 153.654, 534 148.345, 534 145.704 C 534 143.062, 533.337 139.619, 532.527 138.052 C 531.717 136.486, 530.570 133.021, 529.979 130.352 C 528.456 123.482, 516.673 100.454, 512.188 95.586 C 510.119 93.339, 507.317 89.994, 505.963 88.154 C 502.526 83.483, 485.341 68.827, 476.895 63.363 C 465.568 56.036, 448.302 48.697, 438.140 46.891 C 435.192 46.367, 431.502 45.277, 429.940 44.469 C 428.302 43.622, 424.365 43, 420.639 43 C 416.986 43, 411.424 42.137, 407.839 41.013 C 401.623 39.065, 398.472 39.027, 246 39.095 L 90.500 39.165 83.475 41.832  M 215.354 326.976 C 326.911 325.737 391.405 325.92 399.662 327.5 C 403.973 328.325 409.809 329 412.631 329 C 425.261 329 449.979 342.227 456.529 352.489 C 466.713 368.448 469.272 380.94 465.85 398 C 463.866 407.896 462.211 410.813 453.674 419.466 C 446.467 426.771 440.708 430.376 430.056 434.252 C 422.49 437.005 368.332 438.078 168.826 437.5 L 164 431.888 L 164 381.599 C 164 331.752 164.018 331.293 166.104 329.405 C 168.092 327.605 170.803 327.471 215.354 326.976 Z" stroke="none" fill="black" fill-rule="evenodd"/>
</svg>