<svg xmlns="http://www.w3.org/2000/svg" width="600" height="592" viewBox="0 0 600 592" version="1.1">
	
	<path d="M 288 41.041 C 284.975 42.051, 279.704 42.905, 276.287 42.939 C 272.566 42.975, 268.039 43.802, 265 45 C 262.209 46.100, 258.345 47, 256.413 47 C 254.481 47, 251.567 47.690, 249.937 48.533 C 248.306 49.376, 245.066 50.473, 242.736 50.970 C 229.834 53.725, 200.135 66.463, 186.423 75.123 C 183.046 77.255, 179.948 79, 179.538 79 C 178.783 79, 170.448 84.823, 162.729 90.744 C 160.403 92.529, 155.575 95.941, 152 98.328 C 143.882 103.747, 112.799 134.735, 109.282 140.915 C 107.847 143.437, 105.678 146.625, 104.462 148 C 98.754 154.453, 81.208 186.114, 77.477 196.694 C 74.639 204.740, 75.783 206.416, 101.361 231.720 C 121.587 251.730, 157.090 284, 158.877 284 C 161.151 284, 163.132 280.894, 163.980 276 C 164.504 272.975, 165.604 268.700, 166.423 266.500 C 167.242 264.300, 167.932 260.187, 167.956 257.359 C 167.981 254.463, 168.863 250.315, 169.978 247.859 C 171.066 245.462, 171.966 242.660, 171.978 241.634 C 172.011 238.811, 183.640 215.567, 189.555 206.500 C 196.133 196.416, 219.341 173.364, 230.678 165.652 C 244.967 155.932, 265.046 146.578, 278 143.607 C 281.025 142.914, 284.435 141.844, 285.577 141.230 C 286.719 140.617, 291.219 139.812, 295.577 139.441 C 299.935 139.071, 306.200 138.151, 309.500 137.399 C 317.317 135.615, 334.693 135.621, 341.856 137.409 C 344.960 138.185, 351.100 139.132, 355.500 139.516 C 359.900 139.899, 364.625 140.786, 366 141.486 C 367.375 142.186, 370.075 143.072, 372 143.455 C 382.952 145.631, 416.159 162.062, 425.227 169.792 C 427.996 172.153, 432.340 175.483, 434.881 177.193 C 437.421 178.903, 443.775 184.449, 449 189.518 C 462.173 202.298, 463.503 202.489, 478.123 193.690 C 482.866 190.835, 488.941 187.182, 491.623 185.572 C 494.305 183.962, 500.550 180.095, 505.500 176.980 C 510.450 173.865, 518.325 168.936, 523 166.027 C 537.040 157.291, 542.790 150.702, 541.595 144.723 C 539.856 136.030, 516.788 111.772, 492.686 93.290 C 474.525 79.364, 475.147 79.758, 454.500 69.125 C 433.461 58.290, 421.041 53.076, 411.264 50.976 C 408.934 50.475, 405.784 49.439, 404.264 48.673 C 402.744 47.907, 399.162 47.016, 396.304 46.693 C 393.446 46.371, 389.756 45.408, 388.103 44.553 C 386.373 43.659, 382.572 43, 379.139 43 C 375.860 43, 370.326 42.106, 366.839 41.013 C 357.617 38.122, 296.678 38.144, 288 41.041  M 64.557 238.223 C 68.582 232.475 69.281 233.014 110.402 273.63 C 162.934 325.517 161.727 324.243 165.078 331.326 C 166.684 334.722 167.999 338.275 167.999 339.223 C 168 340.171 168.849 342.871 169.887 345.223 C 170.924 347.575 173.06 352.425 174.633 356 C 179.324 366.66 189.767 384.414 194.798 390.283 C 197.384 393.3 201.408 398.292 203.739 401.377 C 206.07 404.461 210.774 409.126 214.19 411.742 C 217.607 414.359 222 417.9 223.952 419.611 C 232.903 427.457 267.635 445 274.219 445 C 275.194 445 278.581 445.864 281.746 446.921 C 284.911 447.977 290.602 449.145 294.393 449.516 C 298.185 449.886 303.079 450.822 305.269 451.595 C 310.959 453.602 343.383 453.574 348.209 451.557 C 350.109 450.763 355.226 449.802 359.582 449.422 C 363.937 449.041 368.625 448.169 370 447.485 C 371.375 446.801 374.075 445.923 376 445.535 C 394.792 441.745 425.57 422.787 446.451 402.142 C 457.609 391.11 460.381 388.996 463.684 389.004 C 465.815 389.009 478.391 395.239 485.522 399.822 C 488.26 401.581 497.7 407.254 506.5 412.428 C 546.014 435.659 545.982 435.626 539.996 446.857 C 536.163 454.047 495.904 495.002 486.573 501.203 C 483.312 503.369 479.487 506.045 478.073 507.148 C 469.51 513.826 445.759 526.776 433.5 531.451 C 429.65 532.919 424.475 534.927 422 535.914 C 413.464 539.316 407.484 541.182 402.5 542.001 C 399.75 542.452 395.827 543.537 393.782 544.411 C 391.737 545.285 387.802 546 385.036 546 C 382.271 546 377.226 546.963 373.826 548.139 C 364.249 551.454 291.524 551.462 282.671 548.15 C 278.798 546.701 274.639 546 269.913 546 C 265.696 546 261.766 545.413 260.055 544.529 C 258.49 543.719 255.25 542.782 252.855 542.446 C 250.46 542.11 246.392 540.972 243.815 539.917 C 241.238 538.863 238.321 538 237.334 538 C 236.347 538 233.28 537.126 230.519 536.058 C 204.231 525.886 200.596 524.237 188 516.759 C 177.16 510.324 166.194 503.123 165.482 501.971 C 165.144 501.424 162.387 499.39 159.355 497.45 C 152.547 493.096 135.2 477.694 128.578 470.125 C 125.872 467.031 120.996 461.75 117.745 458.389 C 112.382 452.846 109.594 449.176 100.592 435.816 C 98.993 433.442 96.385 429.598 94.797 427.274 C 91.301 422.156 75.036 389.109 74.975 387 C 74.952 386.175 74.063 383.7 73 381.5 C 71.937 379.3 71.037 376.6 71 375.5 C 70.963 374.4 70.063 371.7 69 369.5 C 67.937 367.3 67.053 364.279 67.034 362.787 C 67.015 361.295 66.1 357.791 65 355 C 63.865 352.12 63 347.568 63 344.474 C 63 341.443 62.112 336.685 61.001 333.761 C 57.962 325.767 57.952 264.522 60.987 254.839 C 62.08 251.353 62.98 246.688 62.987 244.473 C 62.994 242.257 63.701 239.445 64.557 238.223 Z" stroke="none" fill="black" fill-rule="evenodd"/>
</svg>