<svg xmlns="http://www.w3.org/2000/svg" width="616" height="572" viewBox="0 0 616 572" version="1.1">
	
	<path d="M 73.305 41.932 C 62.349 47.115, 63.410 35.837, 62.106 161 C 60.203 343.605, 60.274 348, 65.138 348 C 65.686 348, 74.270 340.238, 84.215 330.750 C 94.159 321.262, 105.266 310.836, 108.898 307.581 C 123.078 294.867, 158.211 259.264, 160.784 255 L 163.500 250.500 163.810 154.500 C 164.158 47.027, 164.352 50.490, 157.583 43.425 L 153.343 39 116.421 39.001 L 79.500 39.002 73.305 41.932  M 207.75 40.08 C 208.882 39.421 229.626 39.054 266.5 39.042 C 319.944 39.025 323.999 39.147 331.5 41 C 335.948 42.099 343.052 42.996 347.5 43.021 C 352.747 43.05 357.393 43.731 361 45 C 364.025 46.064 368.588 46.949 371.141 46.967 C 373.693 46.985 377.743 47.89 380.141 48.978 C 382.538 50.066 385.629 50.966 387.008 50.978 C 388.388 50.99 393.338 52.396 398.008 54.103 C 402.679 55.81 408.3 57.859 410.5 58.656 C 418.029 61.385 438.495 71.894 447 77.4 C 451.675 80.427 457.525 84.121 460 85.61 C 462.475 87.099 466.3 89.975 468.5 92.001 C 470.7 94.027 476.888 99.169 482.252 103.427 C 488.462 108.357 493.729 113.567 496.752 117.77 C 499.363 121.4 503.559 126.65 506.075 129.435 C 508.591 132.221 511.699 136.3 512.982 138.5 C 514.265 140.7 516.523 143.85 518 145.5 C 521.627 149.551 532.177 168.74 535.886 178.031 C 537.539 182.173 539.588 186.898 540.44 188.531 C 541.291 190.164 541.99 192.305 541.994 193.29 C 541.997 194.274 542.9 196.844 544 199 C 545.1 201.156 546 204.014 546 205.351 C 546 206.688 546.89 209.743 547.978 212.141 C 549.066 214.538 549.976 218.075 550 220 C 550.024 221.925 550.934 225.462 552.022 227.859 C 553.305 230.687 554 234.377 554 238.362 C 554 241.742 554.9 247.654 556 251.5 C 559.016 262.048 559.016 312.733 556 321.5 C 554.756 325.117 554 329.917 554 334.206 C 554 338.434 553.409 342.242 552.472 344.054 C 551.632 345.679 550.557 350.093 550.084 353.862 C 549.61 357.631 548.738 361.621 548.146 362.728 C 547.553 363.835 546.632 366.487 546.099 368.62 C 543.905 377.4 536.952 395.271 531.168 407 C 525.427 418.642 523.222 422.29 510.853 440.615 C 505.191 449.002 476.944 477.277 467.994 483.517 C 453.139 493.871 447.866 497.074 435.5 503.253 C 420.053 510.971 417.511 512.122 409 515.247 C 396.479 519.845 389.479 522.001 387 522.022 C 385.625 522.034 382.538 522.934 380.141 524.022 C 377.743 525.11 373.794 526 371.366 526 C 368.937 526 364.389 526.9 361.26 528 C 357.409 529.353 352.971 530.005 347.535 530.016 C 343.116 530.024 335.269 530.924 330.098 532.016 C 317.18 534.742 212.026 535.108 208.217 532.439 C 203.489 529.128 203.312 527.708 202.671 487.923 C 202.027 447.964 202.276 444.969 209.158 438.5 L 269.329 437.906 C 319.778 437.408 330.068 437.069 333.017 435.805 C 334.951 434.975 338.776 433.962 341.517 433.554 C 350.386 432.23 371.167 424.541 379.171 419.622 C 400.035 406.798 410.608 398.623 415.833 391.273 C 418.4 387.662 422.413 382.508 424.75 379.82 C 427.088 377.132 429 374.59 429 374.17 C 429 373.75 430.937 370.458 433.303 366.854 C 440.352 356.122 448.188 335.951 449.442 325.308 C 449.778 322.453 450.716 318.53 451.527 316.59 C 454.043 310.567 453.636 264.239 451 256.74 C 449.9 253.611 449 249.705 449 248.062 C 449 246.419 448.1 242.791 447 240 C 445.9 237.209 445 234.237 445 233.396 C 445 231.333 432.53 205.874 428.153 199 C 415.13 178.548 388.576 156.224 366.5 147.169 C 354.148 142.102 348.149 140.086 343.5 139.437 C 340.75 139.054 337.17 138.064 335.544 137.238 C 333.087 135.989 322.25 135.547 271.365 134.618 C 211.715 133.529 210.07 133.446 207.345 131.41 C 203.247 128.348 203.208 127.93 203.1 85.7 C 202.994 44.611 203.185 42.739 207.75 40.08 Z M 156.335 293.772 C 156.976 293.364 158.524 293.024 159.775 293.015 C 163.576 292.99 164.169 296.747 163.5 338.791 L 158.617 345.935 C 150.822 357.339 68.848 436 64.759 436 C 60.98 436 60.66 433.713 61.33 411.455 C 61.774 396.694 62.408 388.981 63.36 386.747 C 64.499 384.075 152.121 296.453 156.335 293.772 Z M 142.083 396.25 C 165.635 373.304 164.001 369.148 163.994 451.973 C 163.988 524.67 164.115 523.148 153.263 534 L 70.07 534 L 66.676 531.02 C 61.577 526.543 60.565 520.21 61.27 497.183 C 61.585 486.907 62.314 477.269 62.891 475.764 C 63.468 474.259 71.409 465.428 80.538 456.139 C 89.667 446.851 97.733 438.407 98.463 437.376 C 99.193 436.344 106.015 429.875 113.624 423 C 121.232 416.125 134.039 404.087 142.083 396.25 Z" stroke="none" fill="black" fill-rule="evenodd"/>
</svg>