<svg xmlns="http://www.w3.org/2000/svg" width="708" height="572" viewBox="0 0 708 572" version="1.1">
	
	<path d="M 82.566 41.783 C 73.391 45.260, 66.643 51.909, 62.517 61.539 L 59.533 68.500 59.252 130.925 L 58.970 193.349 61.669 197.244 C 66.473 204.176, 65.169 204.002, 112.200 203.985 C 157.298 203.970, 157.489 203.950, 161.179 198.977 C 162.894 196.667, 163.070 194.026, 163.276 167.640 L 163.500 138.826 166.195 136.508 L 168.889 134.191 321.695 133.756 C 459.816 133.363, 474.985 133.163, 479.548 131.681 C 485.322 129.807, 490.799 124.468, 517.181 95 C 525.798 85.375, 540.082 70.305, 548.924 61.512 C 565.285 45.240, 567.880 41.319, 563.418 39.607 C 562.548 39.273, 455.561 39.035, 325.668 39.078 L 89.500 39.155 82.566 41.783  M 604.5 39.044 L 621.168 39.022 C 649.02 38.985 649.234 37.98 613.746 73.908 C 598.756 89.084 580.862 107.38 573.98 114.566 C 567.099 121.752 559.007 129.289 550.527 135 L 533.835 135 C 517.611 135 514 134.341 514 131.379 C 514 129.701 517.519 124.848 521.524 121 C 524.101 118.525 530.288 112 535.274 106.5 C 557.3 82.205 594.252 45.018 599.285 42.084 Z M 210.001 238.123 C 211.604 237.484 251.18 237.104 320.349 237.063 C 440.065 236.993 431.744 236.527 441 247.07 L 441 322.7 L 437.967 326.887 C 436.298 329.191 433.794 331.508 432.401 332.037 C 428.642 333.467 212.245 333.33 208.13 331.896 C 206.08 331.181 204.086 329.297 200 322.324 L 200 285.612 C 200 246.317 200.025 246.1 205.155 241.31 C 206.446 240.106 208.626 238.672 210.001 238.123 Z M 70 373.728 C 70.825 373.414 89.86 373.122 112.3 373.079 C 166.786 372.974 163.26 370.788 163.061 404.541 C 162.932 426.431 163.663 432.646 166.661 435.134 C 168.032 436.272 195.405 436.583 330.618 437 C 511.906 437.558 497.908 436.946 494.936 444.184 C 493.634 447.354 416.249 526.772 406.611 534 L 90.642 534 L 83.571 531.769 C 77.473 529.845 75.605 528.641 70 523.019 C 58.442 511.427 58.999 515.395 59.007 444.727 C 59.013 389.129 59.147 384.299 60.757 381.883 C 62.67 379.009 67.641 374.624 70 373.728 Z M 536.448 437.864 C 538.677 437.47 547.07 437.228 555.1 437.327 C 577.805 437.606 578.079 438.789 559.851 457.792 C 552.62 465.332 542.546 476.45 537.465 482.5 C 532.384 488.55 519.038 502.613 487.389 534 L 467.894 534 C 439.9 534 439.938 534.177 462.75 510.093 C 471.962 500.367 484.67 486.805 490.988 479.955 C 507.504 462.049 526.023 443.143 529.448 440.692 C 531.069 439.531 534.219 438.259 536.448 437.864 Z M 615 437.656 C 616.925 437.404 624.482 437.301 631.793 437.428 C 651.33 437.766 652.536 440.282 639.67 453.863 C 635.691 458.063 630.231 464.425 627.537 468 C 624.843 471.575 616.748 480.575 609.548 488 C 602.347 495.425 594.236 504.425 591.522 508 C 583.782 518.196 575.894 526.935 566.712 534 L 548.438 534 C 527.644 534 527 533.876 527 529.891 C 527 527.489 530.034 523.885 544.8 508.748 C 554.59 498.712 566.175 486.225 570.544 481 C 585.682 462.897 611.04 438.174 615 437.656 Z" stroke="none" fill="black" fill-rule="evenodd"/>
</svg>