<svg xmlns="http://www.w3.org/2000/svg" width="640" height="572" viewBox="0 0 640 572" version="1.1">
	
	<path d="M 80.500 42.426 C 72.485 46.199, 70.460 48.158, 65.954 56.500 L 62.714 62.500 61.959 126.235 C 61.544 161.289, 61.584 191.664, 62.049 193.735 C 62.569 196.049, 64.257 198.752, 66.432 200.750 L 69.971 204 112.535 204 C 158.371 204, 159.269 203.905, 162.220 198.740 C 163.137 197.135, 163.642 188.706, 164 169 C 164.547 138.913, 164.763 137.830, 170.764 135.033 C 172.917 134.030, 199.267 133.665, 294.500 133.322 C 374.222 133.034, 416.865 132.528, 419.500 131.838 C 424.407 130.552, 438.276 117.300, 456.481 96.500 C 463.220 88.800, 472.281 79.118, 476.617 74.985 C 489.134 63.052, 505 45.327, 505 43.277 C 505 38.836, 513 38.997, 295.050 39.065 L 87.500 39.130 80.500 42.426  M 542.343 39 L 558.737 39 C 585.626 39 585.763 40.058 562.097 64.817 C 531.383 96.948 495.614 131.845 491.731 133.468 C 485.867 135.918 459.036 135.66 455.903 133.123 C 452.517 130.38 453.011 129.701 476.5 104.82 C 522.002 56.622 533.455 44.887 537.812 42.001 Z M 327 237 C 459.725 236.333 445.067 236.051 449.397 239.353 C 456.954 245.117 457 245.403 457 322.7 L 453.967 326.887 C 452.298 329.191 449.794 331.508 448.401 332.037 C 446.836 332.633 404.301 333 336.903 333 C 217.705 333 223.967 333.315 216 323.847 L 216 247.153 L 218.619 244.041 C 224.502 237.05 216.741 237.554 327 237 Z M 68.781 331.052 C 72.296 329.196 74.726 329.086 153.608 329 L 158.248 331.942 C 161.968 334.301 163.048 335.64 163.694 338.692 C 165.11 345.382 164.636 519.843 163.188 524.727 C 162.201 528.056 161.021 529.489 153.324 534 L 113.03 534 C 73.863 534 72.641 533.941 69.344 531.903 C 61.328 526.95 61.21 525.22 61.913 423 C 62.556 329.34 62.167 334.544 68.781 331.052 Z" stroke="none" fill="black" fill-rule="evenodd"/>
</svg>