<svg xmlns="http://www.w3.org/2000/svg" width="628" height="592" viewBox="0 0 628 592" version="1.1">
	
	<path d="M 302.500 40.594 C 300.300 41.423, 294 42.474, 288.500 42.930 C 283 43.386, 276.700 44.469, 274.500 45.336 C 272.300 46.203, 268.700 46.932, 266.500 46.956 C 264.300 46.980, 259.688 47.900, 256.250 49 C 252.813 50.100, 246.963 51.943, 243.250 53.095 C 222.650 59.491, 195.709 71.815, 181 81.574 C 167.280 90.675, 163.146 93.636, 159.292 97.117 C 157.102 99.096, 152.652 102.527, 149.404 104.741 C 142.065 109.746, 122.867 129.386, 121.110 133.689 C 118.676 139.651, 122.415 144.461, 154.974 177.250 C 180.633 203.090, 184.911 207, 187.520 207 C 190.071 207, 192.934 204.576, 206.512 190.919 C 228.489 168.815, 243.531 158.807, 269.500 149.011 C 286.170 142.722, 292.994 141.055, 307 139.850 C 320.971 138.648, 367.360 139.587, 370.243 141.130 C 371.356 141.726, 375.469 142.824, 379.383 143.570 C 393.474 146.257, 418.903 157.005, 427.388 163.859 C 429.526 165.587, 431.602 167, 432.001 167 C 432.400 167, 435.685 169.184, 439.300 171.853 C 452.206 181.380, 455.476 180.627, 468.292 165.182 C 472.254 160.407, 484.780 147.050, 496.127 135.500 C 507.474 123.950, 517.058 113.521, 517.423 112.323 C 518.441 108.991, 515.723 103.752, 510.876 99.706 C 499.163 89.930, 494.551 86.530, 482.860 79.051 C 464.664 67.411, 450.085 60.665, 427.500 53.434 C 423.100 52.025, 416.800 50.001, 413.500 48.936 C 410.200 47.871, 405.925 46.980, 404 46.956 C 402.075 46.932, 398.700 46.201, 396.500 45.333 C 394.300 44.464, 387.775 43.384, 382 42.933 C 376.225 42.482, 369.700 41.432, 367.500 40.600 C 361.655 38.390, 308.366 38.385, 302.500 40.594  M 100.366 164.919 C 104.033 162.682 104.028 162.683 107.685 164.059 C 110.827 165.242 164.801 218.535 171.157 226.731 C 176.026 233.009 175.94 235.623 170.296 253 C 168.522 258.461 168.525 258.439 166.4 279.102 C 164.805 294.609 164.801 296.301 166.346 304.746 C 167.256 309.718 168 316.332 168 319.443 C 168 322.554 168.683 326.419 169.517 328.032 C 170.351 329.646 171.316 333.111 171.66 335.733 C 173.152 347.073 188.683 379.446 196.976 388.5 C 198.488 390.15 201.546 394.2 203.772 397.5 C 208.363 404.305 217.337 413.262 224 417.69 C 226.475 419.334 232.1 423.161 236.5 426.193 C 240.9 429.225 248.55 433.717 253.5 436.175 C 261.721 440.257 265.577 441.741 280.5 446.563 C 283.25 447.452 289.1 448.602 293.5 449.119 C 297.9 449.636 303.493 450.721 305.928 451.53 C 312.302 453.646 356.5 453.653 361.561 451.539 C 363.484 450.736 368.532 449.776 372.779 449.406 C 377.025 449.036 381.4 448.265 382.5 447.694 C 383.6 447.122 386.975 446.086 390 445.391 C 396.868 443.814 403.12 441.732 414.022 437.393 C 418.709 435.527 423.643 434 424.986 434 C 427.752 434 488.455 493.716 491.572 499.504 C 494.273 504.519 492.976 507.079 485.042 512.402 C 473.2 520.347 462.121 525.835 446 531.741 C 442.975 532.849 435.775 535.549 430 537.74 C 424.225 539.931 417.355 542.003 414.733 542.345 C 412.111 542.687 408.646 543.649 407.032 544.483 C 405.419 545.317 401.874 546 399.155 546 C 396.436 546 391.351 546.853 387.855 547.896 C 383.235 549.274 376.449 549.998 363 550.55 C 329.073 551.942 295.371 550.775 286.746 547.911 C 283.581 546.86 278.985 546 276.533 546 C 274.081 546 269.791 545.1 267 544 C 264.209 542.9 260.264 542 258.232 542 C 256.201 542 252.28 541.158 249.519 540.129 C 246.759 539.1 241.35 537.252 237.5 536.022 C 216.808 529.414 180.35 512.02 172.5 505.011 C 171.4 504.029 168.7 502.323 166.5 501.219 C 164.3 500.116 161.6 498.205 160.5 496.973 C 159.4 495.742 154.225 491.461 149 487.461 C 137.79 478.88 123.118 464.126 116.718 455 C 114.211 451.425 110.733 447.15 108.989 445.5 C 107.244 443.85 104.897 440.7 103.772 438.5 C 102.647 436.3 100.627 433.185 99.283 431.578 C 93.605 424.788 77.792 390.446 75.073 379 C 74.616 377.075 73.512 373.827 72.621 371.782 C 71.729 369.737 70.99 366.587 70.978 364.782 C 70.966 362.977 70.066 359.538 68.978 357.141 C 67.867 354.692 67 350.628 67 347.866 C 67 345.162 66.1 340.389 65 337.26 C 61.945 328.568 61.945 264.432 65 255.74 C 66.1 252.611 67 248.063 67 245.634 C 67 243.206 67.89 239.257 68.978 236.859 C 70.066 234.462 70.966 230.862 70.978 228.859 C 70.99 226.857 71.89 223.257 72.978 220.859 C 74.066 218.462 74.981 215.375 75.012 214 C 75.043 212.625 75.937 209.7 77 207.5 C 78.063 205.3 78.947 202.77 78.966 201.877 C 79.013 199.626 91.608 174.246 94.702 170.165 C 96.093 168.331 98.642 165.97 100.366 164.919 Z M 291.399 245.912 C 295.305 245.588 350.7 245.245 414.5 245.149 C 536.539 244.965 532.486 244.846 549.195 249.106 C 554.443 250.443 563.506 259.078 570 271.943 L 569.953 427.5 L 567.227 432.155 C 558.647 446.802 525.739 483.023 519.616 484.56 C 514.408 485.867 514.084 485.583 472.694 443.337 C 454.939 425.215 450 419.612 450 417.591 C 450 415.808 451.991 412.838 456.428 408.003 C 466.718 396.791 469.578 385.178 468.824 357.661 C 468.508 346.105 468.433 345.765 462.888 341 L 404.009 341 C 371.39 341 344.071 340.597 342.755 340.097 C 339.646 338.915 331.613 330.482 327.089 323.652 C 325.115 320.672 320.8 314.325 317.5 309.549 C 314.2 304.773 310.375 299.11 309 296.964 C 307.625 294.819 305.347 291.362 303.938 289.282 C 302.529 287.202 299.65 282.8 297.539 279.5 C 295.429 276.2 292.77 272.15 291.631 270.5 C 277.533 250.082 277.505 247.063 291.399 245.912 Z" stroke="none" fill="black" fill-rule="evenodd"/>
</svg>