<svg xmlns="http://www.w3.org/2000/svg" width="624" height="572" viewBox="0 0 624 572" version="1.1">
	
	<path d="M 68.980 41.750 C 58.420 47.150, 59.537 29.839, 59.240 192.651 C 59 324.255, 59.108 335.436, 60.658 338.827 C 62.717 343.335, 86.133 366.734, 99.026 377.168 C 104.237 381.385, 118.625 395.027, 131 407.484 C 157.319 433.978, 160.690 436.321, 162.827 429.614 C 163.197 428.451, 163.275 343.350, 163 240.500 L 162.500 53.500 160 48.500 C 155.235 38.971, 155.563 39.036, 111.929 39.016 L 74.359 39 68.980 41.750  M 472.3 39 L 510.915 39 C 547.992 39 549.688 39.082 553.515 41.067 C 559.26 44.046 561.703 47.214 562.882 53.215 C 563.578 56.753 564.002 134.341 564.166 288 C 564.441 545.043 565.02 524.263 553.93 534 L 512.416 534 C 468.505 534 467.979 533.949 463.756 529.283 C 459.461 524.537 459.425 523.597 459.163 408.941 C 459.026 348.909 458.771 337.07 457.581 335.441 C 456.193 333.543 453.498 333.489 217.131 332.5 L 213.976 329.5 C 207.949 323.768 208 324.123 208 288.099 C 208 267.295 208.419 253.146 209.133 249.816 C 210.499 243.446 214.798 238.67 220.564 237.117 C 223.237 236.398 261.522 236.054 339.452 236.052 C 454.007 236.048 454.404 236.041 456.448 233.997 C 458.473 231.973 458.509 230.853 459.189 148.223 C 460.033 45.66 459.825 48.063 468.4 41.833 Z M 60.2 379.2 C 62.813 376.587 65.637 378.094 74.022 386.574 C 78.685 391.29 91.725 403.542 103 413.8 C 133.094 441.181 155.327 463.379 163.5 476.5 L 163.822 496.625 C 164.204 520.483 163.6 523.663 153.263 534 L 69.689 534 L 66.259 531.384 C 58.503 525.468 59.008 531.028 59.004 451.45 C 59.001 397.518 59.289 380.111 60.2 379.2 Z" stroke="none" fill="black" fill-rule="evenodd"/>
</svg>