<svg xmlns="http://www.w3.org/2000/svg" width="228" height="572" viewBox="0 0 228 572" version="1.1">
	
	<path d="M 70.164 40.689 C 63.180 44.130, 63.531 40.680, 63.214 109.046 C 63.029 148.872, 63.286 171.622, 63.939 173.341 C 65.890 178.472, 68.405 176.895, 86.413 159.250 C 106.640 139.430, 146.893 101.464, 149.949 99.323 C 151.128 98.497, 154.998 94.418, 158.547 90.258 L 165 82.695 165 64.534 L 165 46.374 162.250 43.809 C 157.061 38.970, 157.350 38.999, 114.316 39.023 C 78.498 39.043, 73.092 39.247, 70.164 40.689  M 149 133.153 C 159.82 122.752 164.949 119.583 165.026 123.25 C 165.041 123.938 165.029 214.432 165.001 324.349 C 164.944 542.204 165.349 527.22 159.385 531.912 C 156.789 533.954 155.803 534 73.389 534 L 70.08 531.559 C 63.109 526.416 63.572 530.624 62.809 465.5 C 61.989 395.476 62.471 220.783 63.497 216.5 C 64.393 212.758 109.028 167.992 126 153.814 C 132.325 148.53 142.675 139.232 149 133.153 Z" stroke="none" fill="black" fill-rule="evenodd"/>
</svg>