<svg xmlns="http://www.w3.org/2000/svg" width="532" height="584" viewBox="0 0 532 584" version="1.1">
	
	<path d="M 372.766 41.917 L 369.500 44.833 369.207 73.167 C 368.868 106.041, 369.063 106.993, 375.450 103.581 C 377.426 102.526, 381.139 99.376, 383.703 96.581 C 386.266 93.787, 398.180 81.462, 410.177 69.194 C 422.917 56.166, 432.261 45.806, 432.643 44.288 C 433.895 39.300, 432.204 39, 402.825 39 L 376.032 39 372.766 41.917  M 462.497 44.839 C 466.368 42.478 470.239 42.502 472.409 44.9 C 473.927 46.577 474.091 48.892 473.491 82.5 L 470.068 89.5 C 466.934 95.91 462.766 100.397 420.607 142.75 C 374.677 188.892 371.305 191.844 369.607 187.418 C 368.631 184.875 368.91 144.357 369.921 141.815 C 370.427 140.542 373.377 136.35 376.476 132.5 C 383.731 123.487 458.538 47.253 462.497 44.839 Z M 464.973 129.687 C 468.259 127.445 471.689 127.551 472.965 129.934 C 473.66 131.233 473.994 166.312 473.983 236.684 C 473.966 337.651 473.894 341.775 472 349 C 470.742 353.801 470.028 359.815 470.017 365.713 C 470.004 372.536 469.481 376.242 468 380 C 466.9 382.791 466 386.808 466 388.928 C 466 391.047 465.11 394.743 464.022 397.141 C 462.934 399.538 462.034 402.616 462.022 403.981 C 461.951 411.953 438.75 459.813 432.401 465.082 C 431.5 465.83 428.607 469.605 425.973 473.471 C 412.917 492.63 378.876 517.348 351.5 527.547 C 347.65 528.981 342.392 531.02 339.815 532.078 C 337.238 533.135 334.186 534 333.032 534 C 331.879 534 329.263 534.716 327.218 535.592 C 325.173 536.467 320.464 537.58 316.754 538.064 C 313.044 538.548 308.769 539.57 307.254 540.334 C 299.424 544.286 225.9 543.955 213.746 539.913 C 210.581 538.861 206.018 538 203.605 538 C 201.192 538 197.257 537.11 194.859 536.022 C 192.462 534.934 189.159 534.034 187.519 534.022 C 185.88 534.01 182.28 533.122 179.519 532.049 C 157.161 523.359 151.116 520.688 140.541 514.826 C 133.918 511.155 125.8 505.951 122.5 503.261 C 119.2 500.571 114.475 496.979 112 495.279 C 106.217 491.306 84.488 468.817 80.244 462.413 C 78.453 459.711 74.89 454.35 72.326 450.5 C 66.908 442.366 61 430.09 61 426.968 C 61 424.695 69.458 416.129 74 413.801 C 75.375 413.097 80.518 410.114 85.428 407.173 C 90.339 404.232 98.664 399.556 103.928 396.781 C 109.193 394.006 115.39 390.439 117.7 388.854 C 123.988 384.54 139.186 377 141.593 377 C 144.974 377 150.248 381.171 153.648 386.534 C 155.38 389.265 158.442 393.525 160.453 396 C 162.465 398.475 166.11 403.313 168.554 406.751 C 171.182 410.448 175.552 414.827 179.249 417.467 C 182.687 419.923 187.48 423.487 189.901 425.388 C 198.284 431.972 218.045 439.641 230.5 441.145 C 234.9 441.676 240.428 442.761 242.785 443.555 C 247.951 445.297 270.759 445.544 276.007 443.916 C 277.928 443.319 283.55 442.223 288.5 441.479 C 307.532 438.62 321.627 431.191 335.848 416.527 C 341.195 411.012 347.113 403.8 348.999 400.5 C 354.535 390.81 360.631 376.84 361.371 372.145 C 361.748 369.75 362.719 366.51 363.529 364.945 C 364.442 363.178 365.014 359.142 365.037 354.3 C 365.057 350.01 365.797 343.35 366.682 339.5 C 368.003 333.749 368.398 323.018 369.5 226.239 L 393 202.338 C 405.925 189.192 424.796 169.676 434.935 158.968 C 452.953 139.941 459.973 133.097 464.973 129.687 Z" stroke="none" fill="black" fill-rule="evenodd"/>
</svg>