<svg xmlns="http://www.w3.org/2000/svg" width="692" height="572" viewBox="0 0 692 572" version="1.1">
	
	<path d="M 74.244 41.331 C 64.868 45.412, 63.689 46.763, 62.685 54.580 C 61.301 65.348, 60.635 497.986, 61.981 511.991 C 63.200 524.675, 64.006 526.543, 70.186 531.020 L 74.300 534 114.321 534 L 154.343 534 158.591 529.566 C 162.165 525.837, 162.939 524.288, 163.466 519.816 C 163.810 516.892, 163.959 410.080, 163.796 282.456 C 163.463 21.210, 164.358 47.859, 155.725 42.247 L 151.500 39.500 115.500 39.271 C 79.938 39.045, 79.436 39.070, 74.244 41.331  M 454 41.264 C 460.922 37.824 567.971 37.693 570.372 41.121 C 572.722 44.476 570.913 47.434 559.135 59.5 C 553.23 65.55 545.976 73.65 543.016 77.5 C 540.055 81.35 530.384 91.925 521.525 101 C 512.666 110.075 501.196 122.45 496.037 128.5 C 490.879 134.55 479.84 146.475 471.507 155 C 463.174 163.525 453.485 174.1 449.976 178.5 C 446.467 182.9 437.202 193.118 429.387 201.206 C 421.572 209.294 410.532 221.444 404.853 228.206 C 399.174 234.968 388.83 246.35 381.866 253.5 C 363.621 272.233 363.277 270.795 392 295.864 C 400.525 303.304 423.25 324.963 442.5 343.995 C 461.75 363.026 485.6 385.984 495.5 395.012 C 505.4 404.04 525.65 423.383 540.5 437.997 C 555.35 452.61 573.573 469.952 580.995 476.533 C 605.373 498.15 632.008 525.125 632.004 528.193 C 631.996 534.114 633.23 534 569.012 534 C 515.144 534 510.213 533.86 507.264 532.25 C 504.313 530.639 456.046 485.304 441 470.012 C 437.425 466.378 431.35 460.54 427.5 457.038 C 423.65 453.536 394.175 424.521 362 392.561 C 329.825 360.601 297.425 329.097 290 322.551 C 270.97 305.773 246.215 281.185 243.93 276.79 C 241.129 271.404 241.497 269.462 246.32 264.207 C 248.696 261.618 252.811 256.575 255.464 253 C 258.118 249.425 267.395 239.3 276.079 230.5 C 284.764 221.7 294.949 210.606 298.711 205.848 C 302.474 201.089 313.71 188.856 323.679 178.664 C 333.648 168.472 345.307 155.716 349.587 150.317 C 353.867 144.917 364.599 133.075 373.435 124 C 382.271 114.925 392.771 103.483 396.768 98.574 C 408.398 84.293 448.774 43.861 454 41.264 Z M 216.806 297.75 C 223.788 290.477 223.115 290.015 263 329.472 C 280.325 346.611 301.25 366.671 309.5 374.05 C 325.738 388.573 464.935 526.143 466.378 529.094 C 468.687 533.815 467.737 534 441.254 534 C 419.903 534 416.1 533.771 413.973 532.356 C 412.613 531.451 401.15 520.527 388.5 508.079 C 375.85 495.631 356.747 477.358 346.049 467.473 C 335.351 457.588 299.9 422.95 207.938 331.5 L 207.969 321.717 C 208.004 310.56 210.183 304.65 216.806 297.75 Z" stroke="none" fill="black" fill-rule="evenodd"/>
</svg>