<svg xmlns="http://www.w3.org/2000/svg" width="612" height="572" viewBox="0 0 612 572" version="1.1">
	
	<path d="M 69.500 41.266 C 66.515 42.933, 64.739 45.022, 62.500 49.500 L 59.500 55.500 59.500 169.500 L 59.500 283.500 61.682 287.500 C 64.245 292.198, 130.114 358.020, 140.854 366.615 C 155.868 378.630, 157.321 379.043, 160.577 372.213 C 162.246 368.712, 162.352 359.571, 162.424 212 L 162.500 55.500 160.178 49.750 C 158.309 45.121, 157.025 43.513, 153.590 41.500 L 149.324 39 111.412 39.016 C 74.054 39.033, 73.442 39.066, 69.500 41.266  M 71.185 437.983 C 77.608 436.449 510.479 437.322 512.346 438.872 C 516.307 442.159 514.559 446.411 505.203 456.249 C 500.365 461.337 494.456 468.2 492.072 471.5 C 489.688 474.8 484.481 480.875 480.5 485 C 476.519 489.125 471.346 495.2 469.004 498.5 C 463.97 505.592 439.684 530.51 435.8 532.569 C 433.487 533.795 407.901 534 81.78 534 L 75.815 530.821 C 68.379 526.857 64.657 522.413 61.76 514.034 C 58.645 505.027 58.283 455.653 61.275 447.901 C 63.414 442.358 66.721 439.048 71.185 437.983 Z M 543.5 451.158 C 548.088 448.642 549.967 451.241 550.125 460.321 C 550.193 464.27 550.422 476.05 550.634 486.5 C 551.257 517.331 550.402 527.752 544.154 534 L 510.648 534 C 468.447 534 468.145 533.857 481.345 520.135 C 485.384 515.936 490.186 510.25 492.015 507.5 C 493.844 504.75 501.715 495.975 509.507 488 C 517.299 480.025 525.506 470.8 527.744 467.5 C 531.857 461.437 539.822 453.175 543.5 451.158 Z" stroke="none" fill="black" fill-rule="evenodd"/>
</svg>