<svg xmlns="http://www.w3.org/2000/svg" width="744" height="572" viewBox="0 0 744 572" version="1.1">
	
	<path d="M 61.923 41.923 C 60.045 43.801, 59 45.876, 59 47.727 C 59 50.708, 63.321 58.401, 66.431 60.957 C 67.405 61.758, 69.775 64.908, 71.696 67.957 C 73.617 71.005, 79.135 77.550, 83.960 82.500 C 88.784 87.450, 95.213 94.875, 98.246 99 C 101.279 103.125, 105.883 108.525, 108.476 111 C 111.068 113.475, 115.023 118.200, 117.264 121.500 C 119.505 124.800, 125.019 131.325, 129.516 136 C 134.014 140.675, 139.192 146.750, 141.024 149.500 C 142.855 152.250, 148.038 158.325, 152.541 163 C 157.045 167.675, 163.221 174.875, 166.266 179 C 169.310 183.125, 174.138 188.750, 176.994 191.500 C 179.850 194.250, 184.030 199.200, 186.284 202.500 C 188.537 205.800, 193.810 212.100, 198 216.500 C 202.190 220.900, 207.465 227.200, 209.723 230.500 C 211.980 233.800, 217.491 240.100, 221.970 244.500 C 226.449 248.900, 231.635 254.975, 233.494 258 C 235.353 261.025, 239.194 265.750, 242.030 268.500 C 244.866 271.250, 249.010 276.200, 251.240 279.500 C 253.470 282.800, 258.760 289.100, 262.996 293.500 C 267.232 297.900, 271.953 303.525, 273.489 306 C 275.024 308.475, 279.946 314.325, 284.426 319 C 288.905 323.675, 294.089 329.750, 295.945 332.500 C 297.801 335.250, 301.864 340.200, 304.975 343.500 C 308.085 346.800, 312.469 352.200, 314.717 355.500 C 319.645 362.733, 325.112 368.073, 330.485 370.902 C 334.326 372.924, 335.820 373, 371.801 373 C 398.234 373, 409.769 372.661, 411.316 371.838 C 416.975 368.828, 424.353 362.433, 428.168 357.232 C 430.480 354.079, 435.142 348.575, 438.527 345 C 441.913 341.425, 446.188 336.250, 448.027 333.500 C 449.866 330.750, 454.366 325.350, 458.028 321.500 C 461.690 317.650, 466.190 312.250, 468.028 309.500 C 469.866 306.750, 474.370 301.350, 478.035 297.500 C 481.701 293.650, 486.526 287.800, 488.757 284.500 C 490.988 281.200, 495.148 276.250, 498 273.500 C 500.852 270.750, 505.024 265.800, 507.271 262.500 C 509.518 259.200, 514.358 253.350, 518.028 249.500 C 521.698 245.650, 526.527 239.800, 528.759 236.500 C 530.991 233.200, 535.368 228.025, 538.485 225 C 541.602 221.975, 546.557 216.125, 549.497 212 C 552.436 207.875, 556.947 202.475, 559.522 200 C 562.097 197.525, 566.225 192.461, 568.695 188.746 C 575.046 179.195, 580.303 178.146, 581.502 186.192 C 581.855 188.561, 581.999 265.425, 581.822 357 L 581.500 523.500 583.847 527.274 C 588.100 534.115, 587.256 534, 633.068 534 L 674.235 534 677.983 530.250 C 680.748 527.482, 682.027 525.112, 682.865 521.201 C 684.126 515.314, 684.218 395.948, 683.129 176.955 C 682.418 33.995, 683.320 47.696, 674.240 41.937 L 669.608 39 622.676 39 L 575.743 39 570.622 41.939 C 564.712 45.330, 560.418 49.667, 553.236 59.500 C 550.424 63.350, 544.456 70.100, 539.975 74.500 C 535.493 78.900, 529.991 85.200, 527.746 88.500 C 525.502 91.800, 519.760 98.550, 514.985 103.500 C 510.210 108.450, 504.807 114.750, 502.978 117.500 C 501.148 120.250, 495.748 126.550, 490.978 131.500 C 486.207 136.450, 480.801 142.750, 478.966 145.500 C 477.130 148.250, 471.292 155, 465.993 160.500 C 460.694 166, 454.519 173.200, 452.270 176.500 C 450.022 179.800, 445.626 184.975, 442.500 188 C 439.374 191.025, 434.991 196.200, 432.759 199.500 C 430.527 202.800, 425.701 208.650, 422.035 212.500 C 418.370 216.350, 413.875 221.750, 412.048 224.500 C 410.221 227.250, 405.906 232.425, 402.460 236 C 399.013 239.575, 394.596 244.975, 392.645 248 C 386.883 256.930, 374.717 269.199, 372.419 268.397 C 369.140 267.253, 354.113 251.940, 347.004 242.500 C 343.277 237.550, 337.436 230.800, 334.024 227.500 C 330.611 224.200, 325.983 218.800, 323.738 215.500 C 321.493 212.200, 316.215 205.900, 312.008 201.500 C 307.801 197.100, 302.624 191.025, 300.504 188 C 298.384 184.975, 292.305 178, 286.995 172.500 C 281.685 167, 275.844 160.250, 274.016 157.500 C 272.188 154.750, 267.229 148.900, 262.997 144.500 C 258.765 140.100, 254.033 134.475, 252.481 132 C 250.930 129.525, 246.222 123.900, 242.021 119.500 C 237.819 115.100, 232.537 108.800, 230.282 105.500 C 228.028 102.200, 223.623 97.025, 220.495 94 C 217.366 90.975, 212.079 84.900, 208.746 80.500 C 205.412 76.100, 198.789 68.450, 194.028 63.500 C 189.267 58.550, 183.859 52.359, 182.010 49.742 C 180.161 47.124, 176.551 43.637, 173.987 41.992 L 169.325 39 117.086 39 L 64.846 39 61.923 41.923  M 59.667 97.667 C 62.629 94.704 67.603 98.166 76.34 109.269 C 79.903 113.796 85.824 120.425 89.498 124 C 93.172 127.575 98.02 133.2 100.27 136.5 C 102.521 139.8 107.137 145.425 110.527 149 C 113.917 152.575 118.628 158.2 120.996 161.5 C 123.363 164.8 128.765 171.1 132.999 175.5 C 137.233 179.9 141.963 185.525 143.51 188 C 145.056 190.475 150.439 196.775 155.472 202 C 160.505 207.225 166.128 213.75 167.968 216.5 C 169.808 219.25 174.322 224.65 178 228.5 C 181.677 232.35 185.93 237.525 187.452 240 C 188.973 242.475 193.485 247.875 197.478 252 C 201.471 256.125 206.664 262.2 209.019 265.5 C 211.374 268.8 216.765 275.1 220.999 279.5 C 225.233 283.9 229.961 289.515 231.504 291.977 C 233.048 294.439 237.546 299.849 241.5 304 C 245.454 308.151 249.96 313.561 251.514 316.023 C 253.068 318.485 257.774 324.1 261.972 328.5 C 266.17 332.9 271.124 338.75 272.982 341.5 C 274.839 344.25 279.841 350.202 284.095 354.727 C 292.598 363.771 294.405 367.79 291.439 371.067 C 288.98 373.784 254.861 374.014 249.705 371.347 C 244.947 368.887 234.552 358.56 227.715 349.5 C 224.394 345.1 218.445 338.125 214.493 334 C 210.541 329.875 206.056 324.475 204.524 322 C 202.993 319.525 198.72 314.35 195.028 310.5 C 191.335 306.65 187.06 301.475 185.528 299 C 183.995 296.525 179.732 291.35 176.055 287.5 C 172.379 283.65 167.862 278.25 166.019 275.5 C 164.176 272.75 158.788 266.45 154.045 261.5 C 149.302 256.55 143.895 250.25 142.03 247.5 C 140.164 244.75 135.313 238.942 131.25 234.594 C 127.187 230.246 122.146 224.16 120.047 221.069 C 117.948 217.979 113.099 212.086 109.271 207.975 C 105.442 203.864 101.042 198.475 99.493 196 C 97.943 193.525 91.201 185.875 84.509 179 C 77.818 172.125 71.277 164.925 69.972 163 C 68.668 161.075 65.665 157.096 59 148.817 L 59 123.575 C 59 109.692 59.3 98.033 59.667 97.667 Z M 60.2 194.2 C 63.256 191.144 67.448 193.693 73.03 202 C 74.323 203.925 79.328 209.661 84.151 214.746 C 88.974 219.831 94.726 226.651 96.932 229.9 C 99.139 233.15 104.476 239.564 108.792 244.154 C 113.109 248.744 118.168 254.75 120.035 257.5 C 121.902 260.25 127.069 266.325 131.518 271 C 135.967 275.675 142.572 283.325 146.195 288 C 149.819 292.675 154.224 297.85 155.983 299.5 C 163.561 306.604 163 297.208 163 524.286 L 153.286 534 L 69.689 534 L 66.259 531.384 C 58.277 525.296 59.008 542.672 59.004 358.95 C 59.001 233.074 59.276 195.124 60.2 194.2 Z" stroke="none" fill="black" fill-rule="evenodd"/>
</svg>