<svg xmlns="http://www.w3.org/2000/svg" width="608" height="588" viewBox="0 0 608 588" version="1.1">
	
	<path d="M 64.498 43.556 C 59.236 48.969, 58.693 51.177, 59.156 65.260 L 59.500 75.708 65.408 84.604 C 68.658 89.497, 74.328 96.650, 78.009 100.500 C 81.689 104.350, 86.525 110.200, 88.755 113.500 C 90.985 116.800, 94.921 121.525, 97.500 124 C 100.079 126.475, 104.033 131.200, 106.286 134.500 C 108.538 137.800, 113.810 144.100, 118 148.500 C 122.190 152.900, 127.461 159.200, 129.712 162.500 C 131.963 165.800, 135.693 170.300, 138 172.500 C 140.307 174.700, 144.031 179.200, 146.275 182.500 C 148.519 185.800, 153.355 191.650, 157.021 195.500 C 160.687 199.350, 165.202 204.750, 167.053 207.500 C 168.905 210.250, 173.205 215.470, 176.608 219.101 C 180.010 222.732, 183.580 227.232, 184.540 229.101 C 185.501 230.970, 189.747 236.100, 193.977 240.500 C 198.207 244.900, 202.733 250.300, 204.033 252.500 C 205.334 254.700, 209.157 259.425, 212.529 263 C 215.901 266.575, 219.737 271.300, 221.053 273.500 C 222.368 275.700, 226.895 281.172, 231.113 285.661 C 235.330 290.149, 240.248 295.999, 242.042 298.661 C 243.836 301.322, 249.210 307.550, 253.985 312.500 C 258.760 317.450, 264.497 324.200, 266.736 327.500 C 268.974 330.800, 272.702 335.300, 275.021 337.500 C 277.340 339.700, 281.154 344.425, 283.497 348 C 285.840 351.575, 289.432 356.075, 291.479 358 C 293.526 359.925, 297.023 364.200, 299.250 367.500 C 301.477 370.800, 306.299 376.650, 309.965 380.500 C 313.630 384.350, 318.132 389.750, 319.968 392.500 C 321.804 395.250, 327.001 401.325, 331.517 406 C 336.034 410.675, 341.322 416.975, 343.268 420 C 345.215 423.025, 348.695 427.300, 351.001 429.500 C 353.308 431.700, 357.018 436.200, 359.247 439.500 C 361.476 442.800, 366.315 448.650, 370.001 452.500 C 373.687 456.350, 377.507 461.060, 378.489 462.968 C 379.472 464.875, 383.738 470.050, 387.968 474.468 C 392.199 478.885, 396.920 484.525, 398.460 487 C 400 489.475, 404.286 494.650, 407.986 498.500 C 411.685 502.350, 416.309 507.975, 418.260 511 C 420.211 514.025, 423.707 518.300, 426.029 520.500 C 428.351 522.700, 432.893 527.791, 436.123 531.813 C 442.108 539.266, 445.785 542.801, 449.684 544.851 C 451.227 545.663, 464.086 546, 493.484 546 C 539.141 546, 538.201 546.115, 543.448 539.880 L 546.133 536.688 545.817 521.094 L 545.500 505.500 542.216 501 C 540.409 498.525, 537.290 494.025, 535.285 491 C 533.279 487.975, 529.317 483.025, 526.481 480 C 523.644 476.975, 519.808 472.250, 517.956 469.500 C 516.104 466.750, 511.583 461.316, 507.910 457.425 C 504.237 453.533, 500.441 448.808, 499.473 446.925 C 498.505 445.041, 494.248 439.900, 490.011 435.500 C 485.774 431.100, 480.804 425.250, 478.965 422.500 C 477.127 419.750, 472.851 414.575, 469.463 411 C 466.074 407.425, 461.476 401.800, 459.244 398.500 C 457.012 395.200, 452.852 390.250, 450 387.500 C 447.148 384.750, 442.978 379.800, 440.735 376.500 C 438.492 373.200, 433.200 366.900, 428.975 362.500 C 424.750 358.100, 419.475 351.800, 417.252 348.500 C 415.029 345.200, 411.756 341.150, 409.979 339.500 C 408.202 337.850, 404.830 333.575, 402.486 330 C 400.143 326.425, 395.657 321.025, 392.518 318 C 389.379 314.975, 384.646 309.350, 382 305.500 C 379.354 301.650, 374.629 296.025, 371.500 293 C 368.371 289.975, 363.647 284.350, 361.003 280.500 C 358.360 276.650, 354.083 271.475, 351.500 269 C 348.917 266.525, 344.644 261.350, 342.006 257.500 C 339.367 253.650, 335.530 248.925, 333.479 247 C 331.429 245.075, 326.711 239.450, 322.997 234.500 C 319.282 229.550, 314.344 223.700, 312.024 221.500 C 309.704 219.300, 305.982 214.800, 303.753 211.500 C 301.524 208.200, 296.689 202.350, 293.008 198.500 C 289.326 194.650, 285.060 189.475, 283.528 187 C 281.995 184.525, 277.732 179.350, 274.055 175.500 C 270.379 171.650, 265.866 166.250, 264.027 163.500 C 262.188 160.750, 257.915 155.575, 254.530 152 C 251.146 148.425, 246.872 143.250, 245.032 140.500 C 243.192 137.750, 238.690 132.350, 235.028 128.500 C 231.366 124.650, 226.866 119.250, 225.028 116.500 C 223.190 113.750, 218.690 108.350, 215.028 104.500 C 211.366 100.650, 206.866 95.250, 205.027 92.500 C 203.188 89.750, 198.902 84.575, 195.502 81 C 192.103 77.425, 188.076 72.475, 186.554 70 C 182.416 63.272, 163.252 44.238, 157.783 41.426 L 153.066 39 110.996 39 L 68.925 39 64.498 43.556  M 455.765 39 L 539.5 39.01 L 545.5 43.807 L 546.031 57.154 C 546.906 79.114 546.541 456.357 545.644 458.212 C 544.497 460.581 541.222 461.429 539.319 459.85 C 538.448 459.127 535.378 455.377 532.498 451.518 C 529.617 447.658 525.803 443.15 524.022 441.5 C 522.24 439.85 518.627 435.35 515.992 431.5 C 513.357 427.65 509.313 422.7 507.005 420.5 C 504.696 418.3 501.21 414.025 499.256 411 C 497.303 407.975 492.914 402.575 489.504 399 C 486.093 395.425 481.477 389.8 479.246 386.5 C 477.015 383.2 473.069 378.475 470.476 376 C 467.883 373.525 464.225 369.136 462.347 366.246 C 460.469 363.356 456.942 358.75 454.509 356.01 C 449.549 350.425 448.269 346.722 446.942 334.112 C 445.577 321.141 445.739 55.48 447.115 50.523 C 447.73 48.308 449.892 44.873 451.992 42.773 Z M 61.378 126.197 C 63.826 122.236 75.755 132.079 84.773 145.5 C 86.991 148.8 90.693 153.3 93 155.5 C 95.307 157.7 99.035 162.2 101.285 165.5 C 103.534 168.8 109.031 175.325 113.5 180 C 117.969 184.675 123.467 191.2 125.718 194.5 C 127.968 197.8 131.921 202.525 134.5 205 C 137.079 207.475 141.017 212.2 143.25 215.5 C 145.482 218.8 149.721 224.061 152.669 227.191 C 155.617 230.321 159.372 235.721 163.998 245.5 L 163.999 388.782 C 164 547.422 164.528 535.592 152.994 546 L 111.947 546 C 65.636 546 66.961 546.202 59.763 533.921 L 60.201 330.657 C 60.442 218.862 60.971 126.855 61.378 126.197 Z" stroke="none" fill="black" fill-rule="evenodd"/>
</svg>