<svg xmlns="http://www.w3.org/2000/svg" width="668" height="620" viewBox="0 0 668 620" version="1.1">
	
	<path d="M 313 41.063 C 308.875 42.110, 302.334 42.974, 298.465 42.984 C 294.033 42.994, 289.326 43.740, 285.740 45 C 282.611 46.100, 278.480 47, 276.562 47 C 274.644 47, 270.791 47.900, 268 49 C 265.209 50.100, 262.164 51, 261.232 51 C 260.301 51, 257.280 51.882, 254.519 52.959 C 251.759 54.036, 244.100 57.019, 237.500 59.587 C 210.479 70.099, 181.879 87.179, 166.500 101.986 C 162.100 106.223, 155.007 112.493, 150.737 115.919 C 139.321 125.081, 136.998 131.296, 143.077 136.411 C 144.769 137.835, 146.579 139, 147.099 139 C 147.619 139, 151.619 142.343, 155.988 146.428 C 160.356 150.514, 166.084 155.315, 168.715 157.099 C 171.347 158.882, 176.910 163.570, 181.077 167.516 C 185.245 171.462, 191.447 176.673, 194.861 179.095 C 198.274 181.518, 203.128 184.963, 205.646 186.750 C 212.232 191.424, 214.069 191.073, 221.847 183.659 C 237.214 169.011, 266.318 152.782, 286.568 147.570 C 289.356 146.852, 292.553 145.775, 293.673 145.175 C 294.792 144.576, 298.812 143.799, 302.604 143.450 C 306.397 143.100, 311.525 142.068, 314 141.157 C 320.486 138.769, 351.308 138.772, 358.500 141.161 C 361.250 142.075, 366.805 143.095, 370.845 143.427 C 374.885 143.760, 379.160 144.556, 380.345 145.196 C 381.530 145.836, 384.750 146.930, 387.500 147.625 C 399.837 150.747, 418.166 159.183, 428.500 166.497 C 431.250 168.444, 436.425 171.993, 440 174.385 C 446.332 178.622, 471 202.833, 471 204.811 C 471 205.356, 473.018 208.487, 475.485 211.768 C 481.872 220.265, 491.510 239.451, 495.094 250.804 C 496.778 256.137, 498.762 262.075, 499.504 264 C 500.246 265.925, 501.094 270.217, 501.389 273.538 C 501.684 276.859, 502.617 281.232, 503.463 283.256 C 505.637 288.459, 505.706 329.375, 503.549 334.537 C 502.751 336.446, 501.791 340.819, 501.416 344.254 C 501.040 347.690, 500.172 351.625, 499.487 353 C 498.802 354.375, 497.923 357.075, 497.534 359 C 496.310 365.055, 490.840 377.954, 482.781 393.789 C 478.502 402.198, 475 409.860, 475 410.816 C 475 412.737, 486.499 424.373, 492 428.018 C 493.925 429.294, 498.425 432.858, 502 435.938 C 505.575 439.018, 510.300 442.704, 512.500 444.129 C 514.700 445.553, 518.750 448.741, 521.500 451.214 C 524.250 453.686, 527.850 456.404, 529.500 457.254 C 531.150 458.104, 534.525 460.575, 537 462.745 C 548.737 473.036, 551.422 472.026, 563.295 452.856 C 576.130 432.134, 578.380 427.804, 588.416 404.500 C 590.082 400.631, 593.141 391.479, 595.938 382 C 597.154 377.875, 598.844 372.475, 599.691 370 C 600.539 367.525, 601.583 361.675, 602.012 357 C 602.440 352.325, 603.513 346.827, 604.395 344.782 C 607.089 338.542, 606.762 271.599, 604 263.740 C 602.867 260.516, 602 255.487, 602 252.134 C 602 248.376, 601.279 244.628, 600.022 241.859 C 598.934 239.462, 598.034 236.159, 598.022 234.519 C 598.010 232.880, 597.146 229.280, 596.102 226.519 C 595.058 223.759, 593.020 217.760, 591.573 213.189 C 590.125 208.618, 588.522 204.118, 588.010 203.189 C 587.498 202.260, 585.650 198.125, 583.904 194 C 580.922 186.957, 576.878 179.419, 569.604 167.349 C 567.897 164.515, 565.191 160.015, 563.590 157.349 C 561.990 154.682, 559.235 150.925, 557.468 149 C 555.701 147.075, 552.676 143.025, 550.745 140 C 546.511 133.366, 516.226 103.490, 506.650 96.500 C 483.417 79.541, 486.500 81.564, 466.500 70.144 C 461.550 67.318, 451.650 62.736, 444.500 59.962 C 437.350 57.187, 429.241 54.036, 426.481 52.959 C 423.720 51.881, 420.570 50.990, 419.481 50.978 C 418.391 50.966, 415.538 50.066, 413.141 48.978 C 410.743 47.890, 407.143 46.980, 405.141 46.956 C 403.138 46.932, 399.700 46.215, 397.500 45.364 C 395.300 44.512, 388.550 43.447, 382.500 42.998 C 376.450 42.549, 369.827 41.466, 367.782 40.591 C 361.982 38.109, 323.325 38.443, 313 41.063  M 113.321 158.75 C 116.482 155.023 118.959 153 120.362 153 C 123.434 153 132.318 159.159 140.5 166.961 C 144.35 170.632 150.2 175.593 153.5 177.985 C 156.8 180.377 162.911 185.566 167.081 189.516 C 171.251 193.466 178.041 199.241 182.171 202.35 C 189.091 207.558 192 211.117 192 214.373 C 192 215.077 187.815 223.943 182.7 234.076 C 172.779 253.73 169.639 261.628 167.626 272 C 166.932 275.575 165.832 279.483 165.182 280.684 C 164.532 281.886 164 285.289 164 288.248 C 164 291.206 163.323 298.764 162.494 305.042 C 161.154 315.207 161.154 317.714 162.494 327.937 C 163.323 334.251 164 341.37 164 343.758 C 164 346.146 164.622 349.314 165.382 350.8 C 166.142 352.285 167.069 355.525 167.443 358 C 168.222 363.162 168.542 364.145 173.598 376.907 C 175.648 382.082 179.114 389.507 181.3 393.407 C 183.486 397.308 186.375 402.525 187.721 405 C 189.067 407.475 191.189 410.625 192.437 412 C 193.685 413.375 196.182 416.75 197.988 419.5 C 202.573 426.486 217.33 441.375 224.5 446.251 C 227.8 448.496 231.915 451.551 233.644 453.042 C 242.442 460.627 272.312 474.168 287.5 477.457 C 290.8 478.171 294.85 479.301 296.5 479.966 C 306.867 484.148 359.301 483.925 367.754 479.663 C 369.264 478.901 372.425 477.983 374.777 477.623 C 394.513 474.6 427.804 457.006 442.964 441.588 C 452.437 431.954 456.535 431.213 464.139 437.76 C 465.988 439.352 469.586 442.069 472.137 443.797 C 474.687 445.526 479.187 449.123 482.137 451.791 C 485.086 454.459 489.691 458.131 492.369 459.951 C 495.047 461.771 500.222 466.022 503.869 469.398 C 507.516 472.774 513.946 478.132 518.158 481.304 C 526.334 487.461 529 490.612 529 494.118 C 529 497.121 508.521 517.834 499.471 523.985 C 495.605 526.613 491.865 529.458 491.159 530.308 C 486.686 535.699 455.378 553.756 440.5 559.528 C 436.65 561.021 432.15 562.84 430.5 563.569 C 424.795 566.09 415.482 569.132 410.846 569.989 C 408.287 570.462 404.822 571.558 403.146 572.425 C 401.47 573.291 398.519 574 396.587 574 C 394.655 574 390.791 574.9 388 576 C 384.924 577.212 380.568 578 376.938 578 C 373.513 578 368.514 578.856 365.26 580 C 360.024 581.84 357.006 582 327.5 582 C 297.994 582 294.976 581.84 289.74 580 C 286.112 578.725 281.487 578 276.975 578 C 272.622 578 268.778 577.419 266.981 576.49 C 265.375 575.66 261.46 574.575 258.281 574.08 C 255.101 573.584 250.7 572.483 248.5 571.633 C 246.3 570.783 243.609 570.068 242.519 570.044 C 241.43 570.02 238.28 569.12 235.519 568.045 C 232.759 566.969 227.575 564.963 224 563.587 C 205.78 556.572 178.988 542.783 172.5 537.081 C 171.4 536.114 168.7 534.255 166.5 532.949 C 164.3 531.644 160.25 528.493 157.5 525.948 C 154.75 523.403 149.8 519.389 146.5 517.028 C 137.748 510.768 126.519 499.52 121.013 491.5 C 118.37 487.65 114.547 482.925 112.516 481 C 110.486 479.075 107.913 475.7 106.8 473.5 C 105.686 471.3 103.926 468.572 102.89 467.438 C 100.411 464.726 80.598 425.626 77.964 418.247 C 76.835 415.086 74.778 408.9 73.392 404.5 C 72.007 400.1 70.001 393.8 68.936 390.5 C 67.871 387.2 67 382.364 67 379.754 C 67 377.144 66.141 372.419 65.092 369.254 C 60.66 355.886 60.694 285.138 65.138 273.713 C 66.162 271.08 67 266.517 67 263.572 C 67 260.374 67.796 256.463 68.978 253.859 C 70.066 251.462 70.981 248.15 71.012 246.5 C 71.043 244.85 71.937 241.7 73 239.5 C 74.063 237.3 74.963 234.6 75 233.5 C 75.037 232.4 75.937 229.7 77 227.5 C 78.063 225.3 78.947 222.974 78.966 222.332 C 79.016 220.604 87.453 202.215 94.489 188.5 C 101.734 174.375 106.637 166.63 113.321 158.75 Z" stroke="none" fill="black" fill-rule="evenodd"/>
</svg>