<svg xmlns="http://www.w3.org/2000/svg" width="588" height="584" viewBox="0 0 588 584" version="1.1">
	
	<path d="M 82.068 41.642 C 74.006 45.320, 69.720 49.184, 65.914 56.204 L 62.500 62.500 62.172 149 C 61.825 240.175, 61.909 242.103, 66.272 243.690 C 67.497 244.135, 88.300 244.373, 112.500 244.219 C 153.159 243.959, 156.690 243.800, 159 242.122 C 164.001 238.491, 163.970 238.855, 163.985 184.773 L 164 134.046 166.287 132.548 C 168.975 130.786, 377.452 130.178, 384 131.912 C 389.591 133.393, 398.735 137.491, 403.864 140.815 C 413.789 147.246, 425 162.474, 425 169.524 C 425 170.944, 425.714 175.245, 426.587 179.083 C 428.055 185.535, 428.044 186.792, 426.448 195.780 C 423.276 213.642, 415.628 224.836, 401.500 232.295 C 385.998 240.479, 384.764 240.624, 319.500 241.908 C 293.650 242.417, 270.751 243.287, 268.613 243.842 C 264.241 244.977, 232.978 276.302, 224.306 288.238 C 221.803 291.682, 214.016 300.350, 207 307.500 C 194.674 320.062, 189.257 327.622, 190.416 330.642 C 192.147 335.154, 191.860 335.145, 298.217 334.018 C 394.523 332.997, 398.479 332.882, 402.782 330.978 C 405.269 329.878, 409.446 329, 412.192 329 C 414.907 329, 419.238 328.161, 421.815 327.136 C 424.392 326.111, 428.300 324.797, 430.500 324.215 C 450.131 319.028, 475.826 304.417, 490.343 290.187 C 502.499 278.272, 515.447 257.170, 520.524 241 C 521.474 237.975, 523.095 233.241, 524.126 230.481 C 525.157 227.720, 526 222.923, 526 219.820 C 526 216.717, 526.894 211.326, 527.987 207.839 C 530.815 198.817, 530.822 178.368, 528 168.500 C 526.884 164.596, 526 158.508, 526 154.721 C 526 150.812, 525.336 146.360, 524.434 144.218 C 523.573 142.173, 522.497 138.700, 522.044 136.500 C 520.211 127.605, 509.099 103.415, 505.953 101.471 C 505.411 101.136, 502.763 97.594, 500.068 93.600 C 490.315 79.148, 466.046 61.340, 445.500 53.561 C 430.275 47.796, 428.361 47.152, 424.535 46.502 C 422.354 46.132, 419.338 45.192, 417.834 44.414 C 416.330 43.636, 412.816 43, 410.025 43 C 407.234 43, 402.389 42.100, 399.260 41 C 393.661 39.032, 391.115 39.001, 240.535 39.082 L 87.500 39.164 82.068 41.642  M 66.306 272.995 C 67.519 272.498 88.72 272.186 158.946 272.5 L 163.5 277.055 L 163.796 405.278 C 163.997 492.309 163.756 534.661 163.047 537.113 C 162.472 539.1 160.815 541.912 156.727 546 L 69.971 546 L 62.5 539.154 L 62.188 410.327 C 61.859 274.748 61.857 274.818 66.306 272.995 Z" stroke="none" fill="black" fill-rule="evenodd"/>
</svg>