<svg xmlns="http://www.w3.org/2000/svg" width="684" height="608" viewBox="0 0 684 608" version="1.1">
	
	<path d="M 295 41.041 C 291.951 42.059, 286.470 42.905, 282.700 42.939 C 278.621 42.976, 274.699 43.621, 272.897 44.553 C 271.244 45.408, 267.554 46.342, 264.696 46.629 C 261.838 46.917, 257.025 47.961, 254 48.949 C 250.975 49.937, 246.700 51.205, 244.500 51.767 C 230.671 55.297, 196.361 71.168, 182 80.678 C 159.723 95.429, 134.543 117.164, 123.702 131 C 120.901 134.575, 116.503 139.776, 113.930 142.558 C 111.356 145.340, 108.466 149.165, 107.508 151.058 C 106.550 152.951, 104.862 155.490, 103.756 156.700 C 101.409 159.268, 90.200 178.804, 86.083 187.500 C 80.767 198.732, 75 212.733, 75 214.409 C 75 215.328, 74.100 217.844, 73 220 C 71.900 222.156, 70.990 225.626, 70.978 227.710 C 70.966 229.795, 70.066 233.462, 68.978 235.859 C 67.792 238.474, 67 242.374, 67 245.605 C 67 248.568, 66.139 253.581, 65.088 256.746 C 60.652 270.091, 60.649 338.943, 65.083 352.254 C 66.137 355.419, 67 360.207, 67 362.895 C 67 365.628, 67.872 369.703, 68.978 372.141 C 70.066 374.538, 70.966 377.977, 70.978 379.782 C 70.990 381.587, 71.700 384.737, 72.554 386.782 C 73.409 388.827, 75.506 394.533, 77.213 399.462 C 83.083 416.412, 98.641 445.382, 107.308 455.500 C 109.192 457.700, 111.521 461.075, 112.483 463 C 114.895 467.825, 153.122 506.245, 160.500 511.258 C 163.800 513.500, 167.850 516.414, 169.500 517.733 C 179.826 525.985, 218.031 546.620, 230 550.409 C 232.475 551.192, 237.650 553.034, 241.500 554.501 C 245.350 555.968, 250.750 557.540, 253.500 557.995 C 256.250 558.450, 260.173 559.537, 262.218 560.411 C 264.263 561.285, 267.745 562, 269.957 562 C 272.169 562, 276.346 562.900, 279.239 563.999 C 282.958 565.413, 286.992 566.009, 293 566.035 C 297.675 566.054, 304.425 566.747, 308 567.575 C 319.854 570.320, 345.191 570.623, 354.064 568.128 C 359.354 566.640, 364.475 566, 371.098 566 C 378.006 566, 382.110 565.459, 386.260 564 C 389.389 562.900, 393.745 562, 395.938 562 C 398.131 562, 402.209 561.100, 405 560 C 407.791 558.900, 411.074 558, 412.295 558 C 414.243 558, 418.331 556.662, 435.500 550.407 C 447.004 546.216, 451.451 543.771, 451.789 541.450 C 452.310 537.873, 435.501 518.328, 409.048 491.750 C 381.590 464.162, 381.533 464.122, 375.079 467.459 C 373.528 468.261, 369.163 469.200, 365.379 469.546 C 361.596 469.891, 356.250 470.922, 353.500 471.837 C 346.653 474.114, 318.676 473.963, 312 471.613 C 309.525 470.742, 305.700 470.012, 303.500 469.991 C 301.300 469.970, 297.925 469.527, 296 469.007 C 281.362 465.054, 277.338 463.752, 268.500 460.102 C 244.153 450.047, 217.224 430.750, 206.261 415.500 C 204.284 412.750, 200.979 408.700, 198.918 406.500 C 196.857 404.300, 193.811 400.250, 192.149 397.500 C 190.488 394.750, 187.104 389.125, 184.630 385 C 177.800 373.613, 168.920 350.582, 167.472 340.500 C 167.077 337.750, 166.134 333.983, 165.377 332.128 C 163.373 327.220, 163.395 280.071, 165.403 276.187 C 166.175 274.695, 167.095 271.230, 167.448 268.487 C 169.296 254.125, 184.086 218.740, 192.104 209.501 C 193.536 207.850, 195.946 204.475, 197.460 202 C 201.228 195.841, 221.155 175.756, 228.500 170.714 C 231.800 168.449, 236.375 165.166, 238.667 163.419 C 251.448 153.679, 283.292 140.672, 298.334 139.048 C 309.346 137.860, 318.171 135.234, 320.750 132.379 L 323 129.888 323 87.090 L 323 44.292 320.548 41.646 C 318.236 39.152, 317.590 39.006, 309.298 39.103 C 303.675 39.168, 298.515 39.868, 295 41.041  M 350.924 41.58 C 354.122 38.176 366.898 37.897 376.839 41.013 C 380.326 42.106 385.86 43 389.139 43 C 392.498 43 396.373 43.659 398.019 44.51 C 399.625 45.34 403.54 46.425 406.719 46.92 C 409.899 47.416 414.3 48.517 416.5 49.367 C 418.7 50.217 421.391 50.932 422.481 50.956 C 423.57 50.98 426.72 51.88 429.481 52.955 C 432.241 54.031 437.65 56.097 441.5 57.548 C 458.125 63.811 502.953 89.419 508.056 95.568 C 508.775 96.433 514.568 101.337 520.931 106.465 C 534.258 117.204 542.115 125.049 547.864 133.356 C 550.093 136.577 553.765 141.302 556.024 143.856 C 567.438 156.759 589.955 198.903 593.946 214.832 C 594.854 218.456 596.21 222.756 599.518 232.5 C 600.451 235.25 601.543 240.425 601.944 244 C 602.345 247.575 603.372 251.85 604.227 253.5 C 608.462 261.68 608.171 340.233 603.865 351.287 C 602.839 353.92 602 358.291 602 361 C 602 363.709 601.1 368.209 600 371 C 598.9 373.791 598 377.2 598 378.577 C 598 379.953 597.1 382.844 596 385 C 594.9 387.156 594 389.856 594 391 C 594 392.144 593.1 394.844 592 397 C 590.9 399.156 590 401.672 590 402.591 C 590 404.462 583.833 419.29 577.944 431.579 C 573.034 441.826 565.398 449.555 561.192 448.536 C 557.697 447.689 535.126 425.418 525.178 413 C 520.992 407.775 512.04 397.808 493 378.201 L 493 372.605 C 493 368.369 493.972 364.639 497 357.254 C 499.2 351.89 501 346.251 501 344.725 C 501 343.199 501.9 339.389 503 336.26 C 504.819 331.084 505 328.006 505 302.219 C 505 284.108 504.616 273.151 503.937 271.882 C 503.352 270.789 502.248 267.106 501.482 263.698 C 499.875 256.536 497.465 248.804 495.5 244.5 C 494.746 242.85 492.781 238.35 491.132 234.5 C 488.442 228.219 484.989 222.019 475.5 206.429 C 470.342 197.954 443.691 171.547 433.5 164.813 C 422.61 157.617 396.038 144.406 390.5 143.434 C 388.3 143.048 385.276 142.113 383.78 141.356 C 382.284 140.599 377.559 139.71 373.28 139.38 C 364.639 138.714 352.313 135.516 350 133.339 C 348.711 132.126 348.5 125.758 348.5 44.161 L 350.924 41.58 Z M 323.046 357 L 435.69 357 L 441.595 360.842 C 448.296 365.203 495.983 413.142 508.421 428.023 C 512.778 433.235 531.262 452.575 549.498 471 C 567.734 489.425 587.862 510.575 594.228 518 C 600.594 525.425 609.705 535.325 614.473 540 C 619.242 544.675 623.787 549.715 624.572 551.2 C 628.277 558.208 630.082 558 508.153 558 L 503.327 554.357 C 493.458 546.907 485.559 539.366 474.263 526.607 C 467.88 519.398 451.567 502.25 438.012 488.5 C 424.457 474.75 409.363 458.775 404.469 453 C 399.576 447.225 378.86 425.625 358.434 405 C 319.728 365.917 318.332 364.194 321.477 359.394 Z" stroke="none" fill="black" fill-rule="evenodd"/>
</svg>