<svg xmlns="http://www.w3.org/2000/svg" width="628" height="584" viewBox="0 0 628 584" version="1.1">
	
	<path d="M 84.500 42.091 C 77.039 45.791, 69.244 53.368, 65.699 60.369 L 63 65.700 63 151.303 C 63 211.918, 63.324 237.617, 64.110 239.343 C 66.437 244.450, 66.935 244.500, 115.235 244.500 L 160.165 244.500 162.952 241.380 C 166.663 237.227, 166.792 235.230, 166.891 180.542 C 166.970 136.666, 167.021 135.535, 169.013 133.542 C 171.039 131.516, 171.871 131.498, 272.778 131.229 C 335.134 131.063, 376.048 131.329, 378.500 131.916 C 383.525 133.119, 390.909 135.564, 397.922 138.348 C 408.205 142.429, 425 161.129, 425 168.496 C 425 169.351, 425.900 172.611, 427 175.740 C 430.445 185.541, 429.212 193.572, 421.719 210.146 C 415.147 224.681, 394.516 239.972, 381.422 240.012 C 379.265 240.018, 375.025 240.759, 372 241.657 C 367.346 243.038, 359.041 243.358, 318.025 243.736 C 278.037 244.104, 269.053 244.438, 266.715 245.647 C 261.989 248.091, 256.239 253.864, 247.491 264.948 C 242.911 270.752, 234.805 279.775, 229.479 285 C 224.153 290.225, 214.329 300.942, 207.647 308.816 C 190.723 328.762, 191.647 327.457, 192.382 330.384 C 193.609 335.273, 195.189 335.500, 228 335.500 C 257.825 335.500, 258.579 335.549, 262.092 337.734 C 266.740 340.625, 281.603 356.062, 285.936 362.500 C 287.787 365.250, 293.450 371.775, 298.520 377 C 303.590 382.225, 309.331 388.975, 311.277 392 C 313.224 395.025, 317.148 399.750, 319.998 402.500 C 322.848 405.250, 327.255 410.425, 329.792 414 C 332.329 417.575, 338.356 424.672, 343.186 429.771 C 348.016 434.871, 353.843 441.621, 356.134 444.771 C 358.426 447.922, 363.762 454.100, 367.994 458.500 C 372.225 462.900, 376.985 468.525, 378.572 471 C 380.159 473.475, 385.661 479.965, 390.799 485.422 C 395.937 490.880, 401.540 497.405, 403.250 499.922 C 404.961 502.440, 411.176 509.534, 417.062 515.687 C 422.948 521.840, 429.743 529.715, 432.162 533.187 C 435.178 537.516, 438.266 540.522, 441.986 542.750 L 447.412 546 506.051 546 C 562.199 546, 564.762 545.920, 566.394 544.118 C 569.190 541.027, 567.431 537.655, 557.585 527.229 C 552.532 521.878, 546.184 514.575, 543.479 511 C 540.773 507.425, 534.254 500, 528.990 494.500 C 523.727 489, 517.447 481.800, 515.035 478.500 C 512.623 475.200, 506.970 468.675, 502.473 464 C 497.977 459.325, 492.344 452.800, 489.956 449.500 C 487.569 446.200, 480.599 438.325, 474.467 432 C 468.336 425.675, 461.822 418.250, 459.992 415.500 C 458.161 412.750, 452.079 405.775, 446.477 400 C 440.874 394.225, 434.351 386.800, 431.982 383.500 C 429.612 380.200, 422.844 372.550, 416.941 366.500 C 402.716 351.922, 390.417 336.148, 391.694 334.123 C 393.125 331.855, 401.820 329.165, 408 329.078 C 412.971 329.008, 416.234 328.194, 431 323.343 C 433.475 322.530, 437.292 321.419, 439.483 320.875 C 445.127 319.472, 466.107 308.977, 475.046 303.084 C 483.543 297.483, 500.245 280.823, 504.204 274 C 514.313 256.580, 522 240.396, 522 236.534 C 522 235.810, 522.890 233.257, 523.978 230.859 C 525.092 228.404, 525.966 224.301, 525.978 221.465 C 525.990 218.696, 526.900 213.870, 528 210.740 C 529.724 205.836, 530 202.487, 530 186.500 C 530 170.513, 529.724 167.164, 528 162.260 C 526.900 159.130, 526 154.556, 526 152.094 C 526 141.016, 511.537 107.938, 502.120 97.480 C 500.129 95.268, 496.925 91.081, 495 88.174 C 490.419 81.256, 469.613 65.372, 456.450 58.744 C 448.277 54.628, 428.477 47.002, 425.903 46.978 C 424.581 46.966, 421.538 46.066, 419.141 44.978 C 416.528 43.793, 412.626 43, 409.402 43 C 406.442 43, 401.654 42.100, 398.761 41.001 C 393.582 39.032, 391.139 39.002, 242 39.059 L 90.500 39.117 84.500 42.091  M 68.329 273.442 C 70.913 272.305 79.757 272.089 116.146 272.273 C 166.026 272.527 163.432 272.144 166.638 279.718 C 168.173 283.345 168.493 444.091 167.08 502 C 166.261 535.571 165.746 538.511 156.847 546 L 114.874 546 C 68.539 546 68.822 546.036 64.96 539.701 C 63.05 536.57 63.007 533.682 63.004 407.684 C 63.001 317.445 63.323 278.265 64.079 276.853 C 64.672 275.744 66.585 274.209 68.329 273.442 Z" stroke="none" fill="black" fill-rule="evenodd"/>
</svg>