<svg xmlns="http://www.w3.org/2000/svg" width="528" height="608" viewBox="0 0 528 608" version="1.1">
	
	<path d="M 278.400 40.765 C 274.786 43.178, 274.565 45.754, 274.532 85.677 C 274.492 134.041, 273.182 130.220, 290.103 131.078 C 296.371 131.396, 302.559 132.224, 303.852 132.918 C 305.146 133.612, 309.162 134.599, 312.776 135.110 C 316.390 135.622, 321.406 136.694, 323.924 137.492 C 326.441 138.290, 330.750 139.654, 333.500 140.524 C 336.250 141.394, 340.750 142.739, 343.500 143.513 C 346.250 144.287, 358.400 149.834, 370.500 155.840 C 396.429 168.709, 395.459 168.334, 399.403 167.030 C 402.826 165.898, 417.489 150.644, 422.983 142.500 C 424.839 139.750, 430.102 133.538, 434.680 128.696 C 439.258 123.854, 443.708 118.532, 444.568 116.869 C 445.428 115.206, 447.677 111.820, 449.566 109.346 C 454.159 103.328, 453.965 101.343, 448.250 95.904 C 440.120 88.167, 413.083 72.248, 397.173 65.830 C 391.853 63.684, 386.600 61.510, 385.500 60.999 C 381.949 59.351, 371.613 55.911, 367.500 55.009 C 365.300 54.526, 361.827 53.427, 359.782 52.566 C 357.737 51.705, 355.037 50.980, 353.782 50.956 C 352.527 50.932, 349.700 50.208, 347.500 49.348 C 345.300 48.487, 340.089 47.433, 335.920 47.005 C 331.751 46.577, 326.936 45.501, 325.220 44.614 C 323.024 43.478, 319.344 42.990, 312.800 42.965 C 307.685 42.946, 300.575 42.286, 297 41.500 C 290.001 39.961, 280.186 39.573, 278.400 40.765  M 229.5 42.057 C 237.042 40.497 242.538 40.849 248 45.145 L 248 84.491 C 248 106.131 247.719 124.567 247.377 125.461 C 246.256 128.381 239.856 130.703 231.404 131.258 C 226.951 131.551 222.001 132.452 220.404 133.261 C 218.807 134.071 215.842 135.033 213.815 135.399 C 207.388 136.562 193.107 143.763 183.255 150.808 C 179.469 153.516 173.837 162.731 170.42 171.81 C 167.359 179.942 167.179 189.347 169.948 196.481 C 171.02 199.241 172.173 202.815 172.511 204.421 C 173.606 209.639 190.059 224.775 200.008 229.72 C 209.458 234.416 221.083 238.653 228.154 239.977 C 230.713 240.457 234.178 241.558 235.854 242.425 C 237.53 243.291 240.611 244.01 242.7 244.022 C 244.79 244.034 248.462 244.934 250.859 246.022 C 253.257 247.11 256.47 248 258 248 C 259.53 248 262.743 248.89 265.141 249.978 C 267.538 251.066 271.171 251.966 273.213 251.978 C 275.255 251.99 279.209 252.9 282 254 C 284.791 255.1 288.52 256.01 290.287 256.022 C 292.054 256.034 295.462 256.934 297.859 258.022 C 300.257 259.11 303.632 260.01 305.359 260.022 C 307.087 260.034 310.462 260.934 312.859 262.022 C 315.257 263.11 318.632 264.01 320.359 264.022 C 322.087 264.034 325.462 264.934 327.859 266.022 C 330.257 267.11 333.534 268 335.141 268 C 336.749 268 339.737 268.715 341.782 269.589 C 343.827 270.463 347.525 271.766 350 272.485 C 352.475 273.204 357.65 274.991 361.5 276.456 C 365.35 277.921 369.4 279.38 370.5 279.699 C 377.168 281.634 403.258 295.303 413.927 302.451 C 428.136 311.971 442.846 326.251 449.334 336.822 C 453.838 344.159 462 361.317 462 363.447 C 462 364.26 462.9 367.209 464 370 C 465.1 372.791 466 376.562 466 378.38 C 466 380.199 466.9 384.303 468 387.5 C 470.935 396.031 470.943 426.813 468.013 436.161 C 466.92 439.647 466.01 444.525 465.991 447 C 465.972 449.475 465.066 453.462 463.978 455.859 C 462.89 458.257 462 461.367 462 462.77 C 462 465.96 449.569 491.27 445.962 495.425 C 444.494 497.116 442.053 500.525 440.537 503 C 429.624 520.823 401.04 540.727 369.5 552.466 C 365.65 553.899 361.022 555.73 359.216 556.536 C 357.41 557.341 354.614 558 353.003 558 C 351.392 558 347.791 558.9 345 560 C 342.209 561.1 337.919 562 335.467 562 C 333.015 562 328.419 562.862 325.254 563.915 C 316.903 566.693 286.966 567.863 281 563.954 L 281 522.632 C 281 484.534 281.137 481.189 282.75 479.762 C 285.012 477.76 299.526 474.315 308.5 473.649 C 316.566 473.051 324.939 470.08 337 463.536 C 348.704 457.185 354.096 451.634 365 430.036 L 365 416.49 C 365 403.06 364.97 402.879 361.473 395.51 C 355.092 382.063 345.055 374.315 323 365.81 C 306.447 359.426 302.059 357.939 297 356.995 C 294.525 356.534 290.827 355.446 288.782 354.578 C 286.737 353.71 283.812 352.99 282.282 352.978 C 280.752 352.966 277.538 352.066 275.141 350.978 C 272.743 349.89 269.272 349 267.428 349 C 265.583 349 261.791 348.1 259 347 C 256.209 345.9 252.609 345 251 345 C 249.391 345 245.791 344.1 243 343 C 240.209 341.9 236.384 341 234.5 341 C 232.616 341 228.791 340.1 226 339 C 223.209 337.9 219.255 336.99 217.213 336.978 C 215.171 336.966 211.538 336.066 209.141 334.978 C 206.743 333.89 203.368 332.99 201.641 332.978 C 199.913 332.966 196.538 332.066 194.141 330.978 C 191.743 329.89 188.902 329 187.826 329 C 186.751 329 183.762 328.151 181.185 327.114 C 178.608 326.076 172.9 323.846 168.5 322.156 C 154.96 316.958 137.235 309.329 134.137 307.366 C 132.517 306.34 128.401 303.799 124.991 301.72 C 114.833 295.527 104.722 286.437 94.209 274.046 C 89.21 268.153 75 241.949 75 238.623 C 75 237.85 74.11 235.257 73.022 232.859 C 71.934 230.462 71.034 226.421 71.022 223.88 C 71.01 221.339 70.1 216.443 69 213 C 66.077 203.851 66.077 176.575 69 168.26 C 70.1 165.13 71 160.658 71 158.322 C 71 155.985 71.9 151.791 73 149 C 74.1 146.209 75 143.131 75 142.16 C 75 139.316 82.556 124.479 90.83 111.077 C 99.484 97.061 108.877 86.341 117 81.21 C 120.025 79.299 123.625 76.734 125 75.511 C 132.472 68.86 161.783 55.33 178.033 51.031 C 181.626 50.08 185.534 48.785 186.717 48.151 C 187.9 47.518 190.918 47 193.424 47 C 195.929 47 200.346 46.1 203.239 45.001 C 206.93 43.598 211.037 42.984 217 42.943 C 221.675 42.911 227.3 42.512 229.5 42.057 Z M 109.438 433.189 C 114.663 428.601 118.394 428.875 127.708 434.53 C 151.571 449.017 179.831 461.696 196.698 465.482 C 200.106 466.248 203.706 467.308 204.698 467.838 C 205.689 468.369 208.75 469.099 211.5 469.462 C 214.25 469.825 218.337 470.778 220.582 471.579 C 222.827 472.381 227.552 473.455 231.082 473.966 C 234.612 474.477 240.425 475.629 244 476.525 C 247.575 477.421 251.463 478.341 252.64 478.568 C 256.254 479.268 256.46 481.333 256.79 520.189 C 257.21 569.663 257.26 569.492 243.08 567.15 C 239.249 566.518 232.586 566 228.273 566 C 222.994 566 218.571 565.346 214.74 564 C 211.112 562.725 206.487 562 201.975 562 C 197.534 562 193.782 561.422 191.897 560.447 C 190.244 559.592 186.554 558.654 183.696 558.363 C 180.838 558.071 176.392 556.97 173.815 555.916 C 171.238 554.862 168.088 554 166.815 554 C 164.359 554 151.803 550.098 138 545.044 C 136.075 544.339 131.886 542.868 128.692 541.774 C 111.209 535.789 62.753 509.144 60.002 504.003 C 57.211 498.79 62.807 488.305 75.479 475 C 78.884 471.425 83.07 466.25 84.782 463.5 C 86.494 460.75 89.763 456.7 92.048 454.5 C 94.332 452.3 98.363 447.322 101.004 443.439 C 103.645 439.555 107.441 434.942 109.438 433.189 Z" stroke="none" fill="black" fill-rule="evenodd"/>
</svg>