<svg xmlns="http://www.w3.org/2000/svg" width="576" height="584" viewBox="0 0 576 584" version="1.1">
	
	<path d="M 63.997 43.816 L 59 48.632 59 85.912 C 59 118.935, 59.191 123.514, 60.669 126.017 C 64.117 131.854, 51.977 131.500, 248.901 131.500 L 430.500 131.500 435.897 128.511 C 439.874 126.308, 444.257 122.101, 452.566 112.511 C 458.766 105.355, 475.392 87.800, 489.512 73.500 C 503.632 59.200, 515.609 46.712, 516.128 45.750 C 517.237 43.691, 515.861 40.544, 513.446 39.618 C 512.561 39.278, 412.197 39, 290.415 39 L 68.993 39 63.997 43.816  M 245.5 158.502 C 248.664 157.383 257.229 157.081 323.5 157.02 L 328.685 159.434 C 337.845 163.698 337 144.185 337 351.549 C 337 553.994 337.457 539.402 330.972 544.02 C 328.305 545.919 326.447 546 243.153 546 L 240.096 543.427 C 238.393 541.995 236.475 539.002 235.769 536.677 C 234.288 531.803 233.869 181.923 235.331 171.675 C 236.319 164.753 239.51 160.62 245.5 158.502 Z" stroke="none" fill="black" fill-rule="evenodd"/>
</svg>