<svg xmlns="http://www.w3.org/2000/svg" width="596" height="596" viewBox="0 0 596 596" version="1.1">
	
	<path d="M 71 39.722 C 67.256 41.129, 63.747 44.565, 61.472 49.055 L 59 53.934 59.012 200.217 C 59.022 328.669, 59.211 347.170, 60.559 352 C 61.404 355.025, 62.459 363.350, 62.904 370.500 C 63.420 378.780, 64.310 384.850, 65.357 387.218 C 66.261 389.263, 67 392.476, 67 394.359 C 67 396.241, 67.890 399.743, 68.978 402.141 C 70.066 404.538, 70.966 407.767, 70.978 409.315 C 70.990 410.863, 71.854 414.238, 72.898 416.815 C 73.942 419.392, 75.787 424.200, 76.998 427.500 C 82.122 441.460, 89.238 454.388, 101.482 471.980 C 107.246 480.263, 126.984 500.131, 133.500 504.209 C 136.250 505.931, 140.300 509.011, 142.500 511.054 C 150.701 518.670, 172.204 530.740, 189.500 537.436 C 196.100 539.991, 203.759 542.964, 206.519 544.041 C 209.280 545.118, 212.655 546.010, 214.019 546.022 C 215.384 546.034, 218.462 546.934, 220.859 548.022 C 223.257 549.110, 226.953 550, 229.072 550 C 231.192 550, 235.209 550.900, 238 552 C 241.529 553.391, 245.432 554, 250.819 554 C 255.079 554, 261.025 554.701, 264.032 555.557 C 271.884 557.794, 279.331 558.428, 281.857 557.077 L 284 555.930 284 509.419 L 284 462.909 281.691 460.600 C 279.809 458.718, 277.833 458.156, 270.998 457.560 C 266.386 457.158, 261.012 456.231, 259.056 455.500 C 257.100 454.769, 254.150 453.881, 252.500 453.528 C 231.110 448.944, 201.957 429.301, 190.347 411.651 C 179.636 395.367, 168 370.529, 168 363.949 C 168 362.567, 167.235 358.975, 166.299 355.968 C 164.741 350.958, 164.553 337.903, 164.049 199.975 L 163.500 49.451 161.234 46.570 C 159.988 44.986, 157.538 42.635, 155.790 41.345 L 152.611 39 112.556 39.079 C 90.525 39.122, 71.825 39.412, 71 39.722  M 439.5 40.861 C 442.293 39.135 445.334 39.007 524.536 39 L 528.243 41.519 C 536.545 47.161 536.421 43.959 535.169 219.706 C 534.137 364.669 534.077 367.622 532.058 373.88 C 530.926 377.389 530 382.66 530 385.593 C 530 388.568 529.116 393.17 528 396 C 526.9 398.791 526 402.205 526 403.587 C 526 404.969 525.338 407.38 524.529 408.945 C 523.719 410.51 522.622 413.525 522.091 415.645 C 519.44 426.222 507.202 453.21 502.514 458.819 C 501.282 460.293 499.356 463.3 498.234 465.5 C 497.112 467.7 494.965 470.625 493.461 472 C 491.958 473.375 487.682 478.6 483.959 483.61 C 477.274 492.608 473.197 496.571 459.5 507.386 C 448.535 516.044 427.474 528.968 416.5 533.771 C 398.013 541.864 387.112 546 384.268 546 C 383.061 546 379.791 546.9 377 548 C 374.209 549.1 370.384 550 368.5 550 C 366.616 550 362.791 550.9 360 552 C 356.667 553.314 352.568 554 348.052 554 C 343.986 554 338.588 554.812 334.839 555.987 C 327.007 558.442 316.807 558.664 314.571 556.429 C 313.188 555.046 313 549.344 313 462.909 L 315.298 460.611 C 317.179 458.73 319.038 458.211 325.548 457.751 C 340.415 456.7 368.834 445.721 379.667 436.844 C 381.911 435.005 386.554 431.487 389.984 429.026 C 403.047 419.655 422.026 386.063 425.038 366.981 C 425.517 363.946 426.604 359.798 427.454 357.763 C 428.825 354.483 429 337.291 429 206.007 C 429 61.147 429.043 57.829 430.975 52.332 C 433.155 46.129 435.008 43.635 439.5 40.861 Z" stroke="none" fill="black" fill-rule="evenodd"/>
</svg>