<svg xmlns="http://www.w3.org/2000/svg" width="668" height="584" viewBox="0 0 668 584" version="1.1">
	
	<path d="M 61.655 40.829 C 59.348 43.378, 59.436 43.793, 64.607 54.744 C 67.141 60.110, 71.828 70.392, 75.024 77.593 C 78.219 84.794, 85.571 100.153, 91.361 111.723 L 101.889 132.759 108.194 136.342 C 111.662 138.313, 128.450 146.900, 145.500 155.425 C 162.550 163.950, 184.159 174.880, 193.520 179.713 C 221.050 193.926, 247.744 206.312, 249.441 205.661 C 250.298 205.332, 251 204.442, 251 203.682 C 251 202.249, 237.687 171.802, 229.588 154.711 C 227.036 149.328, 223.652 141.678, 222.068 137.711 C 220.484 133.745, 214.645 121.165, 209.094 109.756 C 203.542 98.347, 199 88.804, 199 88.549 C 199 88.294, 195.157 79.854, 190.460 69.793 C 181.437 50.467, 177.426 44.864, 169.790 40.917 C 164.167 38.012, 64.279 37.930, 61.655 40.829  M 505.392 39 L 603.855 39 L 605.916 41.621 C 608.451 44.843 608.12 46.435 602.4 58.535 C 600.05 63.504 596.577 71.379 594.681 76.035 C 592.785 80.691 589.203 88.775 586.721 94 C 584.24 99.225 580.312 108 577.993 113.5 C 575.674 119 572.213 126.855 570.302 130.955 C 568.391 135.056 565.804 141.131 564.553 144.455 C 563.301 147.78 560.588 154.1 558.524 158.5 C 556.459 162.9 553.3 170.137 551.503 174.582 C 549.707 179.027 546.649 186.002 544.708 190.082 C 542.767 194.162 539.52 201.55 537.493 206.5 C 535.465 211.45 532.226 218.875 530.295 223 C 528.364 227.125 525.47 233.806 523.864 237.846 C 522.258 241.886 518.669 249.979 515.889 255.831 C 513.108 261.683 509.324 270.303 507.48 274.986 C 505.635 279.669 502.697 286.425 500.95 289.999 C 499.203 293.574 495.803 301.341 493.394 307.259 C 490.986 313.178 487.499 321.054 485.645 324.76 C 483.792 328.467 481.702 333.3 480.999 335.5 C 480.297 337.7 476.635 346.136 472.861 354.247 C 469.088 362.358 466 369.26 466 369.585 C 466 370.244 460.866 381.96 456.108 392.162 C 454.398 395.826 453 399.148 453 399.544 C 453 400.343 439.319 432.125 432.573 447 C 430.203 452.225 427.571 458.3 426.724 460.5 C 421.563 473.904 415.245 487.304 413.686 488.152 C 412.424 488.839 411.417 488.761 410.375 487.896 C 408.624 486.443 387.203 442.978 382.827 432 C 381.183 427.875 377.802 420.225 375.313 415 C 372.825 409.775 368.325 399.875 365.313 393 C 362.302 386.125 359.161 379.002 358.334 377.17 C 355.836 371.637 357.803 359.577 363.011 348.5 C 363.528 347.4 365.473 342.675 367.332 338 C 370.771 329.356 382.015 303.418 389.007 288 C 391.127 283.325 394.713 275.088 396.976 269.694 C 399.239 264.301 403.371 255.076 406.159 249.194 C 412.075 236.71 418.93 220.696 423.018 209.81 C 424.606 205.581 427.122 199.731 428.608 196.81 C 430.095 193.89 433.223 186.775 435.56 181 C 437.896 175.225 442.034 165.55 444.753 159.5 C 447.473 153.45 452.201 142.65 455.259 135.5 C 458.318 128.35 464.502 113.95 469.003 103.5 C 483.172 70.601 484.832 66.671 487.595 59.5 C 490.861 51.022 494.914 45.644 500.9 41.849 Z M 120.667 171.667 C 121.033 171.3 122.39 171 123.682 171 C 125.741 171 253.637 234.187 264.696 240.668 C 269.292 243.361 271.196 246.362 279.188 263.5 C 289.099 284.754 291.369 291.059 289.71 292.719 C 287.443 294.986 284.097 293.612 251.5 277.031 C 235.55 268.918 219.125 260.761 215 258.905 C 210.875 257.049 200.3 251.764 191.5 247.161 C 182.7 242.559 168.525 235.172 160 230.747 C 151.475 226.322 143.698 222.01 142.717 221.165 C 140.271 219.06 120 177.567 120 174.667 C 120 173.384 120.3 172.033 120.667 171.667 Z M 162.219 261.559 C 163.44 260.704 165.352 260.26 166.469 260.571 C 171.398 261.947 306.839 330.199 308.815 332.303 C 310.027 333.594 313.879 340.916 317.374 348.575 C 320.87 356.234 327.321 370.15 331.71 379.5 C 336.1 388.85 341.856 401.225 344.501 407 C 347.146 412.775 352.54 424.475 356.488 433 C 360.437 441.525 364.262 450.075 364.988 452 C 366.828 456.875 383.867 493.05 391.05 507.331 C 396.791 518.746 397 519.434 397 526.933 C 397 535.727 395.16 539.628 385.704 546 L 340.286 546 C 292.918 546 292.542 545.968 288.761 541.603 C 284.515 536.702 256.62 478.689 242.491 445.377 C 240.129 439.809 235.499 429.459 232.201 422.377 C 228.904 415.294 224.633 405.675 222.71 401 C 220.788 396.325 215.976 385.975 212.016 378 C 208.057 370.025 202.323 357.65 199.274 350.5 C 196.226 343.35 191.508 333 188.791 327.5 C 186.074 322 180.9 310.75 177.294 302.5 C 173.688 294.25 168.322 282.49 165.369 276.366 C 159.237 263.651 159.237 263.648 162.219 261.559 Z" stroke="none" fill="black" fill-rule="evenodd"/>
</svg>