<svg xmlns="http://www.w3.org/2000/svg" width="820" height="588" viewBox="0 0 820 588" version="1.1">
	
	<path d="M 61.923 41.923 C 58.363 45.483, 58.108 49.662, 61 57 C 62.100 59.791, 63 63.133, 63 64.428 C 63 65.722, 63.890 68.743, 64.978 71.141 C 66.066 73.538, 66.966 76.760, 66.978 78.300 C 66.990 79.839, 67.662 82.380, 68.471 83.945 C 69.281 85.510, 70.255 88.750, 70.636 91.145 C 71.017 93.540, 72.145 97.300, 73.143 99.500 C 74.140 101.700, 74.966 104.760, 74.978 106.300 C 74.990 107.839, 75.633 110.324, 76.407 111.820 C 77.181 113.316, 78.302 117.181, 78.898 120.407 C 79.495 123.634, 80.457 126.846, 81.037 127.545 C 81.617 128.243, 82.483 130.994, 82.963 133.657 C 83.442 136.321, 84.513 140.525, 85.342 143 C 86.172 145.475, 87.818 150.875, 89 155 C 90.182 159.125, 91.830 164.525, 92.662 167 C 93.493 169.475, 94.546 173.300, 95 175.500 C 95.454 177.700, 96.540 181.638, 97.413 184.250 C 98.286 186.863, 99.714 191.138, 100.587 193.750 C 101.460 196.363, 102.526 200.300, 102.957 202.500 C 103.388 204.700, 104.474 208.173, 105.370 210.218 C 106.267 212.263, 107.015 215.188, 107.034 216.718 C 107.053 218.248, 107.937 221.300, 109 223.500 C 110.063 225.700, 110.957 228.625, 110.988 230 C 111.019 231.375, 111.934 234.462, 113.022 236.859 C 114.110 239.257, 115 242.182, 115 243.359 C 115 245.302, 116.407 250.173, 120.676 263 C 121.500 265.475, 122.511 269.300, 122.922 271.500 C 123.592 275.079, 125.186 280.505, 128.211 289.500 C 128.766 291.150, 129.686 294.300, 130.256 296.500 C 130.827 298.700, 132.080 302.750, 133.042 305.500 C 134.004 308.250, 135.239 312.300, 135.786 314.500 C 136.333 316.700, 137.239 319.850, 137.800 321.500 C 138.361 323.150, 139.794 327.875, 140.985 332 C 142.176 336.125, 143.830 341.525, 144.662 344 C 145.493 346.475, 146.511 350.300, 146.922 352.500 C 147.334 354.700, 148.385 358.750, 149.257 361.500 C 150.130 364.250, 151.762 369.650, 152.884 373.500 C 154.006 377.350, 155.645 382.750, 156.527 385.500 C 157.408 388.250, 158.535 392.406, 159.032 394.736 C 159.528 397.066, 160.624 400.306, 161.467 401.937 C 162.310 403.567, 163.020 405.936, 163.044 407.200 C 163.068 408.465, 163.770 411.300, 164.605 413.500 C 165.439 415.700, 166.723 419.750, 167.459 422.500 C 168.194 425.250, 169.245 428.850, 169.793 430.500 C 170.341 432.150, 171.540 435.750, 172.455 438.500 C 173.371 441.250, 174.722 445.750, 175.458 448.500 C 176.194 451.250, 177.274 454.850, 177.857 456.500 C 180.203 463.127, 182.177 469.726, 183.061 473.893 C 184.635 481.310, 187.745 483.030, 191.792 478.721 C 193.435 476.972, 231 402.126, 231 400.602 C 231 400.418, 234.764 392.445, 239.364 382.884 C 243.964 373.323, 248.786 362.496, 250.079 358.824 L 252.429 352.148 250.350 346.824 C 249.206 343.896, 247.814 339.250, 247.256 336.500 C 246.698 333.750, 245.774 330.150, 245.202 328.500 C 244.629 326.850, 243.645 323.475, 243.014 321 C 240.686 311.871, 239.724 308.397, 238.307 304 C 237.509 301.525, 236.473 297.406, 236.004 294.846 C 235.535 292.287, 234.442 288.822, 233.575 287.146 C 232.709 285.470, 231.980 282.614, 231.956 280.800 C 231.932 278.985, 231.223 275.700, 230.380 273.500 C 229.537 271.300, 228.436 267.475, 227.933 265 C 227.430 262.525, 226.378 258.925, 225.595 257 C 223.486 251.813, 221.076 244.213, 219.571 238 C 218.838 234.975, 217.757 231.150, 217.169 229.500 C 214.677 222.513, 211.997 213.221, 211.956 211.430 C 211.932 210.368, 211.230 207.700, 210.396 205.500 C 209.562 203.300, 208.260 199.025, 207.502 196 C 204.609 184.459, 202.264 176.361, 201.267 174.467 C 200.698 173.385, 199.902 170.475, 199.498 168 C 199.094 165.525, 198.142 162.285, 197.382 160.800 C 196.622 159.314, 195.980 157.064, 195.956 155.800 C 195.932 154.535, 195.223 151.700, 194.380 149.500 C 193.538 147.300, 192.285 143.025, 191.597 140 C 190.909 136.975, 189.870 133.600, 189.289 132.500 C 188.708 131.400, 187.903 128.475, 187.500 126 C 187.097 123.525, 186.292 120.600, 185.711 119.500 C 185.130 118.400, 184.086 115.025, 183.391 112 C 182.697 108.975, 181.463 104.475, 180.649 102 C 179.836 99.525, 178.209 94.125, 177.034 90 C 175.859 85.875, 174.233 80.452, 173.420 77.949 C 172.608 75.446, 171.538 71.171, 171.043 68.449 C 168.464 54.258, 163.934 45.392, 157.413 41.773 L 152.500 39.047 108.673 39.023 L 64.846 39 61.923 41.923  M 664.5 39.019 L 709.679 39.009 C 749.425 39.001 755.046 39.189 756.429 40.571 C 758.761 42.904 758.527 53.621 756.022 59.141 C 754.934 61.538 754.034 64.625 754.021 66 C 754.009 67.375 753.099 70.867 751.999 73.761 C 750.9 76.654 750 80.092 750 81.402 C 750 82.711 749.11 85.743 748.022 88.141 C 746.934 90.538 746.034 93.913 746.022 95.641 C 746.01 97.368 745.11 100.743 744.022 103.141 C 742.934 105.538 742.034 108.625 742.022 110 C 742 112.514 739.253 121.481 735.838 130.185 C 734.827 132.762 734 136.201 734 137.826 C 734 139.452 733.11 142.743 732.022 145.141 C 730.934 147.538 730.034 150.76 730.022 152.3 C 730.01 153.839 729.291 156.47 728.425 158.146 C 727.558 159.822 726.47 163.287 726.007 165.846 C 725.544 168.406 724.406 172.75 723.478 175.5 C 722.549 178.25 721.106 182.525 720.27 185 C 719.434 187.475 718.44 191.3 718.06 193.5 C 717.68 195.7 716.804 198.542 716.114 199.817 C 715.423 201.091 714.478 204.241 714.012 206.817 C 713.547 209.392 712.453 213.637 711.583 216.25 C 710.712 218.863 709.288 223.137 708.417 225.75 C 707.547 228.363 706.456 232.594 705.993 235.154 C 705.53 237.713 704.442 241.178 703.575 242.854 C 702.709 244.53 701.99 247.161 701.978 248.7 C 701.966 250.24 701.066 253.462 699.978 255.859 C 698.89 258.257 697.99 261.407 697.978 262.859 C 697.966 264.312 697.066 267.462 695.978 269.859 C 694.89 272.257 693.99 275.407 693.978 276.859 C 693.966 278.312 693.066 281.462 691.978 283.859 C 690.89 286.257 690 289.245 690 290.5 C 690 291.755 689.11 294.743 688.022 297.141 C 686.934 299.538 686.034 302.752 686.022 304.282 C 686.01 305.812 685.267 308.737 684.37 310.782 C 683.474 312.827 682.388 316.3 681.957 318.5 C 681.526 320.7 680.493 324.525 679.662 327 C 678.83 329.475 677.154 334.875 675.938 339 C 674.721 343.125 672.918 348.975 671.932 352 C 670.946 355.025 669.844 359.284 669.484 361.465 C 669.123 363.646 668.192 366.662 667.414 368.166 C 666.636 369.67 665.99 372.161 665.978 373.7 C 665.966 375.24 665.066 378.462 663.978 380.859 C 662.89 383.257 661.99 386.407 661.978 387.859 C 661.966 389.312 661.066 392.462 659.978 394.859 C 658.89 397.257 657.99 400.407 657.978 401.859 C 657.966 403.312 657.066 406.462 655.978 408.859 C 654.89 411.257 654.005 414.182 654.01 415.359 C 654.019 417.323 652.298 423.309 648.364 435 C 647.531 437.475 646.445 441.419 645.952 443.764 C 645.459 446.11 644.608 448.865 644.061 449.886 C 643.514 450.908 642.43 454.614 641.653 458.122 C 640.875 461.63 639.746 465.85 639.143 467.5 C 638.54 469.15 637.794 472.173 637.484 474.218 C 637.175 476.263 636.232 478.625 635.389 479.468 C 630.555 484.302 630.477 484.165 576.539 376.5 C 568.227 359.908 567.043 352.817 570.814 342.22 C 571.934 339.074 573.122 334.54 573.454 332.145 C 573.786 329.75 574.719 326.51 575.529 324.945 C 576.338 323.38 577 320.957 577 319.56 C 577 318.164 577.9 314.654 578.999 311.761 C 580.099 308.867 580.999 305.458 580.999 304.185 C 581 302.912 581.863 299.762 582.917 297.185 C 583.972 294.608 585.11 290.54 585.446 288.145 C 585.782 285.75 586.719 282.51 587.529 280.945 C 588.338 279.38 589.01 276.839 589.022 275.3 C 589.034 273.76 589.934 270.538 591.022 268.141 C 592.11 265.743 593.01 262.368 593.022 260.641 C 593.034 258.913 593.86 255.7 594.857 253.5 C 595.855 251.3 596.983 247.54 597.364 245.145 C 597.745 242.75 598.719 239.51 599.529 237.945 C 600.338 236.38 601.02 233.839 601.044 232.3 C 601.068 230.76 601.77 227.7 602.604 225.5 C 603.438 223.3 604.714 219.025 605.441 216 C 606.167 212.975 607.247 209.15 607.84 207.5 C 610.109 201.192 612.143 194.271 613.482 188.302 C 614.248 184.894 615.29 181.294 615.8 180.302 C 616.309 179.311 617.025 176.54 617.392 174.145 C 617.758 171.75 618.658 168.6 619.393 167.145 C 620.127 165.69 621.04 162.06 621.421 159.077 C 621.803 156.094 622.563 152.816 623.112 151.792 C 624.153 149.846 627.145 139.41 629.36 130 C 630.072 126.975 631.13 123.6 631.711 122.5 C 632.292 121.4 633.098 118.475 633.502 116 C 633.906 113.525 634.805 110.375 635.5 109 C 636.195 107.625 637.095 104.475 637.5 102 C 637.905 99.525 638.815 96.369 639.521 94.987 C 640.228 93.605 641.133 90.23 641.533 87.487 C 641.933 84.744 642.863 81.31 643.601 79.855 C 644.339 78.4 645.243 75.25 645.61 72.855 C 645.978 70.46 646.825 67.375 647.493 66 C 648.161 64.625 649.244 61.307 649.899 58.627 C 651.926 50.339 655.527 44.397 660.233 41.576 Z M 363.3 200 L 408.19 200 C 458.295 200 457.354 199.878 463.491 207.172 C 465 208.965 478.489 234.972 493.466 264.966 C 525.187 328.492 575.939 429.049 577.012 430.5 C 577.418 431.05 583.157 442.075 589.763 455 C 596.37 467.925 606.198 487.05 621.432 516.5 L 621.454 525 C 621.472 532.014 621.064 534.287 619.121 538 C 614.546 546.744 619.137 546 569.779 546 C 543.717 546 525.141 545.611 524.079 545.042 C 521.165 543.483 514.531 532.34 508.872 519.5 C 505.963 512.9 496.648 493.55 488.173 476.5 C 467.42 434.752 453.408 405.867 452.484 402.925 C 452.065 401.591 444.976 386.55 436.731 369.5 C 428.486 352.45 421.167 336.925 420.465 335 C 413.267 315.237 407.968 312.18 401.863 324.268 C 400.132 327.695 397.476 333.425 395.961 337 C 390.393 350.137 373.162 387.776 368.492 397 C 365.847 402.225 360.434 413.925 356.462 423 C 352.49 432.075 345.419 447.6 340.747 457.5 C 336.076 467.4 329.986 480.45 327.213 486.5 C 315.071 512.993 301.651 539.228 295.264 546 L 209.955 546 L 205.529 541.92 C 200.124 536.938 198.662 532.843 199.187 524.159 C 199.575 517.735 200.703 515.262 231.175 454 C 293.831 328.033 313.911 287.344 317.85 278.368 C 325.064 261.927 350.242 211.865 352.865 208.748 C 354.275 207.073 357.199 204.419 359.364 202.851 Z" stroke="none" fill="black" fill-rule="evenodd"/>
</svg>