<svg xmlns="http://www.w3.org/2000/svg" width="664" height="588" viewBox="0 0 664 588" version="1.1">
	
	<path d="M 74.750 40.080 C 71.885 41.749, 72.736 45.486, 77.271 51.158 C 79.620 54.096, 82.708 58.300, 84.134 60.500 C 85.560 62.700, 89.642 67.650, 93.207 71.500 C 96.771 75.350, 100.849 80.351, 102.270 82.613 C 103.690 84.876, 107.261 89.376, 110.204 92.613 C 113.148 95.851, 116.859 100.525, 118.452 103 C 120.045 105.475, 123.685 109.975, 126.540 113 C 129.395 116.025, 132.988 120.525, 134.526 123 C 136.064 125.475, 140.103 130.425, 143.502 134 C 146.902 137.575, 151.191 142.750, 153.034 145.500 C 154.877 148.250, 158.939 153.200, 162.060 156.500 C 165.181 159.800, 168.993 164.525, 170.532 167 C 172.070 169.475, 175.895 174.200, 179.032 177.500 C 182.168 180.800, 185.995 185.525, 187.536 188 C 189.077 190.475, 192.652 194.975, 195.480 198 C 198.308 201.025, 202.033 205.750, 203.758 208.500 C 205.483 211.250, 208.761 215.300, 211.043 217.500 C 213.325 219.700, 216.769 223.975, 218.695 227 C 220.622 230.025, 224.344 234.750, 226.967 237.500 C 229.590 240.250, 233.551 245.200, 235.770 248.500 C 237.990 251.800, 241.704 256.300, 244.024 258.500 C 246.345 260.700, 249.843 264.975, 251.798 268 C 253.753 271.025, 257.908 276.200, 261.032 279.500 C 264.155 282.800, 268.295 287.975, 270.231 291 C 272.166 294.025, 275.428 298.075, 277.479 300 C 279.530 301.925, 283.368 306.650, 286.008 310.500 C 288.647 314.350, 293.142 319.750, 295.995 322.500 C 298.849 325.250, 302.764 329.975, 304.695 333 C 306.626 336.025, 309.682 340.075, 311.486 342 C 313.291 343.925, 316.006 347.525, 317.520 350 C 319.035 352.475, 322.378 356.750, 324.951 359.500 C 327.523 362.250, 331.232 366.975, 333.192 370 C 335.153 373.025, 338.655 377.300, 340.976 379.500 C 343.296 381.700, 347.018 386.200, 349.247 389.500 C 351.476 392.800, 356.315 398.650, 360.001 402.500 C 363.687 406.350, 367.491 411.030, 368.454 412.899 C 369.417 414.768, 372.990 419.268, 376.392 422.899 C 379.795 426.530, 384.095 431.750, 385.948 434.500 C 387.801 437.250, 392.085 442.425, 395.470 446 C 398.854 449.575, 403.129 454.750, 404.970 457.500 C 406.810 460.250, 411.085 465.425, 414.470 469 C 417.854 472.575, 422.130 477.750, 423.971 480.500 C 425.813 483.250, 429.874 488.200, 432.995 491.500 C 436.117 494.800, 439.931 499.525, 441.472 502 C 443.013 504.475, 446.371 508.750, 448.934 511.500 C 451.498 514.250, 455.097 518.750, 456.933 521.500 C 461.008 527.605, 475.490 542.610, 479.200 544.572 C 483.463 546.826, 602.167 546.690, 604.429 544.429 C 605.293 543.564, 606 542.642, 606 542.379 C 606 540.761, 602.569 535.930, 598.985 532.500 C 596.686 530.300, 593.010 525.879, 590.815 522.676 C 588.620 519.473, 584.029 513.848, 580.611 510.176 C 577.194 506.504, 572.332 500.575, 569.807 497 C 567.282 493.425, 563.991 489.375, 562.493 488 C 560.996 486.625, 557.621 482.350, 554.994 478.500 C 552.366 474.650, 548.769 470.150, 547 468.500 C 545.231 466.850, 541.627 462.350, 538.992 458.500 C 536.357 454.650, 532.312 449.700, 530.003 447.500 C 527.694 445.300, 523.967 440.800, 521.721 437.500 C 519.475 434.200, 514.862 428.575, 511.470 425 C 508.078 421.425, 503.489 415.800, 501.273 412.500 C 499.056 409.200, 496.232 405.600, 494.997 404.500 C 493.761 403.400, 490.600 399.350, 487.973 395.500 C 485.346 391.650, 481.074 386.475, 478.479 384 C 475.884 381.525, 471.278 376.125, 468.242 372 C 465.207 367.875, 460.361 362.025, 457.473 359 C 454.586 355.975, 451.039 351.583, 449.592 349.239 C 448.145 346.896, 444.741 342.527, 442.028 339.531 C 439.314 336.534, 436.340 332.625, 435.419 330.844 C 434.498 329.063, 430.497 324.196, 426.528 320.029 C 422.559 315.863, 418.048 310.439, 416.504 307.977 C 414.961 305.515, 410.232 299.900, 405.996 295.500 C 401.760 291.100, 396.473 284.800, 394.248 281.500 C 392.022 278.200, 388.526 273.925, 386.479 272 C 384.432 270.075, 380.839 265.575, 378.494 262 C 376.150 258.425, 372.112 253.475, 369.521 251 C 366.930 248.525, 362.984 243.800, 360.752 240.500 C 358.520 237.200, 354.137 231.800, 351.012 228.500 C 347.887 225.200, 344.070 220.475, 342.532 218 C 340.993 215.525, 337.168 210.800, 334.032 207.500 C 330.895 204.200, 327.079 199.475, 325.550 197 C 324.021 194.525, 321.067 190.700, 318.986 188.500 C 316.905 186.300, 313.624 182.025, 311.695 179 C 309.766 175.975, 306.079 171.475, 303.502 169 C 300.925 166.525, 296.743 161.575, 294.208 158 C 291.673 154.425, 286.974 148.655, 283.767 145.179 C 280.559 141.702, 276.759 136.977, 275.321 134.679 C 273.883 132.380, 269.849 127.455, 266.355 123.734 C 262.862 120.012, 258.812 115.062, 257.355 112.734 C 255.899 110.405, 251.864 105.471, 248.389 101.769 C 244.914 98.067, 241.316 93.567, 240.393 91.769 C 239.470 89.971, 236.258 85.837, 233.255 82.582 C 230.252 79.327, 226.603 74.753, 225.147 72.416 C 219.502 63.358, 202.568 46.546, 195.175 42.661 L 188.208 39 132.354 39.030 C 96.281 39.050, 75.880 39.422, 74.750 40.080  M 481.5 39.036 L 540.179 39.018 C 602.07 38.999 602.025 38.996 601.991 43.321 C 601.967 46.28 595.374 55.464 586.746 64.557 C 581.557 70.026 576.04 76.525 574.487 79 C 572.933 81.475 569.347 85.975 566.518 89 C 563.688 92.025 559.303 97.425 556.773 101 C 554.243 104.575 549.394 110.2 545.998 113.5 C 542.601 116.8 538.22 121.975 536.263 125 C 534.306 128.025 529.905 133.425 526.484 137 C 523.062 140.575 519.004 145.525 517.467 148 C 515.929 150.475 512.101 155.2 508.961 158.5 C 505.821 161.8 502.496 165.986 501.573 167.803 C 500.65 169.619 496.845 174.344 493.119 178.303 C 489.393 182.261 484.822 187.75 482.962 190.5 C 481.102 193.25 476.841 198.425 473.493 202 C 470.145 205.575 465.565 211.2 463.314 214.5 C 461.064 217.8 457.987 221.625 456.476 223 C 454.965 224.375 452.135 227.975 450.188 231 C 448.24 234.025 444.099 239.2 440.984 242.5 C 437.869 245.8 433.833 250.75 432.015 253.5 C 424.581 264.747 418.809 269.004 414.25 266.603 C 410.438 264.595 402.055 255.677 397.233 248.5 C 395.015 245.2 391.556 240.925 389.545 239 C 387.534 237.075 384.478 233.25 382.755 230.5 C 381.032 227.75 377.295 223.012 374.451 219.971 C 371.607 216.93 368.479 212.88 367.499 210.971 C 366.52 209.062 363.149 204.743 360.008 201.372 C 356.867 198.002 354.049 194.295 353.746 193.135 C 352.858 189.74 357.888 181.188 365.58 173.019 C 369.473 168.884 374.16 163.25 375.995 160.5 C 377.83 157.75 381.261 153.405 383.619 150.844 C 385.976 148.282 389.458 143.782 391.356 140.844 C 393.255 137.905 396.693 133.7 398.998 131.5 C 401.303 129.3 405.258 124.575 407.788 121 C 410.318 117.425 415.797 110.9 419.963 106.5 C 424.13 102.1 429.33 95.942 431.519 92.817 C 440.013 80.69 444.752 74.581 451.311 67.306 C 455.057 63.15 459.839 57.444 461.938 54.625 C 466.936 47.914 469.429 45.689 476.029 42.052 Z M 59.986 80.025 C 62.213 75.865 65.424 77.484 73.323 86.75 C 77.426 91.563 82.229 96.85 83.996 98.5 C 85.764 100.15 89.002 104.121 91.193 107.324 C 93.383 110.527 97.982 116.152 101.414 119.824 C 104.845 123.496 109.167 128.75 111.019 131.5 C 112.87 134.25 116.939 139.2 120.06 142.5 C 123.181 145.8 126.993 150.525 128.532 153 C 130.07 155.475 133.883 160.2 137.005 163.5 C 140.126 166.8 144.189 171.75 146.033 174.5 C 147.877 177.25 151.939 182.2 155.06 185.5 C 158.181 188.8 161.995 193.525 163.536 196 C 165.077 198.475 168.677 202.975 171.534 206 C 174.392 209.025 177.992 213.525 179.534 216 C 181.077 218.475 184.668 222.975 187.515 226 C 190.361 229.025 194.516 234.2 196.748 237.5 C 198.979 240.8 202.694 245.3 205.003 247.5 C 207.312 249.7 211.361 254.65 214 258.5 C 216.639 262.35 220.699 267.3 223.021 269.5 C 225.343 271.7 228.843 275.965 230.798 278.977 C 232.752 281.989 237.151 287.434 240.573 291.078 C 243.995 294.721 247.568 299.198 248.513 301.026 C 249.459 302.854 253.278 307.567 257 311.5 C 260.722 315.433 264.547 320.158 265.5 322 C 266.453 323.842 270.268 328.558 273.98 332.478 C 277.691 336.399 281.986 341.608 283.524 344.054 C 285.063 346.499 289.132 351.425 292.567 355 C 296.002 358.575 301.78 365.946 312 381.26 L 312 389.18 C 312 397.55 310.852 401.039 306.96 404.502 C 305.725 405.601 302.807 409.425 300.476 413 C 298.144 416.575 294.34 421.3 292.021 423.5 C 289.702 425.7 285.981 430.2 283.751 433.5 C 281.522 436.8 276.926 442.425 273.537 446 C 270.149 449.575 265.868 454.75 264.023 457.5 C 262.178 460.25 258.739 464.595 256.381 467.156 C 254.024 469.718 250.552 474.218 248.667 477.156 C 246.782 480.095 244.232 483.4 243.001 484.5 C 241.77 485.6 238.702 489.425 236.184 493 C 233.666 496.575 228.525 502.785 224.759 506.799 C 220.993 510.814 216.402 516.439 214.556 519.299 C 212.711 522.16 206.273 529.337 189.299 546 L 129.231 546 C 96.194 546 68.452 545.727 67.582 545.393 C 63.567 543.853 67.789 535.543 78.297 524.299 C 81.792 520.56 86.164 515.25 88.011 512.5 C 89.859 509.75 94.352 504.35 97.997 500.5 C 101.641 496.65 106.926 490.35 109.739 486.5 C 112.553 482.65 116.732 477.7 119.025 475.5 C 121.318 473.3 125.03 468.8 127.272 465.5 C 129.515 462.2 134.578 456.125 138.523 452 C 142.469 447.875 147.644 441.8 150.024 438.5 C 152.404 435.2 157.818 428.9 162.056 424.5 C 166.293 420.1 170.495 415.047 171.395 413.27 C 172.294 411.494 175.648 407.219 178.847 403.77 C 182.046 400.322 186.497 394.8 188.738 391.5 C 190.98 388.2 195.148 383.25 198 380.5 C 200.852 377.75 205.032 372.8 207.287 369.5 C 209.543 366.2 214.617 360.103 218.563 355.951 C 227.532 346.514 228.037 345.102 224.339 339.787 C 222.777 337.544 220.419 334.086 219.098 332.104 C 217.777 330.122 214.219 325.81 211.19 322.522 C 208.162 319.234 204.227 314.284 202.446 311.522 C 200.665 308.76 196.758 303.8 193.762 300.5 C 190.767 297.2 187.153 292.649 185.732 290.387 C 184.31 288.124 180.739 283.624 177.796 280.387 C 174.852 277.149 171.143 272.475 169.552 270 C 167.962 267.525 164.12 262.8 161.015 259.5 C 157.91 256.2 153.304 250.575 150.779 247 C 148.254 243.425 144.303 238.7 141.998 236.5 C 139.693 234.3 136.228 230.054 134.297 227.064 C 132.367 224.074 128.421 219.124 125.528 216.064 C 122.636 213.004 119.029 208.51 117.513 206.077 C 115.997 203.644 112.849 199.594 110.517 197.077 C 108.186 194.56 105.018 190.475 103.478 188 C 101.938 185.525 97.885 180.575 94.471 177 C 91.056 173.425 87.01 168.489 85.48 166.03 C 83.949 163.572 80.582 159.297 77.997 156.53 C 75.412 153.764 71.651 149.025 69.639 146 C 67.627 142.975 64.523 138.55 59.5 131.833 L 59.201 106.942 C 59.003 90.418 59.267 81.37 59.986 80.025 Z" stroke="none" fill="black" fill-rule="evenodd"/>
</svg>