<svg xmlns="http://www.w3.org/2000/svg" width="652" height="584" viewBox="0 0 652 584" version="1.1">
	
	<path d="M 61.200 40.200 C 58.446 42.954, 60.023 45.974, 69.310 55.725 C 74.430 61.101, 80.812 68.425, 83.493 72 C 86.173 75.575, 92.943 83.225, 98.538 89 C 104.133 94.775, 110.651 102.200, 113.024 105.500 C 115.396 108.800, 121.454 115.775, 126.486 121 C 131.518 126.225, 137.939 133.650, 140.755 137.500 C 143.572 141.350, 149.318 147.875, 153.525 152 C 157.732 156.125, 163.025 162.200, 165.287 165.500 C 167.549 168.800, 173.511 175.775, 178.535 181 C 183.560 186.225, 189.173 192.750, 191.010 195.500 C 192.846 198.250, 198.264 204.550, 203.049 209.500 C 207.835 214.450, 212.997 220.525, 214.520 223 C 216.043 225.475, 221.431 231.775, 226.494 237 C 231.556 242.225, 237.195 248.750, 239.023 251.500 C 240.852 254.250, 246.237 260.550, 250.991 265.500 C 255.744 270.450, 261.938 277.668, 264.755 281.539 C 267.572 285.411, 270.854 289.461, 272.048 290.539 C 273.242 291.618, 275.519 295.075, 277.109 298.221 L 280 303.943 280 419.021 C 280 546.047, 279.512 536.730, 286.484 542.852 L 290.070 546 331.958 546 L 373.847 546 376.813 543.504 C 383.908 537.533, 383.444 546.004, 384 412.500 L 384.500 292.500 386.750 288.515 C 391.548 280.016, 388.253 270.491, 376.020 257.500 C 372.913 254.200, 368.528 248.800, 366.276 245.500 C 364.023 242.200, 359.399 236.800, 356 233.500 C 352.601 230.200, 347.973 224.800, 345.715 221.500 C 343.458 218.200, 338.411 212.125, 334.500 208 C 330.589 203.875, 325.542 197.800, 323.285 194.500 C 321.027 191.200, 316.411 185.800, 313.025 182.500 C 309.640 179.200, 304.567 173.350, 301.752 169.500 C 298.937 165.650, 292.756 158.450, 288.017 153.500 C 283.278 148.550, 277.655 142.025, 275.521 139 C 273.387 135.975, 268.201 129.900, 263.996 125.500 C 259.792 121.100, 254.394 114.800, 252.002 111.500 C 249.610 108.200, 243.699 101.339, 238.866 96.254 C 234.034 91.169, 228.307 84.419, 226.141 81.254 C 223.974 78.089, 220.537 73.925, 218.503 72 C 216.469 70.075, 210.555 63.686, 205.362 57.802 C 199.585 51.258, 193.511 45.530, 189.718 43.052 L 183.517 39 122.958 39 C 77.191 39, 62.107 39.293, 61.200 40.200  M 467.5 40.153 C 471.071 38.203 589.459 38.602 591.429 40.571 C 594.401 43.543 593.209 45.669 581.938 57.5 C 578.794 60.8 575.046 65.405 573.609 67.734 C 572.172 70.062 568.15 75.012 564.672 78.734 C 561.194 82.455 556.835 87.75 554.985 90.5 C 553.136 93.25 548.854 98.425 545.47 102 C 542.085 105.575 537.818 110.718 535.987 113.429 C 534.156 116.14 528.774 122.44 524.027 127.429 C 519.281 132.418 513.55 139.2 511.293 142.5 C 509.037 145.8 505.069 150.525 502.476 153 C 499.883 155.475 496.164 159.975 494.212 163 C 492.259 166.025 487.679 171.65 484.034 175.5 C 480.388 179.35 476.127 184.497 474.564 186.938 C 473.001 189.38 467.809 195.455 463.027 200.438 C 458.245 205.422 452.824 211.75 450.981 214.5 C 449.138 217.25 444.627 222.65 440.956 226.5 C 437.286 230.35 432.705 235.975 430.778 239 C 426.368 245.92 412.904 259 410.191 259 C 409.079 259 407.058 257.762 405.7 256.25 C 404.341 254.738 400.729 250.72 397.673 247.321 C 394.616 243.923 390.906 239.198 389.428 236.821 C 387.95 234.445 383.732 229.35 380.055 225.5 C 376.379 221.65 371.854 216.25 370.001 213.5 C 368.149 210.75 363.903 205.504 360.566 201.843 C 352.072 192.522 348.014 184.736 350.015 181.601 C 356.24 171.85 361.31 164.98 364.482 162 C 366.532 160.075 370.364 155.35 373 151.5 C 375.636 147.65 379.439 142.925 381.452 141 C 383.465 139.075 386.519 135.25 388.239 132.5 C 389.958 129.75 394.589 124.125 398.529 120 C 402.468 115.875 406.945 110.475 408.477 108 C 410.009 105.525 414.056 100.575 417.471 97 C 420.885 93.425 424.946 88.475 426.496 86 C 428.045 83.525 432.224 78.35 435.783 74.5 C 439.341 70.65 443.957 65.025 446.04 62 C 449.924 56.358 463.923 42.107 467.5 40.153 Z" stroke="none" fill="black" fill-rule="evenodd"/>
</svg>