<svg xmlns="http://www.w3.org/2000/svg" width="592" height="588" viewBox="0 0 592 588" version="1.1">
	
	<path d="M 70.241 41.775 C 63.151 48.398, 63 49.311, 63 85.493 C 63 117.864, 63.015 118.096, 65.392 122.783 C 68.790 129.484, 70.644 130.778, 78.531 131.948 C 83.119 132.629, 129.576 132.900, 214.500 132.741 L 343.500 132.500 349.500 129.539 C 354.492 127.075, 361.346 120.776, 390.310 92.039 C 432.901 49.779, 436.839 44.982, 432.501 40.644 C 430.988 39.131, 416.605 39, 252.034 39 L 73.212 39 70.241 41.775  M 476.22 39 L 491.46 39 C 506.602 39 506.725 39.018 510.6 41.828 C 523.518 51.197 525.282 57.462 524.834 92.391 C 524.506 118.012 524.453 118.588 522 123.194 C 517.495 131.653 490.515 160.603 435.044 216.5 C 405.024 246.75 373.28 279.375 364.503 289 C 355.725 298.625 298.567 356.675 237.485 418 C 176.403 479.325 122.978 533.1 111.099 545.5 L 94.3 545.762 C 77.588 546.023 77.474 546.01 72.582 543.262 C 66.052 539.595 64.164 536.777 61.936 527.38 C 58.445 512.651 59.418 475.352 63.68 460.5 C 63.996 459.4 74.014 448.6 85.943 436.5 C 97.871 424.4 110.481 411.125 113.964 407 C 122.627 396.741 147.946 370.855 231.866 286.459 C 271.265 246.836 317.45 199.871 334.5 182.092 C 351.55 164.313 384.873 130.132 408.551 106.133 C 432.229 82.135 454.504 59.157 458.051 55.072 C 461.598 50.987 467.137 45.699 470.36 43.322 Z M 238.473 454 L 527.2 454 L 534 460.8 L 534 535.392 L 531.316 539.266 C 526.245 546.582 542.985 546 337.75 546 C 149.478 546 150 546.009 150 542.607 C 150 542.061 158.699 532.813 169.33 522.057 C 179.962 511.301 193.402 497.1 199.198 490.5 C 212.065 475.848 225.744 462.573 233.03 457.666 Z" stroke="none" fill="black" fill-rule="evenodd"/>
</svg>